<?xml version="1.0" encoding="utf-8" ?>
<svg xmlns="http://www.w3.org/2000/svg" xmlns:xlink="http://www.w3.org/1999/xlink" width="1024" height="1024">
	<path fill="#FEFEFE" d="M0 0L1024 0L1024 1024L0 1024L0 0Z"/>
	<path fill="#231F20" d="M199.747 687.558C202.865 687.216 204.496 688.438 207.028 689.959L210.72 698.533C213.144 709.804 210.611 720.723 204.134 730.194C202.027 733.275 196.351 741.361 192.549 742.076C191.03 737.96 201.199 724.875 203.136 720.546C207.124 711.637 206.541 703.597 203.183 694.674C197.18 696.153 190.78 697.367 185.402 700.562C179.886 703.837 174.753 709.258 173.326 715.638C171.568 723.495 175.753 729.808 179.819 736.074L180.52 726.6C181.205 723.447 182.421 720.03 185.223 718.194L187.51 718.873C191.16 725.439 187.415 771.546 186.909 781.532C188.904 776.835 191.487 771.941 194.745 767.987C197.653 764.459 201.656 761.45 206.373 761.163C209.388 760.98 212.266 762.044 214.498 764.065C218.309 767.517 220.102 773.228 220.111 778.256C220.136 792.051 203.58 802.574 194.292 811.064C190.452 814.574 187.192 818.568 183.594 822.308L183.483 877.235C190.157 876.18 218.925 871.856 223.249 874.109L224.747 875.999C224.005 877.519 223.311 878.175 221.72 878.807C219.004 879.887 215.751 880.073 212.866 880.444C205.092 881.445 190.042 882.265 183.2 884.972C180.165 886.172 177.6 884.35 174.399 884.856L173.921 884.943L94.215 895.088C92.2763 894.777 90.8717 894.092 89.7026 892.488L90.0616 890.933C91.142 889.865 92.8993 889.239 94.3486 888.881C96.8576 888.262 99.5868 888.226 102.148 887.866C108.427 886.982 114.676 885.822 120.972 884.962C139.53 882.426 158.071 879.945 176.706 878.043C177.162 862.582 177.157 847.032 176.891 831.567C176.789 825.629 176.074 819.719 176.004 813.79C175.944 808.647 176.373 803.417 176.625 798.275C172.283 796.649 169.968 792.944 166.364 790.283C161.736 786.866 155.861 791.932 150.762 792.651C144.723 793.502 138.079 791.549 133.361 787.732C128.448 783.758 125.304 777.835 124.641 771.563C124.043 765.911 125.149 759.312 128.85 754.823C131.963 751.048 136.368 749.229 141.168 748.826C147.035 748.333 150.665 750.258 155.023 753.978C163.658 761.349 166.033 770.558 166.962 781.479L177.006 790.983L177.45 790.482C176.967 788.644 176.496 786.708 176.417 784.804C176.259 781.027 177.018 777.04 177.219 773.25C177.667 764.781 177.791 756.296 178.342 747.832C173.797 741.585 168.757 732.652 166.748 725.167C165.039 718.804 166.244 712.557 169.488 706.891C175.885 695.722 187.87 690.597 199.747 687.558Z"/>
	<path fill="#FEFEFE" d="M204.73 769.487C207.928 769.557 209.464 770.458 211.644 772.806C213.101 774.376 213.845 776.056 213.716 778.229C213.217 786.609 198.096 799.244 192.134 804.897L185.882 810.237C185.924 804.627 186.852 799.687 188.8 794.426C192.007 785.767 195.86 773.552 204.73 769.487Z"/>
	<path fill="#FEFEFE" d="M139.778 755.55C142.92 755.509 145.721 756.136 148.445 757.754C156.126 762.317 157.786 772.036 159.87 779.985L151.23 786.04C147.947 786.304 144.819 785.985 141.737 784.759C137.212 782.961 133.487 779.363 131.562 774.89C129.946 771.137 129.543 766.358 131.247 762.562C132.957 758.754 135.984 756.868 139.778 755.55Z"/>
	<path fill="#231F20" d="M404.272 928.725C477.963 926.496 551.809 931.728 625.355 935.478C658.613 937.174 691.956 938.942 725.268 938.944C749.068 938.946 772.97 938.269 796.749 937.207C808.754 936.67 852.419 931.286 860.26 933.593C861.872 934.067 862.78 934.697 863.614 936.199L862.739 939.773C861.983 940.639 861.018 941.204 859.885 941.417C855.27 942.283 849.422 941.702 844.613 942.03C827.76 943.18 810.668 944.779 793.785 945.124C774.686 945.513 755.481 945.074 736.371 945.096C692.025 945.146 647.683 945.127 603.337 945.345C508.016 945.159 412.676 945.205 317.355 945.315C286.692 945.35 256.029 945.124 225.367 945.19C207.496 945.228 189.43 946.07 171.581 945.251C163.922 944.9 153.478 944.555 146.628 940.731L144.354 937.798L145.335 934.756C146.19 934.273 146.796 933.962 147.805 933.932C149.586 933.879 156.93 937.043 159.716 937.591C174.093 940.421 189.19 939.266 203.739 938.735C270.639 936.291 337.342 930.71 404.272 928.725Z"/>
	<path fill="#231F20" d="M584.998 75.9166C591.207 85.3001 602.961 90.9802 611.758 97.8102C632.256 113.726 651.304 131.015 671.031 147.809C680.244 155.651 692.056 162 698.908 172.076L695.369 175.304C692.983 185.348 694.158 196.768 694.43 207C694.687 216.673 694.845 226.328 695.158 236.003C695.449 244.983 695.06 254.056 695.776 263.012C696.378 270.54 697.877 277.983 698.182 285.538L698.214 286.417C707.188 286.511 716.099 287.429 723.219 293.523C727.296 297.013 729.635 301.582 730.903 306.723C733.3 316.441 733.165 327.95 734.273 338.047C740.69 396.542 740.423 454.89 740.47 513.641C740.496 546.398 739.921 579.156 740.023 611.905C740.042 618.042 740.679 624.103 740.911 630.225C741.227 638.579 741.12 647.044 740.98 655.404C740.545 681.262 739.963 707.122 739.487 732.979C739.305 742.869 737.964 753.469 738.81 763.279L740.809 764.977C742.45 762.724 740.4 759.478 742.568 756.844L745.978 757.057C746.696 757.758 747.131 758.094 747.378 759.11C747.772 760.724 747.412 762.801 747.562 764.494C747.832 767.545 748.302 770.604 748.7 773.642C750.715 789.053 752.943 804.436 754.85 819.861C756.945 812.771 760.221 792.87 766.079 789.428L767.718 790.128C768.738 791.672 768.715 793.86 768.507 795.615C767.915 800.601 765.75 805.73 764.548 810.662C762.118 820.638 760.076 830.703 758.102 840.777C756.678 841.73 755.414 842.451 753.704 842.325C750.38 838.769 749.729 823.858 747.089 818.362C745.114 814.248 740.527 810.624 737.676 806.929L737.039 848.741L757.813 848.448C760.96 852.93 761.195 856.497 761.626 861.796L793.903 866.726C793.873 859.077 795.05 851.544 795.298 843.919C795.707 831.359 795.151 818.399 794.333 805.861L793.782 805.691C791.288 804.836 790.363 803.852 789.299 801.523C785.862 793.991 783.827 784.776 782.077 776.664C773.604 737.393 776.826 697.597 791.072 660.129C804.467 624.899 830.917 589.361 856.23 561.834C859.787 557.967 864.677 551.19 869.385 549.078L870.885 549.951C872.749 551.631 871.529 555.63 871.172 557.84C866.547 586.445 867.529 606.156 870.011 634.716C871.036 646.513 872.939 659.274 872.374 671.063C872.04 678.032 869.864 685.049 867.958 691.733C856.999 730.165 831.946 771.692 802.431 798.689L801.926 800.615C801.28 802.511 800.584 804.411 800.516 806.433C800.225 815.016 801.765 823.877 801.829 832.53C801.871 838.139 802.036 843.854 801.771 849.457C801.479 855.628 800.779 861.498 801.068 867.706L885.633 882.65L929.959 891.412C931.593 892.257 931.753 893.117 932.231 894.751L931.523 896.401C930.125 897.477 927.944 897.302 926.286 897.128C923.669 896.854 921.101 896.076 918.501 895.665C905.127 893.549 891.891 890.674 878.603 888.088C852.882 883.082 826.936 878.592 801.071 874.395L801.631 885.075C801.56 887.074 801.272 888.227 799.781 889.591L796.2 888.839C793.75 887.097 794.309 876.565 794.151 873.615L758.809 867.806L757.884 887.562C741.44 887.656 724.644 886.337 708.209 885.515C684.656 884.336 661.072 883.391 637.502 882.63C551.829 879.864 466.159 877.487 380.493 874.471C360.151 873.755 339.768 873.206 319.435 872.294C291.05 871.021 262.686 869.424 234.271 868.993L235.667 876.83C235.594 878.604 234.992 879.078 233.76 880.175L231.969 880.038C230.631 879.129 229.968 877.481 229.525 875.979C228.588 872.804 228.39 869.313 227.855 866.046C226.745 859.268 225.543 852.503 224.598 845.7L237.861 845.144C237.023 839.677 237.033 833.792 236.748 828.257C236.251 818.604 235.759 808.951 235.263 799.298C234.368 781.857 232.791 764.221 232.546 746.784C232.404 736.677 233.001 726.635 233.32 716.541C233.598 707.739 233.551 698.908 233.734 690.099C233.993 677.657 233.652 665.128 234.526 652.713L218.309 628.767L254.478 622.224C253.874 586.969 253.455 551.796 253.397 516.532C253.362 495.189 252.558 466.336 256.125 445.624L247.618 444.347L227.796 419.06L292.14 405.55C293.1 394.903 294.038 384.318 294.278 373.619C294.607 358.895 294.035 344.12 294.549 329.408C295.119 313.095 297.254 297.102 298.691 280.874L282.048 255.434L350.404 241.181C350.345 226.886 351.881 212.364 352.532 198.06C353.364 179.786 353.448 161.526 354.027 143.251C354.241 136.51 356.644 117.223 353.943 111.861L352.912 109.173C355.089 107.104 373.508 104.154 377.8 103.243C414.345 95.4806 451.346 88.1777 488.407 83.3463C516.766 79.6494 545.362 77.5265 573.927 76.2787L584.998 75.9166Z"/>
	<path fill="#FEFEFE" d="M610.771 229.582L611.585 231.238L605.357 236.002L604.716 235.771L605.182 235.811L603.974 234.54C605.194 231.683 608.111 230.751 610.771 229.582Z"/>
	<path fill="#FEFEFE" d="M616.477 234.451L620.617 238.406L607.145 248.306L604.963 249.013L604.518 243.108L616.477 234.451Z"/>
	<path fill="#FEFEFE" d="M738.597 773.951C741.732 780.371 744.943 799.07 746.333 806.7L738.452 799.521L738.597 773.951Z"/>
	<path fill="#FEFEFE" d="M604.493 256.05L623.699 241.193L625.818 243.333L624.499 246.258C626.535 249.249 627.486 246.089 630.126 246.813L631.063 249.087C627.232 250.923 608.511 266.523 607.719 269.804L607.63 270.734C612.183 270.19 621.394 261.312 625.659 258.377C628.177 256.644 631.07 255.348 633.495 253.528L635.009 253.379L637.377 255.337L634.656 257.854L639.402 260.438C635.538 263.741 618.892 274.496 618.159 278.282C618.369 278.444 618.525 278.755 618.79 278.768C621.433 278.896 636.062 266.115 640.349 266.548L640.869 268.291L641.902 268.848L648.616 266.715L653.138 270.442L641.544 280.669L642.933 282.543C647.652 282.624 653.721 277.377 657.405 274.717L660.723 278.043L659.964 281.337L659.612 282.174L660.937 284.081L665.238 283.188C666.926 283.167 668.455 285.009 669.631 286.119L604.747 282.95L604.493 256.05Z"/>
	<path fill="#FEFEFE" d="M852.398 592.308L854.703 593.61C855.144 594.951 855.023 595.556 854.42 596.851C852.713 600.519 850.109 603.766 848.146 607.298C845.61 611.861 843.662 617.039 841.676 621.867C826.66 658.372 816.486 693.976 808.409 732.509C815.305 724.233 821.205 714.655 827.069 705.621C830.759 699.937 849.998 666.591 855.455 664.917L857.211 666.834C857.192 667.306 857.318 667.806 857.156 668.25C856.69 669.525 846.634 682.96 844.762 685.768C838.764 694.769 833.093 704.026 827.526 713.298C821.856 722.24 808.641 739.117 805.893 748.181C802.807 758.354 801.525 773.591 800.638 784.304C800.334 787.978 800.308 791.793 799.768 795.433C799.575 796.735 799.268 797.66 798.479 798.74L795.87 799.464L794.645 795.049C794.645 788.064 796.259 780.432 797.184 773.482C804.124 721.332 815.917 669.091 836.756 620.589C840.829 611.107 845.182 599.82 852.398 592.308Z"/>
	<path fill="#FEFEFE" d="M383.626 756.76L412.985 756.478L412.077 845.775L390.732 845.943C388.885 827.569 387.094 809.233 385.548 790.829C384.596 779.503 383.262 768.135 383.626 756.76Z"/>
	<path fill="#FEFEFE" d="M407.725 729.748L413.505 729.606L412.844 749.231C393.74 748.643 374.472 750.084 355.373 750.702C330.322 751.512 305.515 751.657 280.542 754.155L277.49 754.548L276.333 733.017L407.725 729.748Z"/>
	<path fill="#FEFEFE" d="M315.236 758.757L317.265 759.131C318.404 761.806 317.62 768.215 317.676 771.401C318.113 796.227 318.993 820.969 320.531 845.752L283.107 845.542L277.72 759.397L315.236 758.757Z"/>
	<path fill="#FEFEFE" d="M586.517 87.5237C590.653 89.7366 594.566 93.4118 598.36 96.2206C623.206 114.619 647.138 133.994 669.054 155.836C673.465 160.232 680.395 165.804 682.222 171.912C683.471 176.085 683.604 180.664 684.276 184.964C685.159 190.616 686.442 196.113 686.928 201.834C687.655 210.374 687.071 218.941 687.49 227.492C687.771 233.232 688.573 238.941 688.859 244.679C689.196 251.427 688.986 258.202 689.318 264.951C689.552 269.717 690.232 274.503 690.222 279.274C690.218 281.327 690.376 284.81 689.366 286.625L678.577 286.126C672.927 278.45 665.826 272.706 659.162 265.986C650.242 256.991 640.884 248.454 631.917 239.51C623.886 231.499 616.248 223.112 608.636 214.705C603.329 208.843 597.642 202.994 593.024 196.574L586.381 197.683C584.967 182.029 585.425 165.855 585.473 150.144C585.536 129.29 585.532 108.355 586.517 87.5237Z"/>
	<path fill="#FEFEFE" d="M408.894 629.3L416.514 628.929L413.763 722.346L275.411 726.161C273.901 726.249 272.069 726.143 271.051 727.298C268.623 737.106 271.596 768.568 272.263 780.049C273.523 801.748 274.11 824.012 277.066 845.542L254.227 845.515L244.06 845.459C244.105 834.554 243.287 823.599 242.728 812.709C241.598 790.678 240.165 768.53 239.434 746.496C238.954 732.008 240.437 717.407 240.504 702.88C240.568 688.914 239.633 674.142 241.12 660.297C244.657 655.194 250.03 649.939 252.909 644.694C253.707 643.24 253.961 641.686 254.805 640.235C261.032 638.446 268.652 638.693 275.112 638.317C283.998 637.8 292.881 637.224 301.763 636.657C337.48 634.377 373.206 631.981 408.894 629.3Z"/>
	<path fill="#FEFEFE" d="M592.764 221.145L595.732 221.447C596.874 224.846 596.086 230.928 596.194 234.623C596.664 250.761 597.683 266.679 596.845 282.83C564.33 280.566 531.68 279.438 499.086 279.474C485.171 279.489 468.971 278.853 455.332 281.48C450.993 282.315 446.937 283.832 443.45 286.62C440.155 289.254 437.539 292.746 436.131 296.733C433.158 305.159 432.861 315.047 432.064 323.909C431.081 334.853 430.024 345.81 429.237 356.77C428.639 365.095 428.456 373.501 427.417 381.783L306.075 403.098L299.015 404.466C302.894 374.509 300.608 343.632 302.295 313.495C302.78 304.824 303.073 295.84 304.703 287.294L308.07 286.981L312.575 270.195L592.764 221.145Z"/>
	<path fill="#231F20" d="M404.083 318.848L406.968 319.523L408.992 323.487C409.198 325.974 408.708 327.531 407.091 329.41L404.555 328.828C403.242 327.58 402.308 326.553 402.119 324.678C401.868 322.193 402.545 320.718 404.083 318.848Z"/>
	<path fill="#231F20" d="M385.927 322.798L388.536 323.328L390.805 326.61C391.563 329.194 390.933 332.277 389.692 334.593L386.31 333.92L384.164 329.756C383.908 327.17 384.315 324.854 385.927 322.798Z"/>
	<path fill="#231F20" d="M333.485 329.331L336.021 330.483C337.456 331.622 338.14 334.734 338.211 336.488C338.362 340.216 337.433 342.882 335.006 345.622L332.345 344.42C329.864 341.86 330.267 335.836 330.798 332.557C331.101 330.686 332.083 330.299 333.485 329.331Z"/>
	<path fill="#231F20" d="M360.724 323.95L364.719 324.132C366.627 324.998 368.331 327.921 369.042 329.803C370.336 333.231 370.936 336.63 369.445 340.043L367.498 340.352L365.154 338.731C362.67 335.466 360.252 328.134 360.724 323.95Z"/>
	<path fill="#231F20" d="M316.7 326.352L320.549 327.823C322.384 329.734 322.645 335.11 322.637 337.729C322.626 340.872 323.01 345.543 320.649 347.882L317.2 347.1L315.501 342.147C314.919 338.011 314.172 329.72 316.7 326.352Z"/>
	<path fill="#FEFEFE" d="M561.013 83.7853L567.447 83.4324C568.515 83.586 568.988 83.9055 569.114 85.021C569.257 86.295 568.656 87.6243 568.936 88.9322C569.839 93.1501 575.092 101.622 577.682 105.271L578.017 105.732C579.337 121.691 578.371 138.191 578.261 154.208C578.16 169.024 578.833 183.872 579.298 198.679C570.085 199.823 560.966 202.065 551.839 203.767C537.839 206.378 523.777 208.64 509.775 211.257C464.436 219.731 419.125 228.349 373.797 236.864L357.354 239.791C357.983 220.766 359.473 201.787 359.94 182.758C360.148 174.251 360.355 165.737 360.439 157.228C360.514 149.643 359.794 141.047 361.519 133.681C362.906 127.761 369.313 117.117 372.305 111.175C405.954 104.623 439.415 97.5055 473.341 92.4411C502.367 88.1082 531.716 85.4839 561.013 83.7853Z"/>
	<path fill="#231F20" d="M541.745 139.647L547.747 140.458L549.302 143.123L548.355 145.334C545.173 148.945 532.997 148.08 528.124 148.333L522.743 148.422L519.886 146.632L520.266 144.778C523.299 141.074 536.864 140.639 541.745 139.647Z"/>
	<path fill="#231F20" d="M396.87 147.737L400.002 147.9L402.25 150.013L401.807 151.774C398.34 155.866 384.191 155.688 378.841 156.051L375.245 155.514L372.349 152.125L373.017 150.397C376.284 147.479 391.838 147.925 396.87 147.737Z"/>
	<path fill="#231F20" d="M399.44 165.719L405.78 165.499C407.081 165.61 408.485 166.211 409.175 167.384L409.269 169.836C405.354 173.682 394.106 173.548 388.877 174.215L380.959 174.761C379.176 174.091 378.53 173.114 377.782 171.488L378.298 169.645C381.599 165.896 394.377 166.138 399.44 165.719Z"/>
	<path fill="#231F20" d="M562.011 156.207L569.754 156.158C571.332 156.508 572.767 157.29 573.524 158.787L573.365 161.297C567.832 165.684 550.506 163.232 542.988 163.805L542.163 163.871L536.68 164.296C534.006 164.444 530.965 163.811 528.93 161.993L529.122 160.912C534.996 156.081 554.054 156.703 562.011 156.207Z"/>
	<path fill="#231F20" d="M486.753 172.254L490.462 172.773L492.492 175.759C493.179 179.327 490.814 183.81 488.91 186.659C485.429 191.869 480.021 195.475 473.834 196.571C468.4 197.533 463.677 196.078 459.182 193.033C456.256 190.198 455.254 187.958 454.058 184.17L460.145 184.184L466.912 188.684C469.858 189.755 472.951 189.674 475.767 188.256C482.036 185.101 484.56 178.443 486.753 172.254Z"/>
	<path fill="#231F20" d="M475.056 131.638L483.618 132.561C490.883 135.141 496.347 139.569 499.523 146.672C500.732 149.378 501.878 152.675 500.776 155.573L498.145 156.759C498.029 156.759 496.639 156.567 496.449 156.458C495.25 155.77 491.539 145.654 487.248 142.183C483.962 139.524 480.009 137.9 475.756 138.454C468.292 139.425 463.015 144.092 458.524 149.775L455.81 146.83C454.418 145.698 451.923 145.715 450.23 146.086C447.933 146.59 445.868 148.131 444.318 149.848C437.568 157.331 443.808 159.714 441.588 164.952C440.868 166.65 438.13 168.488 436.959 170.311L435.102 175.811C434.978 177.44 435.171 178.921 436.425 180.118C439.429 182.984 444.533 182.156 448.294 182.181C449.928 182.191 450.894 182.332 452.047 183.502L449.876 187.12C447.782 189.346 443.901 190.481 440.927 190.585C437.316 190.71 434.066 189.378 431.554 186.786C428.744 183.886 427.374 179.935 427.512 175.924C427.71 170.225 430.198 166.148 434.23 162.391L433.656 154.745C434.28 149.904 436.454 145.547 440.482 142.666C446.035 138.693 451.866 139.33 458.16 140.42C463.144 135.607 468.129 132.748 475.056 131.638Z"/>
	<path fill="#FEFEFE" d="M422.875 411.738L425.137 411.79C426.162 415.688 424.057 433.781 423.793 439.219C422.488 466.018 421.314 492.83 420.133 519.634C418.934 546.849 418.51 574.08 417.434 601.291C411.631 602.332 405.589 602.652 399.721 603.281C388.58 604.476 377.443 605.7 366.312 606.988C331.867 610.973 297.367 615.354 263.121 620.803L261.958 620.658C259.835 614.945 260.301 471.813 261.688 454.241C262.059 449.535 263.658 445.032 264.715 440.453C265.734 436.037 266.483 431.531 267.316 427.076L422.875 411.738Z"/>
	<path fill="#231F20" d="M388.523 547.832L392.118 549.194L393.318 551.925C393.252 554.239 392.01 555.236 390.397 556.637L386.434 555.181L385.366 552.18C385.617 550.064 386.951 549.031 388.523 547.832Z"/>
	<path fill="#231F20" d="M367.788 544.787L372.168 546.134L374.584 552.093C374.771 555.217 374.81 557.937 372.633 560.372L369.77 559.945L367.32 556.249C366.314 552.895 366.198 547.943 367.788 544.787Z"/>
	<path fill="#231F20" d="M293.637 547.239L296.845 547.791C298.499 549.188 299.17 550.654 299.671 552.754C300.385 555.746 300.335 560.87 298.673 563.465L295.485 563.355L293.843 561.704C291.789 558.176 292.343 551.048 293.637 547.239Z"/>
	<path fill="#231F20" d="M327.169 547.843L330.189 548.369L332.394 551.448C334.068 555.801 333.703 561.473 331.89 565.687L328.606 565.326C326.93 563.548 326.146 560.998 325.835 558.6C325.415 555.358 325.139 550.531 327.169 547.843Z"/>
	<path fill="#231F20" d="M272.348 545.862L275.685 546.383L277.979 550.608C278.998 554.233 279.404 561.667 277.502 564.914L275.723 564.951C274.391 564.783 273.507 564.296 272.844 563.13C270.613 559.203 271.316 550.093 272.348 545.862Z"/>
	<path fill="#FEFEFE" d="M486.141 286.23C547.705 285.155 609.496 289.127 670.935 292.838C677.453 293.232 683.993 293.523 690.525 293.497C696.034 293.476 701.63 293.143 707.126 293.555C712.282 293.942 717.562 296.457 720.884 300.476C722.272 302.155 723.192 304.01 723.747 306.112C726.124 315.098 726.329 325.223 727.24 334.456C729.544 357.779 731.583 381.064 732.376 404.499C734.033 453.459 733.22 502.541 733.057 551.515C732.952 582.894 733.59 614.272 733.486 645.647C733.429 662.993 732.862 680.332 732.569 697.672C732.361 709.982 732.582 722.304 732.4 734.62C732.072 756.778 731.328 778.915 730.722 801.062C730.294 816.684 730.421 832.601 729.008 848.159L668.282 847.471L418.727 845.791C419.076 835.54 418.925 825.254 419.091 814.996C419.527 788.039 419.9 761.041 420.485 734.09C422.552 638.886 425.178 543.568 430.124 448.464C431.555 420.935 433.526 393.465 435.41 365.964C436.245 353.784 437.22 341.652 438.398 329.5C439.163 321.601 439.779 313.584 441.51 305.828C442.422 301.74 443.638 297.261 446.554 294.126C455.087 284.953 474.509 286.63 486.141 286.23Z"/>
	<path fill="#231F20" d="M635.467 589.731L639.079 590.399L640.442 592.933L638.139 596.497L635.322 595.8L633.453 593.258C633.848 591.445 634.272 591.089 635.467 589.731Z"/>
	<path fill="#231F20" d="M542.031 388.492C545.915 388.346 551.575 387.349 554.829 389.677C555.552 391.188 555.352 391.565 555.111 393.177C551.299 393.67 546.085 394.505 542.674 392.524C541.734 390.983 541.971 390.264 542.031 388.492Z"/>
	<path fill="#231F20" d="M636.23 488.166L640.607 488.226L643.609 490.538L642.91 492.903L638.625 493.922L637.124 493.936C634.621 493.988 632.472 494.306 630.51 492.479L629.889 490.816C631.429 488.782 633.881 488.568 636.23 488.166Z"/>
	<path fill="#231F20" d="M637.911 604.157C640.559 604.046 643.763 603.615 645.912 605.571L647.127 608.309L646.383 609.211L643.122 609.926C640.474 610.063 635.589 610.959 633.507 609.092L633.893 606.588C634.755 604.958 636.281 604.621 637.911 604.157Z"/>
	<path fill="#231F20" d="M633.376 710.103L638.325 710.29C640.232 710.421 643.419 711.053 644.624 712.692L644.782 714.184L641.608 716.621C638.841 716.344 632.578 716.513 630.453 714.964L630.29 712.074C630.954 710.704 632.085 710.557 633.376 710.103Z"/>
	<path fill="#231F20" d="M539.514 588.638L551.899 588.636L554.245 590.416L552.514 593.242C548.83 594.039 541.709 594.935 538.42 592.88L537.562 591.293L539.514 588.638Z"/>
	<path fill="#231F20" d="M539.457 601.655C543.022 601.305 550.562 600.319 553.621 602.426L554.649 604.973C553.903 606.437 553.508 606.299 552.004 606.822L539.713 606.152L537.498 604.348L539.457 601.655Z"/>
	<path fill="#231F20" d="M628.708 391.619L641.943 391.698L644.269 393.517L642.36 396.484L632.193 396.871C630.191 396.696 629.061 396.394 627.738 394.851L628.708 391.619Z"/>
	<path fill="#231F20" d="M541.533 707.211C544.625 707.066 548.023 706.561 550.967 707.724L553.757 710.21L553.299 711.137C551.036 712.906 549.009 712.779 546.238 712.698C542.665 712.81 538.455 714.107 535.362 712.147L535.239 710.943L534.959 711.73L534.295 710.526L534.804 709.002C536.605 707.219 539.18 707.337 541.533 707.211Z"/>
	<path fill="#231F20" d="M551.32 492.205L555.546 492.034L558.73 493.992L558.197 495.601C555.443 498.818 550.576 498.487 546.761 498.613L544.527 499.267L539.54 498.179L538.718 496.446L539.577 495.088C541.979 492.338 548.032 492.484 551.32 492.205Z"/>
	<path fill="#231F20" d="M631.754 635.148C636.908 634.565 641.602 635.053 646.627 636.215C647.233 643.431 648.868 694.521 646.409 697.989C645.296 699.56 641.631 699.518 639.883 699.68L628.351 700.14C626.761 691.263 623.31 645.212 624.702 637.657C626.23 635.621 629.404 635.498 631.754 635.148Z"/>
	<path fill="#231F20" d="M633.667 415.21C637.984 414.965 647.288 414.96 650.747 417.651C651.238 423.962 651.89 473.594 650.324 475.136C648.575 476.857 645.177 476.587 642.876 476.668C639.35 476.978 632.203 478.439 629.224 476.703C628.305 470.659 625.637 421.084 627.431 418.278C628.862 416.038 631.246 415.632 633.667 415.21Z"/>
	<path fill="#231F20" d="M543.265 417.7C547.154 417.359 553.814 416.405 557.118 418.658L557.492 477.333L544.878 478.602L536.037 479.015L534.865 477.396C533.598 472.432 534.287 465.75 533.964 460.526C533.241 448.816 531.703 436.883 531.584 425.17C531.566 423.468 531.467 421.546 532.351 420.045C535.329 417.839 539.701 418.001 543.265 417.7Z"/>
	<path fill="#231F20" d="M632.16 741.105C637.629 740.945 645.128 740.836 650.276 742.767L652.513 744.285C653.822 748.27 652.972 771.894 653.106 778.129C653.261 785.373 653.855 792.645 653.873 799.883C653.875 800.679 653.68 801.29 653.355 802.006L649.208 802.47L630.896 802.914L630.368 802.202C626.976 796.504 627.007 748.698 629.3 743.351C629.943 741.851 630.709 741.68 632.16 741.105Z"/>
	<path fill="#231F20" d="M630.03 317.173C636.509 317.059 642.712 317.121 649.125 318.245C650.2 325.004 653.818 374.579 650.855 379.263L645.215 380.874C640.937 381.481 634.208 383.361 630.094 382.211L627.644 380.395C627.244 379.357 625.867 332.336 625.964 327.461C626.01 325.154 626.116 322.527 626.93 320.355C627.579 318.622 628.383 317.924 630.03 317.173Z"/>
	<path fill="#231F20" d="M544.7 313.618C549.161 313.321 556.223 312.247 560.152 314.714C560.843 315.943 560.914 317.041 560.997 318.419C561.307 323.594 560.861 328.921 560.991 334.122C561.203 342.597 563.32 368.653 561.633 374.836C558.95 377.488 554.503 377.216 550.955 377.567L539.295 378.551C538.107 371.784 538.224 364.416 537.667 357.539C536.713 345.75 535.183 333.769 534.823 321.968C534.773 320.318 534.688 318.658 535.359 317.115C537.916 314.771 541.421 314.345 544.7 313.618Z"/>
	<path fill="#231F20" d="M633.083 512.034C640.478 511.35 647.662 512.09 654.649 514.599C655.576 526.845 654.947 538.985 655.018 551.243C655.055 557.507 655.896 564.003 655.461 570.237C655.404 571.052 655.211 571.612 654.813 572.317L651.501 573.601L630.563 574.367C630.211 564.637 627.107 521.788 628.82 516.23C629.508 514.001 631.225 513.192 633.083 512.034Z"/>
	<path fill="#231F20" d="M539.507 510.202C544.039 509.512 550.861 509.541 555.147 511.341C556.447 512.926 556.663 515.224 556.848 517.206C557.597 525.237 557.057 533.712 557.068 541.789C557.082 551.712 557.515 561.62 557.426 571.542L546.617 572.871L533.49 573.75C532.977 560.751 531.959 547.719 531.004 534.743C530.594 529.167 529.769 523.509 529.698 517.925C529.683 516.684 529.588 514.906 530.339 513.823C532.418 510.823 536.207 510.601 539.507 510.202Z"/>
	<path fill="#231F20" d="M554.397 627.71L555.893 628.106C557.125 630.171 556.478 686.653 556.479 693.64L533.796 695.34C532.65 681.281 532.206 667.155 531.542 653.068C531.205 645.911 529.584 636.856 531.06 629.896C532.977 628.146 550.633 627.947 554.397 627.71Z"/>
	<path fill="#231F20" d="M550.144 730.225L552.049 730.345L553.295 731.962C554.771 736.031 558.402 782.541 558.316 790.699C558.295 792.731 558.143 794.498 557.33 796.373L539.06 798.095L536.207 798.486L533.545 797.346C531.229 790.678 529.479 738.686 531.792 732.595C535.051 730.298 545.923 730.513 550.144 730.225Z"/>
</svg>
