<?xml version="1.0" encoding="utf-8" ?>
<svg xmlns="http://www.w3.org/2000/svg" xmlns:xlink="http://www.w3.org/1999/xlink" width="1024" height="1024">
	<path fill="#FEFEFE" d="M0 0L1024 0L1024 1024L0 1024L0 0Z"/>
	<path fill="#231F20" d="M525.275 236.901L528.152 237.365L529.283 239.011C529.381 241.056 527.823 242.474 526.52 243.834L523.341 243.123L522.566 240.261C522.82 238.589 524.02 237.813 525.275 236.901Z"/>
	<path fill="#231F20" d="M814.933 161.089L816.847 162.171L817.329 163.735C815.382 166.442 809.58 167.477 806.438 168.437L804.223 166.91L804.491 165.555C806.294 162.888 811.9 161.828 814.933 161.089Z"/>
	<path fill="#231F20" d="M779.326 171.686L781.529 171.526L783.911 173.229L782.97 175.673L774.62 177.503L773.259 177.656C771.459 177.601 770.889 177.25 769.754 175.991L770.272 174.472C773.119 172.018 775.723 172.003 779.326 171.686Z"/>
	<path fill="#231F20" d="M800.717 179.726L802.329 180.082C804.667 181.159 811.836 189.95 812.392 192.388L811.538 194.687L811.02 194.578C807.175 193.37 802.211 187.505 800.548 183.993C799.741 182.288 800.048 181.421 800.717 179.726Z"/>
	<path fill="#231F20" d="M783.468 191.881L787.258 193.137L782.99 209.551L780.904 209.442L779.472 208.142C778.882 203.427 781.206 196.066 783.468 191.881Z"/>
	<path fill="#231F20" d="M795.911 138.376C797.279 138.919 797.96 138.902 798.665 140.232C797.866 143.535 795.329 156.376 793.546 158.112L791.321 157.242L790.562 154.966C790.249 150.281 792.89 141.947 795.911 138.376Z"/>
	<path fill="#231F20" d="M802.161 382.696C806.972 383.971 817.398 386.898 820.173 391.072L819.193 394.331L801.211 386.057C801.014 384.446 801.411 384.094 802.161 382.696Z"/>
	<path fill="#231F20" d="M372.039 189.317L374.564 191.504C374.213 195.076 369.343 197.106 367.298 199.937C365.585 202.31 364.712 205.198 363.845 207.962L361.001 213.475L358.57 211.968L358.19 209.789C358.656 202.404 366.728 193.918 372.039 189.317Z"/>
	<path fill="#231F20" d="M382.187 210.471L384.533 210.377L386.409 211.441C385.882 215.01 381.364 215.587 379.235 218.066C375.348 222.593 376.169 231.027 376.578 236.571L374.663 237.909L373.274 237.067C371.157 233.783 372.023 226.276 372.914 222.557C374.298 216.785 377.266 213.422 382.187 210.471Z"/>
	<path fill="#231F20" d="M377.005 166.634L378.756 166.923L380.812 169.134C379.305 171.645 368.857 172.836 364.741 176.361C362.004 178.705 359.743 182.179 357.814 185.204C349.287 198.579 349.591 210.02 351.867 225.305C352.501 229.561 354.217 234.027 353.872 238.33L353.821 238.851L350.985 238.549L348.456 231.281C347.644 226.747 347.387 222.014 346.99 217.425C345.7 202.52 347.436 192.99 356.133 180.589C361.561 172.849 367.564 168.286 377.005 166.634Z"/>
	<path fill="#231F20" d="M894.288 421.559L898.863 421.773C903.733 423.217 906.114 427.067 908.489 431.21C908.56 434.551 908.56 437.901 907.001 440.941C905.33 444.2 902.159 446.119 898.776 447.251C894.61 446.958 888.378 446.085 885.613 442.673C884.505 441.305 884.127 439.678 884.346 437.947C884.892 433.632 890.916 424.268 894.288 421.559Z"/>
	<path fill="#FEFEFE" d="M895.553 425.87C899.576 426.22 901.315 427.999 903.813 430.968L904.237 438.09L898.297 435.42L897.527 434.355C895.284 431.096 894.821 429.794 895.553 425.87Z"/>
	<path fill="#231F20" d="M215.219 246.821L230.189 252.022L230.562 253.691C230.915 258.762 227.583 274.727 224.481 278.547C219.651 278.597 212.563 269.859 208.822 266.735L215.219 246.821Z"/>
	<path fill="#FEFEFE" d="M217.363 249.83L226.459 253.76L226.202 254.841L220.625 256.1L218.785 262.876L217.827 264.733L213.9 264.872C212.57 261.789 216.368 253.22 217.363 249.83Z"/>
	<path fill="#231F20" d="M372.301 144.49L373.637 146.481C373.494 147.552 373.584 147.833 372.698 148.539C370.674 150.152 367.795 151.31 365.512 152.568C359.338 155.969 353.565 160.264 348.975 165.658C334.397 182.79 331.503 204.82 334.006 226.587C334.564 231.432 336.939 237.252 336.777 241.993L334.84 245.071L333.044 242.719C331.465 239.131 331.008 234.707 330.489 230.841C328.242 214.101 328.587 196.113 335.344 180.398C342.601 163.519 355.303 151.355 372.301 144.49Z"/>
	<path fill="#231F20" d="M836.149 298.084L839.529 298.229C841.924 298.746 844.198 302.295 845.311 304.299C847.078 307.481 848.499 311.729 847.401 315.358C846.055 319.803 839.285 322.713 835.429 324.768L832.173 324.774C827.389 323.662 825.187 312.209 822.845 307.825C826.888 303.405 830.16 299.735 836.149 298.084Z"/>
	<path fill="#FEFEFE" d="M837.124 302.363L838.776 303.178C841.02 304.769 843.305 309.876 843.374 312.608L842.213 315.242L838.24 314.296C834.567 312.492 831.721 310.694 828.924 307.672C831.44 305.161 833.86 303.675 837.124 302.363Z"/>
	<path fill="#231F20" d="M376.216 761.837L377.324 762.058L379.391 763.999C379.11 767.998 370.959 773.023 368.239 776.013C365.187 779.368 362.982 783.994 360.23 787.694C364.869 784.172 370.62 778.812 376.197 777.071L379.238 777.309L379.658 778.834C378.57 783.292 367.858 787.946 364.129 790.991C361.209 793.375 359.094 796.01 356.862 799.022L353.494 800.303L351.857 799.033C350.642 797.375 350.285 795.169 349.523 793.281C347.345 787.878 342.856 780.636 343.76 774.73L345.097 773.358L348.756 773.706C352.452 775.899 354.087 784.452 355.283 788.414C359.964 779.545 364.197 770.683 372.772 764.854L375.873 762.211L376.216 761.837Z"/>
	<path fill="#231F20" d="M643.432 746.865L645.763 746.848L648.051 748.696C647.833 753.012 642.335 755.872 639.714 759.181C635.684 764.27 632.548 770.449 629.696 776.257C634.836 772.354 642.067 762.743 647.852 761.288L651.486 761.884C651.608 763.192 651.466 763.71 650.68 764.79C648.359 767.977 644.537 770.469 641.523 773.016C637.345 776.547 633.363 780.334 629.998 784.66L629.606 785.172L626.533 789.139L623.226 790.006C621.139 788.601 620.423 786.582 619.678 784.245C618.829 781.582 618.486 778.795 617.785 776.092C616.589 771.477 614.358 766.799 613.837 762.062C613.707 760.881 613.749 760.029 614.309 758.953L616.639 758.905C621.477 762.986 622.602 773.094 623.484 778.984C628.264 767.425 633.725 755.115 643.432 746.865Z"/>
	<path fill="#231F20" d="M298.486 816.423L299.361 816.406L301.508 818.199C301.64 819.513 301.613 820.252 300.918 821.414C299.165 824.346 296.245 827.186 294.089 829.878C289.883 835.13 285.895 840.591 282.441 846.369L286.545 841.96C289.94 839.125 301.75 829.6 305.932 829.99L306.846 832.083C305.729 835.099 287.643 847.965 283.974 850.847L283.286 851.25L281.238 852.02L279.777 852.761C278.118 853.544 276.984 853.689 275.242 853.024C272.865 847.37 267.556 824.497 267.964 819.018L268.916 817.474L271.267 817.793C273.518 819.225 276.241 836.368 277.028 839.938C284.195 831.387 287.727 821.339 298.486 816.423Z"/>
	<path fill="#231F20" d="M188.934 785.681L191.454 787.295C192.599 792.019 188.627 802.493 187.822 807.823C190.804 804.125 194.383 800.979 198.389 798.412C200.266 797.209 203.453 795.342 205.787 796.216L207.34 797.614L207.356 801.778C204.245 810.533 191.358 817.74 184.248 823.117C182.341 824.559 181.105 826.904 178.988 827.979L177.096 826.521C172.911 819.69 161.341 807.246 159.252 800.803L159.354 797.798L160.57 797.462C161.657 797.643 162.518 797.85 163.296 798.694C165.221 800.784 166.638 803.856 168.236 806.237C170.764 810.003 173.588 813.45 176.502 816.915C178.848 811.126 180.33 805.106 182.482 799.263C184.208 794.578 186.642 790.11 188.934 785.681Z"/>
	<path fill="#231F20" d="M840.344 716.715L841.33 716.758L844.04 719.353C845.392 721.818 845.675 725.054 845.969 727.814C847.034 737.8 846.492 745.604 843.641 755.222C849.335 748.812 852.869 742.171 857.281 734.922C859.26 731.67 864.065 725.235 867.984 724.844L871.126 725.818C872.295 726.994 872.329 728.644 872.077 730.163C869.901 743.281 856.213 752.63 846.239 759.726L837.277 768.231C835.43 765.572 833.052 764.78 831.069 762.507C826.673 757.469 824.373 751.127 817.87 748.074C814.343 746.419 810.495 745.57 807.129 743.558L806.389 740.975L808.777 740.377C817.984 740.674 827.671 749.553 833.5 755.925C832.088 750.82 830.618 745.914 830.853 740.543C831.203 732.497 834.354 722.281 840.344 716.715Z"/>
	<path fill="#FEFEFE" d="M866.523 730.289L867.4 730.949C867.198 735.559 860.036 743.307 857.164 746.667L856.331 746.52L857.343 746.556L856.385 745.99C859.089 740.016 861.766 734.897 866.523 730.289Z"/>
	<path fill="#FEFEFE" d="M840.147 723.833L841.623 727.294C843.229 733.531 843.804 746.765 839.875 752.209C838.845 753.636 838.179 753.486 836.589 753.74C836.954 751.308 836.179 749.332 835.733 746.987C834.028 738.021 836.169 731.823 840.147 723.833Z"/>
	<path fill="#231F20" d="M499.15 796.277L502.247 798.166C502.812 804.166 492.488 809.237 489.254 813.89C486.403 817.995 485.105 824.425 483.812 829.178C489.342 823.271 493.48 816.71 500.817 812.726C505.071 810.416 516.306 807.258 520.739 809.352L522.481 811.114L522.603 814.486C519.638 822.446 492.65 834.721 484.175 838.429L479.401 840.273C477.79 840.828 477.091 840.775 475.612 839.996C467.917 835.943 455.857 821.32 453.134 813.104L455.466 806.783C456.537 804.843 458.008 802.966 460.306 802.52C462.44 802.105 465.161 803.3 466.858 804.506C474.85 810.185 477.045 823.626 478.651 832.623C481.434 817.196 487.221 806.43 499.15 796.277Z"/>
	<path fill="#FEFEFE" d="M515.743 812.581L517.643 812.782L517.455 813.6C511.061 820.165 501.456 824.789 493.224 828.508L491.454 828.992L491.284 828.419L491.962 827.154C497.387 818.477 506.192 814.73 515.743 812.581Z"/>
	<path fill="#FEFEFE" d="M460.128 806.406C462.617 806.405 464.192 806.949 465.904 808.761C469.742 812.824 474.887 827.782 474.584 833.266L473.637 833.153C469.224 829.148 459.714 820.212 458.007 814.534C457.26 812.049 459.101 808.616 460.128 806.406Z"/>
	<path fill="#231F20" d="M747.952 749.297L748.607 749.295C751.163 749.41 752.84 750.559 754.421 752.5C761.648 761.374 761.509 794.441 760.084 805.664C763.024 801.671 765.174 797.077 767.668 792.798C771.992 785.376 776.994 778.053 782.598 771.551C784.239 769.647 786.422 766.857 788.736 765.825L791.852 765.866C794.009 768.52 794.098 772.547 793.854 775.827C792.521 793.729 774.388 808.485 761.77 819.395L755.841 823.641L747.439 823.686C737.405 812.296 726.112 804.738 710.742 803.178C707.491 802.848 702.886 802.949 700.112 801.172L700.64 798.853L702.422 798.348C705.607 798.067 709.708 798.625 712.876 799.114C726.723 801.248 736.119 806.895 746.367 816.18C743.569 793.983 741.224 771.01 747.952 749.297Z"/>
	<path fill="#FEFEFE" d="M788.951 771.415L789.402 771.922L789.71 776.118C788.393 789.218 771.479 806.356 761.474 814.285L761.258 814.164L761.122 813.311C770.211 797.252 775.953 785.219 788.951 771.415Z"/>
	<path fill="#FEFEFE" d="M750.529 754.798L752.93 758.373C758.453 772.443 758.331 801.461 752.524 815.513L751.576 816.272L750.87 815.079C750.003 812.574 749.88 809.301 749.522 806.645C747.615 792.487 745.731 768.365 750.529 754.798Z"/>
	<path fill="#231F20" d="M800.424 836.46L801.837 837.315L801.276 840.212C799.592 842.223 795.471 842.944 792.997 843.42C778.627 846.184 763.492 847.219 748.939 848.769C728.269 850.969 707.641 853.223 686.94 855.147C656.377 857.987 625.767 860.16 595.193 862.857C574.453 864.686 553.768 867.235 532.991 868.644C501.256 870.795 469.474 869.993 437.747 871.725C382.602 874.735 327.653 879.977 272.473 882.596L270.298 882.194L269.672 879.798C269.873 879.15 270.257 878.436 270.938 878.279C275.384 877.259 282.776 877.94 287.581 877.735C298.923 877.249 310.261 876.408 321.588 875.641C333.552 874.831 345.538 874.28 357.492 873.354C384.039 871.298 410.507 868.807 437.114 867.584C469.898 866.077 502.691 866.413 535.47 864.375C561.996 862.726 588.585 859.579 615.078 857.238C651.897 853.985 688.702 851.204 725.472 847.308C742.866 845.465 786.403 842.648 800.424 836.46Z"/>
	<path fill="#231F20" d="M505.855 130.66L507.579 132.195C507.834 135.921 509.578 138.707 511.901 141.556C516.557 147.266 523.4 152.465 528.774 157.611C537.818 166.271 547.12 174.68 556.128 183.36C560.091 187.179 563.693 191.343 567.694 195.142C572.96 200.142 578.841 204.447 583.885 209.677C586.594 212.486 595.362 220.362 595.299 223.677L593.922 225.068C586.71 228.907 576.591 225.857 569.266 224.419L566.118 225.133L565.257 233.776C564.787 236.187 563.255 238.828 561.11 240.106C558.735 241.52 555.965 241.252 553.429 240.46C545.594 238.015 535.704 230.346 532.034 223.1C523.018 205.323 516.999 185.881 509.917 167.248C507.47 160.809 505.391 153.567 502.005 147.592C493.1 160.327 483.104 171.394 472.977 183.113C470.542 185.931 468.474 189.031 466.056 191.863L463.739 191.389L463.83 189.346C464.859 186.909 466.63 184.639 469.123 183.711L471.293 182.338L470.306 181.942L470.335 181.43C473.503 178.489 475.981 174.741 478.734 171.409C485.247 163.529 492.259 155.951 497.623 147.194C501.14 141.455 500.381 134.936 505.855 130.66Z"/>
	<path fill="#231F20" d="M613.216 224.494L614.006 224.54C615.487 224.712 629.231 238.552 631.906 240.822C645.954 252.75 660.828 263.744 674.887 275.693C693.598 291.597 711.493 308.475 730.171 324.429C745.141 337.216 760.052 349.804 774.206 363.508C778.631 367.793 783.625 372.067 787.276 377.038C773.372 374.053 759.661 370.472 746.02 366.461C737.195 363.866 728.549 360.856 719.619 358.603C709.44 355.808 699.016 353.955 688.825 351.064C669.152 345.483 649.801 338.89 630.048 333.491C622.496 331.427 614.929 329.385 607.333 327.491C598.308 325.241 589.252 323.4 580.815 319.33C577.509 317.735 576.163 315.631 574.274 312.625C569.571 305.142 566.877 296.66 562.94 288.782C554.391 271.675 544.63 255.083 538.303 236.963C542.771 240.321 548.422 244.669 554.055 245.666C559.564 246.642 563.396 244.02 567.617 240.951C569.295 237.443 569.621 234.138 570.047 230.318C584.788 234.565 599.153 228.922 613.216 224.494Z"/>
	<path fill="#231F20" d="M446.213 226.09C451.49 215.114 455.666 205.852 466.183 198.907C472.004 195.063 479.225 192.432 486.249 193.994C489.745 194.772 492.556 196.78 494.43 199.829C500.339 209.448 497.255 222.867 494.955 233.094C500.462 234.632 506.121 237.007 509.813 241.554C514.013 246.724 515.361 254.092 514.533 260.597C513.593 267.977 508.969 274.094 503.165 278.466C494.546 284.96 478.997 287.502 468.48 286.012C465.195 296.211 457.527 309.337 447.677 314.33C441.929 317.244 435.328 318.036 429.196 315.861C423.724 313.92 419.294 309.752 417.011 304.415C412.577 294.05 415.391 281.326 419.185 271.269L412.64 269.152C408.397 267.238 406.872 264.248 405.43 260.104C399.674 266.51 395.039 274.264 389.626 281.011C384.025 287.992 378.086 294.712 372.639 301.816C367.802 308.124 363.399 314.747 358.694 321.151C344.25 340.808 329.895 360.553 315.254 380.061C324.593 377.462 334.024 375.278 343.378 372.757C372.284 364.969 401.192 357.161 430.345 350.332C444.933 346.915 459.636 344.207 474.237 340.959C506.586 333.765 538.721 325.814 571.382 320.093C581.53 327.505 596.522 330.626 608.488 334.205C628.96 340.329 649.56 346.224 670.258 351.538C679.372 353.878 688.63 355.565 697.691 358.138C707.294 360.865 716.97 363.663 726.445 366.806C735.879 369.934 745.188 373.522 754.774 376.17C761.287 377.969 785.38 382.47 789.804 386.03C791.07 387.049 791.317 388.887 791.511 390.415C792.454 397.809 791.326 406.207 790.971 413.694C790.018 433.782 788.679 453.549 786.527 473.551C783.121 505.224 780.982 537.042 777.921 568.751C776.117 587.434 773.406 606.024 771.877 624.733C769.902 648.894 770.193 673.619 773.612 697.63L782.191 695.577C784.28 685.659 784.978 675.311 786.51 665.278C789.406 646.317 793.469 627.033 799.336 608.749L793.246 602.425C790.755 599.003 785.634 591.816 786.771 587.39L788.928 584.41C792.404 582.202 798.718 584.504 802.395 585.399C798.7 579.238 790.652 568.386 791.966 561.003C792.281 559.233 793.185 558.177 794.685 557.212L796.652 557.422C801.176 559.586 806.493 577.999 808.21 582.991L816.733 567.035L812.811 563.017C809.204 558.525 803.835 543.595 805.157 538.32L806.891 536.467C811.078 537.592 810.993 549.33 812.415 553.363C813.717 557.054 815.877 559.915 818.309 562.901L825.423 550.081C821.061 543.139 814.899 533.297 815.048 524.805C815.076 523.245 815.475 521.942 816.761 520.969L820.671 520.47L823.054 523.316C826.394 527.225 827.983 531.984 830.181 536.536L833.866 533.199L838.89 526.053C836.418 519.373 835.859 512.235 838.898 505.564C840.147 502.824 842.266 500.044 845.214 499.025C847.001 498.407 848.871 498.563 850.514 499.514C852.177 500.477 853.246 502.138 853.69 503.981C854.931 509.128 851.862 518.515 848.975 522.814L848.718 523.187C840.929 527.13 843.577 527.823 838.665 533.56C836.872 535.655 834.201 537.361 831.995 539.015L832.14 539.441C838.655 537.924 848.509 532.246 854.868 535.862C857.039 537.096 859.177 539.99 859.825 542.404C860.243 543.958 860.06 545.511 859.148 546.849C856.325 550.989 847.007 551.726 842.469 552.357C840.569 552.622 831.842 552.376 831.375 552.639C829.846 553.5 825.454 559.835 824.023 561.691L820.979 566.712C828.54 562.93 837.765 559.446 846.287 562.123C849.9 563.258 853.232 565.72 854.848 569.214C855.971 571.644 856.121 574.391 855.04 576.864C853.983 579.284 851.879 580.96 849.407 581.795C842.747 584.043 835.161 581.145 829.245 578.032L818.752 572.753C816.645 576.523 812.655 582.174 812.319 586.436L813.907 587.051C818.332 585.877 829.122 587.657 833.307 589.274L834.662 591.809L828.358 593.517L828.262 594.245L829.635 595.606L834.056 601.013C835.489 603.653 836.384 606.832 835.436 609.791C834.638 612.281 832.354 614.137 830.034 615.158C822.246 618.585 810.826 611.915 803.365 609.05C801.802 616.248 799.437 623.331 797.737 630.52C795.17 641.378 793.342 652.27 791.266 663.22L832.617 658.354C837.107 642.973 849.761 621.919 860.449 609.741C864.044 605.645 883.715 585.609 889.274 585.705L890.136 586.124C891.515 588.042 891.286 592.065 891.455 594.385C892.697 611.446 891.4 623.66 890.118 640.457L906.803 631.579C912.615 628.822 933.378 618.819 938.72 620.731L939.916 623.213C941.34 633.642 920.543 671.798 913.98 680.181C921.773 680.636 939.313 680.956 945.47 686.131L947.228 689.747C947.626 694.599 944.567 700.812 942.411 705.037C937.467 714.725 930.372 723.389 924.88 732.785C919.991 741.148 915.824 749.94 910.956 758.317C903.976 770.329 896.221 781.995 889.38 794.072C884.947 801.898 880.027 816.075 874.203 822.194L871.485 823.399L871.071 822.543C871.496 817.368 886.376 791.134 890.059 785.468C897.015 774.762 903.777 763.362 909.919 752.171C913.725 745.236 917.197 738.121 921.172 731.277C927.928 719.641 936.24 708.916 941.78 696.601C942.733 694.482 943.126 692.19 942.643 689.912C940.415 686.647 933.789 686.146 930.189 685.624C914.569 683.358 897.891 683.966 882.198 685.482C871.799 686.487 861.291 687.789 850.965 689.381C844.692 690.348 838.304 691.797 831.979 692.291C830.412 692.414 829.058 692.485 827.606 691.8C825.436 689.203 825.884 686.548 825.935 683.365C813.745 685.834 800.978 686.585 788.566 686.649L787.262 699.783C779.355 700.657 771.582 702.322 763.667 703.101C748.505 704.594 733.252 705.054 718.076 706.638C699.691 708.558 681.434 711.079 662.979 712.391C644.913 713.676 626.873 713.971 608.793 714.771C585.904 715.784 562.96 717.285 540.095 718.746C512.992 720.477 485.956 723.057 458.871 724.977C438.191 726.443 417.444 727.257 396.754 728.65C358.232 731.245 319.748 734.303 281.234 737.011C257.518 738.678 233.684 739.128 209.977 740.905C201.451 741.544 192.495 743.274 184.099 744.958C173.257 747.132 102.445 764.298 97.8603 762.544L97.437 760.283C98.3305 759.41 99.135 758.98 100.334 758.683C103.254 757.96 106.341 757.949 109.291 757.287C127.387 753.229 145.498 749.275 163.595 745.228C170.567 743.669 177.982 742.544 184.739 740.262L185.345 740.05C179.306 734.531 171.294 730.27 164.187 726.242C157.708 722.57 151.282 718.837 144.718 715.316C123.759 704.073 97.7821 691.267 88.084 668.033C84.9282 660.472 82.7915 653.49 86.2215 645.589C87.6151 642.378 89.8108 639.479 93.1961 638.246C99.5618 635.928 107.356 639.867 113.092 642.374C104.782 622.831 96.7392 598.163 104.317 577.215C106.285 571.774 109.768 565.034 115.322 562.654C118.451 561.313 121.897 561.64 124.955 563.012C140.421 569.95 146.114 590.254 151.416 604.759C150.076 594.67 150.126 584.15 149.926 573.968C149.537 554.148 149.046 535.188 153.169 515.672C157.4 495.644 165.8 472.235 183.816 460.669C189.608 456.951 196.395 454.698 203.29 456.333C209.78 457.872 214.958 462.211 218.364 467.839C230.094 487.225 224.974 520.595 219.865 541.841C223.112 536.171 227.022 529.564 232.291 525.538C235.128 523.371 238.975 521.641 242.614 522.312C246.465 523.022 249.753 525.528 251.788 528.821C261.418 544.404 247.749 584.671 243.349 602.099C247.227 599.291 251.228 596.513 255.958 595.385C260.059 594.408 264.508 594.868 268.058 597.248C272.292 600.088 274.36 605.101 275.189 609.962C276.807 619.444 275.302 630.129 272.561 639.265C266.714 658.752 244.454 697.656 232.522 714.657C250.917 709.15 269.75 708.175 288.418 704.192C289.475 696.483 289.328 688.227 289.757 680.42C290.938 658.935 291.505 637.386 292.889 615.919C294.014 598.468 296.299 581.09 298.028 563.695C299.505 548.84 300.086 533.927 301.504 519.08C303.143 501.927 305.608 484.816 307.093 467.667C307.61 461.696 307.536 455.684 307.8 449.698C308.673 429.947 309.151 410.404 311.678 390.764L263.585 405.982L260.494 403.675L260.507 401.016C263.227 393.425 300.318 385.496 309.471 381.231L309.942 381.004C322.451 362.543 337.035 344.565 350.458 326.654C357.301 317.523 363.322 307.787 370.321 298.783C376.388 290.978 383.068 283.654 389.091 275.813C392.964 270.772 402.398 255.274 406.554 252.834C406.908 252.899 407.31 252.838 407.615 253.029C408.656 253.678 408.652 258.361 409.216 259.744C410.006 261.679 411.543 263.574 413.105 264.937C414.743 266.367 416.964 267.631 419.222 267.249C421.89 266.798 422.133 263.701 423.467 261.7L426.5 261.074L427.001 261.793L426.317 265.828L427.16 265.641C428.295 263.805 426.869 256.096 428.685 251.794C431.418 245.317 436.65 241.497 442.988 239.024L445.247 230.154L440.692 227.977C431.988 224.617 421.167 226.127 415.493 234.155C413.39 237.131 411.155 244.712 407.951 246.151L406.559 244.389C408.788 236.07 413.375 230.312 419.707 224.616L421.631 216.908C423.506 211.929 426.766 207.682 431.736 205.513C436.485 203.44 443.714 203.397 448.493 205.476C450.021 206.141 450.972 206.878 451.57 208.49C450.289 211.191 439.734 204.779 432.026 209.266C427.021 212.179 425.294 217.297 424.001 222.588C432.495 222.247 438.202 222.899 446.213 226.09Z"/>
	<path fill="#FEFEFE" d="M447.805 232.421L453.044 237.365L447.785 237.39L447.805 232.421Z"/>
	<path fill="#FEFEFE" d="M853.146 625.353L854.725 625.799L858.337 629.425C859.157 631.336 859.151 632.641 858.456 634.566C856.379 633.621 854.762 631.943 853.792 629.872C852.987 628.155 852.588 627.139 853.146 625.353Z"/>
	<path fill="#FEFEFE" d="M819.821 526.704C823.335 530.534 827.67 538.213 827.575 543.448L826.57 542.976C823.636 538.201 820.049 532.421 819.821 526.704Z"/>
	<path fill="#FEFEFE" d="M849.173 661.594L851.748 663.092C851.954 667.591 848.849 672.872 847.015 676.931L844.984 676.692C844.043 673.77 848.177 664.739 849.173 661.594Z"/>
	<path fill="#FEFEFE" d="M865.926 626.2L867.975 626.85L868.194 628.175C868.018 631.141 864.213 637.982 861.977 640.018L859.67 637.176L865.926 626.2Z"/>
	<path fill="#FEFEFE" d="M856.583 645.707L858 646.312L858.165 646.731C858.977 649.973 855.884 654.277 854.071 656.815L846.47 651.512L844.735 647.862L846.884 646.695L852.378 651.655C854.52 650.72 855.606 647.739 856.583 645.707Z"/>
	<path fill="#FEFEFE" d="M846.17 503.241L848.269 504.015L849.341 506.669C849.732 511.28 847.146 517.38 844.253 520.794L842.533 520.695C841.391 519.203 841.453 517.922 841.531 516.14C841.737 511.438 842.64 506.521 846.17 503.241Z"/>
	<path fill="#FEFEFE" d="M882.96 599.35L884.203 600.675C884.338 605.291 880.215 608.555 878.605 612.569L878.58 614.534L883.04 612.55L884.789 614.542L883.134 617.611C880.596 618.137 879.323 617.672 876.962 616.696L874.265 617.001L872.962 615.894C873.601 611.11 879.896 603.185 882.96 599.35Z"/>
	<path fill="#FEFEFE" d="M881.219 635.501L884.513 636.159C885.623 638.826 881.515 640.081 880.571 642.032C879.755 643.722 880.055 645.962 879.218 647.741L873.639 652.353L873.007 650.468L874.187 647.66L876.558 643.45L876.029 643.107L874.998 643.868L873.022 642.976L873.419 640.103C875.19 636.754 877.883 636.316 881.219 635.501Z"/>
	<path fill="#FEFEFE" d="M846.825 539.581L851.011 539.328L854.099 540.76L854.465 543.949C851.611 547.186 845.107 547.292 841.038 547.712L840.39 547.869L839.492 548.065L836.549 548.3L833.224 547.279C835.002 543.761 843.206 540.901 846.825 539.581Z"/>
	<path fill="#FEFEFE" d="M905.465 652.765L906.509 653.148L906.377 655.847C905.66 657.323 888.749 676.874 887.574 677.612C887.074 677.927 886.444 677.958 885.879 678.131L885.67 677.634C884.461 674.093 889.973 670.706 891.503 667.807L890.826 663.569L892.726 661.798L894.432 662.884C896.822 662.718 902.813 654.747 905.465 652.765Z"/>
	<path fill="#FEFEFE" d="M922.242 630.213C923.859 630.72 924.454 631.564 925.235 633.126L925.394 636.315C924.468 639.292 921.822 641.473 919.184 642.895C917.23 642.834 918.382 642.205 917.155 641.19L911.413 647.667L909.832 649.357L907.221 649.168L906.99 648.239C908.161 642.096 917.63 634.028 922.242 630.213Z"/>
	<path fill="#FEFEFE" d="M790.4 588.304C796.27 588.4 800.779 589.379 806.295 591.352L802.515 599.698L801.2 602.795L799.701 603.406C795.187 601.644 792.316 592.612 790.4 588.304Z"/>
	<path fill="#FEFEFE" d="M838.062 566.207C841.455 565.944 844.62 565.866 847.603 567.743C849.365 568.852 851.133 570.62 851.323 572.811L849.922 576.003C847.658 578.128 843.702 577.543 840.884 577.42C834.826 575.935 830.302 573.827 825.346 570.023C829.505 567.685 833.376 566.708 838.062 566.207Z"/>
	<path fill="#FEFEFE" d="M810.81 591.166L820.004 591.937L830.823 604.398C831.498 605.771 831.88 607.364 831.184 608.818C830.296 610.673 828.478 611.185 826.679 611.755C818.774 611.498 812.094 607.887 805.064 604.65L810.81 591.166Z"/>
	<path fill="#FEFEFE" d="M829.4 663.26L830.514 663.434C831.122 666.447 827.773 677.047 826.095 679.675L789.359 683.198L789.305 683.177C788.086 681.569 790.026 670.056 790.32 667.188L829.4 663.26Z"/>
	<path fill="#FEFEFE" d="M453.808 241.166L456.314 241.174C459.376 242.29 462.861 246.569 464.48 249.27C470.399 259.147 468.59 271.303 465.746 281.827C459.955 282.08 454.891 281.219 449.478 279.22L442.12 275.744C437.157 272.685 433.293 267.761 431.989 262.028C431.039 257.854 431.757 253.626 434.201 250.09C438.598 243.729 446.697 242.316 453.808 241.166Z"/>
	<path fill="#FEFEFE" d="M477.971 197.587L485.975 197.967C488.91 199.052 491.06 201.312 492.286 204.152C495.671 211.989 493.626 224.785 490.716 232.523C481.775 232.343 474.095 233.127 465.433 235.376L458.574 236.79L449.257 228.593L454.779 216.108C459.785 207.338 468.202 200.297 477.971 197.587Z"/>
	<path fill="#FEFEFE" d="M428.471 268.461C431.045 268.401 435.337 275.687 437.727 277.57C445.291 283.528 455.176 284.633 464.365 285.794C461.115 294.446 456.393 302.128 449.717 308.571L444.352 311.766C439.773 313.717 434.825 313.899 430.195 312.013C425.759 310.206 422.214 306.809 420.48 302.321C417.492 294.591 418.529 281.983 421.981 274.534C423.685 270.857 424.695 269.885 428.471 268.461Z"/>
	<path fill="#FEFEFE" d="M287.563 708.652L288.159 709.03L287.606 732.338L220.07 735.847L219.248 735.473C219.351 732.361 227.448 722.404 229.575 719.35C236.803 717.666 244.03 715.535 251.334 714.25C263.389 712.129 275.488 710.981 287.563 708.652Z"/>
	<path fill="#FEFEFE" d="M479.343 236.207C486.478 235.662 495.091 235.647 501.493 239.299C505.79 241.749 508.607 245.84 509.872 250.575C511.52 256.744 510.84 262.821 507.528 268.309C503.135 275.588 496.633 279.074 488.62 280.91C482.372 282.04 476.262 282.509 469.914 282.449C471.634 275.564 472.809 268.166 472.234 261.055C471.533 252.393 467.707 245.532 461.175 239.902L479.343 236.207Z"/>
	<path fill="#FEFEFE" d="M96.8429 641.504L114.022 645.898L115.699 644.508C117.186 645.495 129.642 670.646 132.68 675.242C145.531 694.679 161.241 711.302 176.553 728.712L171.243 725.869C164.992 722.491 158.996 718.636 152.727 715.272C131.356 703.805 100.376 689.608 91.1595 665.802C89.1195 660.533 87.0444 652.557 89.6207 647.258C91.2821 643.841 93.4174 642.807 96.8429 641.504Z"/>
	<path fill="#231F20" d="M112.889 683.633L114.473 683.926L118.255 688.1C118.749 689.502 118.306 689.827 117.629 691.051L116.316 690.759C114.785 690.251 113.059 688.765 112.492 687.227C111.913 685.655 112.306 685.105 112.889 683.633Z"/>
	<path fill="#231F20" d="M110.325 665.846L127.227 687.827L127.56 688.178L126.203 691.259L123.936 690.15C119.961 687.821 109.288 673.029 108.067 668.515L110.325 665.846Z"/>
	<path fill="#FEFEFE" d="M258.36 598.965L264.682 600.168C268.08 601.953 270.238 605.007 271.206 608.673C279.472 639.983 237.368 698.054 220.93 725.008L214.426 734.322C220.151 712.438 222.471 689.884 226.577 667.694C230.312 647.504 236.059 627.497 242.103 607.895C247.51 603.899 252.248 601.66 258.36 598.965Z"/>
	<path fill="#231F20" d="M242.88 639.198L244.806 641.242L241.203 651.321L240.468 651.481L239.541 650.778C238.954 646.651 240.654 642.61 242.88 639.198Z"/>
	<path fill="#231F20" d="M234.321 659.45C236.858 660.186 236.851 661.014 238.097 663.155L238.977 663.267L242.256 661.464L243.824 662.271L240.352 668.698L237.581 672.237L234.078 672.734L232.573 670.617C231.566 667.406 232.836 662.393 234.321 659.45Z"/>
	<path fill="#FEFEFE" d="M118.176 566.044L125.225 568.011C128.649 569.795 131.547 572.335 133.903 575.382C140.809 584.314 148.702 603.948 151.16 615.102C155.132 633.128 155.423 651.231 161.494 668.93C165.198 679.732 169.983 693.51 174.577 703.836C179.271 714.389 185.146 724.313 188.657 735.349L179.976 726.333C158.543 703.119 137.558 679.599 123.436 651.033L124.281 649.546C119.455 641.288 113.847 632.252 111.566 622.912C110.735 619.509 111.526 615.066 110.225 611.936L107.596 610.61L106.403 608.708C103.126 598.448 105.386 582.196 110.57 572.846C112.443 569.469 114.419 567.156 118.176 566.044Z"/>
	<path fill="#231F20" d="M134.147 627.824L134.549 628.035C134.977 628.286 135.819 628.888 136.042 629.337C137.482 632.235 141.75 647.357 142.781 651.242C143.265 653.067 143.374 653.501 142.393 655.136C138.959 650.88 133.325 637.093 132.722 631.725L134.147 627.824Z"/>
	<path fill="#231F20" d="M146.639 656.761L148.745 657.475L154.9 668.829C156.56 672.516 163.674 688.857 163.252 692.014C163.171 692.616 162.82 693.15 162.604 693.717C159.625 691.436 148.657 669.816 147.111 665.738C145.837 662.381 145.104 660.134 146.639 656.761Z"/>
	<path fill="#FEFEFE" d="M194.337 738.954L177.957 691.918C177.274 690.416 176.694 689.783 175.159 689.22L173.606 690.2L163.523 662.823C154.018 631.296 150.322 558.844 154.967 526.134C156.981 511.947 161.009 496.996 167.909 484.368C173.686 473.797 182.143 463.469 194.319 460.166C199.137 458.859 204.013 460.077 208.176 462.701C228.183 475.309 220.857 516.962 217.438 536.282C216.537 541.371 213.706 549.833 214.968 554.737L216.199 556.411C218.862 555.019 223.348 544.041 225.174 540.962C228.151 535.943 233.054 527.557 239.202 526.25C241.303 525.803 243.301 526.34 245.058 527.531C248.475 529.847 249.941 533.439 250.709 537.357C252.209 545.01 251.174 553.181 249.735 560.754C245.459 583.248 238.17 605.487 232.093 627.558C227.6 643.878 223.834 660.683 221.225 677.41C219.856 686.184 212.834 732.172 210.037 736.197L207.612 735.374L214.557 600.538C214.147 595.659 218.23 588.311 215.681 584.104L214.503 583.924L213.557 584.618C212.392 586.054 212.085 588.68 211.869 590.454C209.555 609.467 209.965 628.746 208.801 647.84C207.35 671.637 204.316 695.497 204.762 719.365L201.913 703.621C201.041 692.255 201.753 679.345 198.85 668.354C203.978 656.885 206.639 645.504 202.142 633.221C200.197 627.909 195.397 621.041 190.148 618.651C186.184 616.846 181.66 617.415 177.739 619.036C171.837 621.476 167.833 627.23 165.574 633.016C161.536 643.354 162.101 656.765 166.687 666.836C168.673 671.198 171.372 676.362 176.068 678.211C180.072 679.788 184.852 679.245 188.671 677.412C191.91 675.856 193.963 673.878 196.214 671.171L198.379 702.911C198.389 708.229 202.079 731.919 205 735.221L205.996 736.055C204.217 737.945 197.129 738.471 194.337 738.954Z"/>
	<path fill="#231F20" d="M185.207 529.342L193.261 529.995C198.4 531.655 202.571 535.521 204.898 540.352C209.735 550.394 209.037 563.391 205.161 573.609C202.288 581.183 197.713 586.263 190.271 589.636L189.579 589.733C184.792 590.216 179.282 588.772 175.8 585.424C170.208 580.047 167.941 571.786 167.668 564.247C167.35 555.438 169.58 543.259 176.155 536.988C178.91 534.36 182.267 532.575 184.852 529.743L185.207 529.342Z"/>
	<path fill="#FEFEFE" d="M571.115 326.62L577.53 330.815L568.288 409.368C559.629 413.029 549.197 414.409 540.014 416.561C530.863 418.706 521.777 421.164 512.599 423.189C499.094 426.169 485.492 428.705 471.983 431.664C444.369 437.711 417.064 444.892 389.589 451.491C365.154 457.36 340.534 462.564 316.109 468.49L310.82 469.701C311.914 459.775 311.538 449.469 311.908 439.477C312.522 422.848 313.636 406.379 315.108 389.808C330.507 384.816 346.444 380.764 362.066 376.48C388.779 369.156 415.573 361.762 442.527 355.38C452.77 352.954 463.143 351.104 473.41 348.791C505.961 341.454 538.441 333.373 571.115 326.62Z"/>
	<path fill="#231F20" d="M367.092 393.17L369.795 394.222C369.954 399.744 370.309 420.185 369.166 424.539C368.854 425.727 368.326 426.442 367.615 427.419L365.52 425.983C363.74 422.618 365.077 401.933 365.726 397.316C365.929 395.865 366.504 394.5 367.092 393.17Z"/>
	<path fill="#231F20" d="M469.382 372.482L470.533 372.842L472.177 375.294C472.867 378.454 474.261 405.474 473.348 407.704C473.101 408.307 472.657 408.809 472.312 409.361L469.804 408.206C469.514 407.798 469.132 407.441 468.933 406.981C468.318 405.561 467.999 378.86 468.023 375.808C468.036 374.093 468.149 373.673 469.382 372.482Z"/>
	<path fill="#231F20" d="M401.933 384.682C403.518 385.063 404.328 385.288 405.31 386.649L402.168 424.427L398.856 423.273C397.608 420.335 400.563 388.422 401.933 384.682Z"/>
	<path fill="#231F20" d="M334.899 398.192L337.005 399.235C339.956 407.85 338.022 428.29 337.81 438.007L336.006 438.024L333.58 436.93C333.129 432.533 333.142 404.046 333.702 400.686C333.863 399.725 334.374 398.988 334.899 398.192Z"/>
	<path fill="#231F20" d="M503.289 364.745L506.673 366.215C507.191 371.526 505.78 402.364 504.291 405.994L502.123 405.763L500.775 404.444C499.595 400.897 501.98 368.089 503.289 364.745Z"/>
	<path fill="#231F20" d="M433.43 374.143L435.24 374.55L436.439 377.964C437.129 386.26 436.847 394.688 437.027 403.006C437.119 407.254 437.811 412.272 437.236 416.451C437.055 417.77 436.577 418.167 435.742 419.154L434.253 418.708L432.071 416.233C431.597 414.067 431.743 380.68 432.086 377.438C432.228 376.094 432.703 375.261 433.43 374.143Z"/>
	<path fill="#231F20" d="M542.567 348.117L545.202 349.409C546.347 353.393 544.73 393.98 543.613 397.515L540.828 400.246L539.676 399.785L539.509 399.322C539.498 399.281 541.112 350.908 541.348 350.001C541.477 349.501 542.261 348.59 542.567 348.117Z"/>
	<path fill="#FEFEFE" d="M567.037 414.148L567.365 414.389C568.018 417.957 564.515 435.961 563.921 440.917C562.992 448.658 562.312 456.487 561.723 464.261C561.015 473.594 560.809 482.977 560.168 492.322C559.191 506.552 557.824 520.8 557.222 535.05C556.708 547.18 557.017 559.384 556.233 571.498C554.469 598.797 551.168 625.907 548.683 653.133C546.809 673.664 547.284 694.361 542.643 714.581L463.921 720.353C466.147 706.126 465.91 691.506 466.951 677.177C468.758 652.292 470.754 627.556 471.955 602.625C472.475 591.838 474.599 579.24 471.939 568.717C471.54 567.138 471.19 565.826 469.789 564.976C465.517 564.68 460.94 565.678 456.67 566.107C442.718 567.509 429.263 569.509 415.441 571.917C405.874 573.583 395.679 575.18 386.604 578.699C379.32 591.35 379.702 617.205 378.795 631.957C378.371 638.834 377.449 645.753 376.703 652.606C375.124 669.611 374.49 686.43 374.449 703.495C374.431 710.784 374.156 718.246 374.912 725.5L291.426 731.564C292.425 720.688 292.153 709.564 292.681 698.633C293.679 677.998 295.119 657.38 296.133 636.752C296.416 630.996 296.367 625.226 296.664 619.471C297.89 595.678 301.047 571.993 303.274 548.289C304.051 540.02 304.26 531.743 304.942 523.482C306.325 506.715 308.162 489.874 310.421 473.199C350.945 464.872 390.83 454.644 431.056 445.086C445.453 441.665 459.875 438.076 474.353 435.021C487.74 432.197 501.193 429.788 514.554 426.793C532.109 422.857 549.477 418.062 567.037 414.148Z"/>
	<path fill="#231F20" d="M502.766 630.337L505.249 631.992L505.661 634.238C505.177 636.431 503.717 637.496 501.927 638.657L499.909 636.781L499.257 633.701L502.766 630.337Z"/>
	<path fill="#231F20" d="M463.759 486.32L466.568 487.447L467.267 489.783C467.087 491.959 465.648 493.791 464.232 495.326L461.268 492.93C460.845 490.15 462.251 488.487 463.759 486.32Z"/>
	<path fill="#231F20" d="M451.287 479.824L452.47 480.901L453.797 484.486C453.64 486.452 452.004 488.025 450.64 489.263L448.018 487.448L447.46 484.875C447.802 482.621 449.611 481.143 451.287 479.824Z"/>
	<path fill="#231F20" d="M364.531 657.247L367.275 658.579L367.908 660.356C367.645 662.626 365.45 664.307 363.879 665.766L362.698 665.658L360.603 663.808C360.729 660.991 362.712 659.186 364.531 657.247Z"/>
	<path fill="#231F20" d="M360.337 645.276L362.842 648.031L363.219 651.648L360.053 654.361L357.285 652.361L356.583 650.002C356.871 647.687 358.634 646.624 360.337 645.276Z"/>
	<path fill="#231F20" d="M495.743 618.308L498.419 619.836L498.934 622C498.458 624.32 496.693 625.423 494.842 626.659L492.871 626.208L491.432 623.707C492.095 620.902 493.399 619.836 495.743 618.308Z"/>
	<path fill="#FEFEFE" d="M581.75 331.753C602.573 338.771 619.182 349.577 637.539 361.347C647.246 367.571 657.077 373.569 666.74 379.873C683.758 390.976 701.102 401.716 717.977 413.006C728.502 420.047 738.657 427.743 749.064 434.972C760.501 442.918 772.484 449.699 783.556 458.232C779.583 496.906 776.521 535.657 772.902 574.358C771.665 587.576 769.673 600.735 768.367 613.953C766.502 632.834 765.768 652.157 766.651 671.121L765.798 667.936C764.839 664.34 762.775 660.988 760.455 658.095C756.486 653.149 751.314 649.88 744.911 649.323C739.062 648.815 733.212 650.29 728.711 654.157C721.077 660.716 718.592 672.122 718.02 681.798L717.47 684.139C716.024 681.733 715.181 678.5 714.167 675.86C710.666 666.749 705.729 660.287 697.752 654.582C694.02 651.913 690.994 651.301 686.46 652.076C683.4 652.378 680.832 652.796 678.105 654.37C667.454 660.515 662.021 677.158 659.214 688.348L653.495 672.924C647.792 662.623 639.956 660.061 629.421 657.071L623.706 659.904C613.422 665.175 607.798 674.975 604.384 685.584L600.323 670.48C598.725 665.816 596.131 661.874 591.521 659.789C586.449 657.495 580.174 657.294 575.011 659.39C562.772 664.355 556.469 681.367 553.223 693.073C551.52 699.216 550.43 705.8 547.892 711.658L547.593 712.333C550.228 692.91 551.297 673.669 553.018 654.175C555.476 626.325 558.77 598.609 560.536 570.688C561.315 558.385 561.152 546.036 561.7 533.721C562.228 521.859 563.372 510.019 564.138 498.168C564.925 485.982 565.334 473.772 566.23 461.594C567.644 442.369 570.638 423.624 573.001 404.533C576.004 380.28 578.609 355.994 581.75 331.753Z"/>
	<path fill="#231F20" d="M650.165 571.723L652.895 572.38L654.504 575.154C654.99 578.009 653.368 581.224 651.789 583.488L649.295 583.13L648.043 581.028C647.632 578.423 648.736 573.926 650.165 571.723Z"/>
	<path fill="#231F20" d="M642.563 560.27L644.02 560.648L644.852 563.451C644.642 567.358 642.877 574.36 640.1 577.069L638.322 576.272L637.241 572.778C637.425 568.722 639.502 562.953 642.563 560.27Z"/>
	<path fill="#231F20" d="M628.301 452.792C633.819 453.642 638.949 458.617 643.762 461.336C646.349 462.797 649.084 463.781 651.846 464.846C661.718 468.651 671.78 472.106 681.543 476.17C689.689 479.56 697.561 483.58 705.744 486.89C716.655 491.303 728.197 495.025 738.797 500.072L739.134 501.479C738.642 507.935 736.113 514.844 734.481 521.139C731.699 531.866 728.998 542.618 726.413 553.394C725.445 557.428 724.423 565.967 723.222 569.114C722.809 570.193 722.216 570.642 721.36 571.373C706.854 564.711 692.89 556.772 678.615 549.649C670.377 545.538 661.823 542.084 653.554 538.043C647.837 535.248 611.765 516.196 610.404 513.349L610.915 510.878L612.442 510.763L628.301 452.792Z"/>
	<path fill="#FEFEFE" d="M695.94 486.701L734.984 503.047L721.004 559.115L719.238 565.604L688.129 550.19C691.468 529.257 691.282 507.385 695.94 486.701Z"/>
	<path fill="#FEFEFE" d="M641.163 464.712L685.942 482.728C683.443 490.096 679.802 497.105 677.222 504.491C674.193 513.161 672.162 522.152 669.269 530.876L665.942 539.153L632.792 522.41C635.213 503.07 639.277 484.151 641.163 464.712Z"/>
</svg>
