<?xml version="1.0" encoding="utf-8" ?>
<svg xmlns="http://www.w3.org/2000/svg" xmlns:xlink="http://www.w3.org/1999/xlink" width="1024" height="1024">
	<path fill="#FEFEFE" d="M0 0L1024 0L1024 1024L0 1024L0 0Z"/>
	<path fill="#231F20" d="M643.793 736.217L646.205 737.043C647.419 739.73 646.339 741.753 645.435 744.366L644.787 744.121L642.618 741.697C642.073 739.723 642.924 737.939 643.793 736.217Z"/>
	<path fill="#231F20" d="M651.535 729.313L653.777 729.348L655.738 731.061L654.439 736.329L653.311 736.297L651.463 734.587C650.569 732.79 650.81 731.08 651.535 729.313Z"/>
	<path fill="#231F20" d="M485.774 701.215L487.559 702.168L483.577 711.651L481.374 710.535C480.806 707.189 483.976 703.817 485.774 701.215Z"/>
	<path fill="#231F20" d="M578.417 825.328L580.742 825.611L582.882 828.213C583.419 830.515 581.602 833.644 580.514 835.564L578.745 835.442L576.3 833.404C575.864 830.365 577.103 828.003 578.417 825.328Z"/>
	<path fill="#231F20" d="M594.501 826.651L596.799 827.254L598.903 830.231C599.433 832.856 597.513 835.768 596.056 837.748L594.749 837.873L592.415 836.299C591.85 833.025 593.428 829.696 594.501 826.651Z"/>
	<path fill="#231F20" d="M729.05 519.093C732.621 518.813 735.41 518.623 738.489 520.687L738.838 523.347L736.427 524.117L730.291 524.531C728.477 524.291 727.303 523.995 726.173 522.524L729.05 519.093Z"/>
	<path fill="#231F20" d="M497.873 248.384L500.848 248.787L502.404 251.215C502.456 253.78 499.823 256.906 498.275 258.754L497.654 258.749C495.943 258.63 494.865 258.156 493.803 256.866C493.417 253.752 496.174 250.798 497.873 248.384Z"/>
	<path fill="#231F20" d="M720.081 577.228L724.281 577.197L726.339 579.313L724.967 581.813L720.274 582.473L715.726 582.699L713.05 580.811L713.614 578.931C715.371 576.953 717.658 577.281 720.081 577.228Z"/>
	<path fill="#231F20" d="M598.651 361.524L606.982 361.298C609.121 361.301 610.738 361.409 612.287 362.987L611.541 366.483L601.639 366.544C600.016 366.396 598.954 366.094 597.873 364.789L598.651 361.524Z"/>
	<path fill="#231F20" d="M728.737 496.775C732.075 496.572 736.376 495.69 739.402 497.357L739.703 500.047C739.132 501.482 738.267 501.458 736.937 501.814C733.667 501.941 727.939 502.849 725.246 500.836L725.62 498.491C726.561 497.102 727.198 497.109 728.737 496.775Z"/>
	<path fill="#231F20" d="M730.09 423.446L740.28 423.32L743.733 425.035L743.005 428.491L733.27 429.12C731.471 429.094 730.453 428.766 729.21 427.456L730.09 423.446Z"/>
	<path fill="#231F20" d="M487.786 268.897L491.176 269.881L492.139 271.686C492.215 275.005 488.016 279.35 485.985 281.859L482.628 281.732L481.521 280.199C480.993 276.475 485.628 271.588 487.786 268.897Z"/>
	<path fill="#231F20" d="M726.458 446.562L739.459 446.907C740.97 447.22 741.699 447.598 742.523 448.894L741.247 451.964L728.805 451.717C727.163 451.434 726.237 451.139 725.263 449.772L726.458 446.562Z"/>
	<path fill="#231F20" d="M469.202 363.196C473.376 363.15 478.429 361.91 482.288 363.785L482.902 366.721C481.797 367.979 480.98 367.931 479.382 368.324L472.758 368.347C470.153 368.29 466.896 368.312 465.044 366.331L465.349 365.117C466.796 363.747 467.329 363.678 469.202 363.196Z"/>
	<path fill="#231F20" d="M514.066 223.768L517.381 225.117L517.915 227.319C517.748 230.731 513.659 236.195 511.257 238.499L509.495 237.957L507.326 235.434C507.288 231.177 511.246 226.728 514.066 223.768Z"/>
	<path fill="#231F20" d="M480.296 565.583L494.701 565.86L497.055 567.945L496.008 571.251L482.728 571.451L479.278 569.465L480.296 565.583Z"/>
	<path fill="#231F20" d="M733.596 593.257L740.138 593.242L743.478 595.51L742.781 596.356C739.876 598.717 734.921 598.083 731.477 598.011C728.286 598.031 723.436 599.248 720.743 597.287L720.823 594.846C723.604 592.455 729.97 593.419 733.596 593.257Z"/>
	<path fill="#231F20" d="M536.084 280.588L556 281.092C557.771 281.311 559.022 281.576 560.159 283.038L559.177 286.429L541.69 285.744C539.488 285.559 536.865 285.505 535.343 283.715L536.084 280.588Z"/>
	<path fill="#231F20" d="M556.812 557.609L576.827 558.184C578.403 558.483 579.092 558.951 580.012 560.236L578.848 563.697L560.257 563.667C558.261 563.369 557.185 562.992 555.99 561.343L556.812 557.609Z"/>
	<path fill="#231F20" d="M576.377 539.589C581.298 539.729 594.114 538.933 598.023 541.148L599.522 543.137L597.065 546.008C591.37 546.032 580.714 547.258 575.81 544.434L574.279 542.549L576.377 539.589Z"/>
	<path fill="#231F20" d="M528.555 248.196C532.971 248.295 552.922 247.84 555.17 250.477L555.319 251.824L551.98 253.962L528.104 253.262C526.556 252.892 525.828 252.427 525.029 251.069L525.384 249.652C526.071 248.327 527.266 248.43 528.555 248.196Z"/>
	<path fill="#231F20" d="M548.69 262.496C554.403 262.473 576.151 261.445 579.689 264.342L579.531 267.929L578.244 268.248C575.231 268.713 550.604 268.238 548.921 266.924L548.69 262.496Z"/>
	<path fill="#231F20" d="M610.774 557.742L614.723 557.912C616.41 558.193 617.022 558.673 617.966 560.062L616.795 562.754C615.356 563.998 598.217 564.481 595.952 564.145L590.558 564L587.034 561.391L587.13 559.797C589.302 558.03 606.772 558.038 610.774 557.742Z"/>
	<path fill="#231F20" d="M742.229 611.212L743.963 612.249L744.047 615.451C743.682 615.741 743.376 616.126 742.952 616.32C739.15 618.062 706.095 618.039 697.593 619.79L695.073 617.695L695.258 616.202C699.969 612.092 733.468 612.673 741.418 611.352L742.229 611.212Z"/>
	<path fill="#231F20" d="M686.827 508.435C692.141 509.066 705.463 506.983 709.308 509.332L711.55 513.118C711.769 515.585 711.139 520.395 709.562 522.257C704.135 522.543 690.052 524.611 686.155 521.449L684.221 517.307C684.065 513.638 684.427 511.205 686.827 508.435Z"/>
	<path fill="#231F20" d="M452.153 679.313L455.681 680.795C457.021 682.61 456.213 686.091 455.981 688.184C458.476 685.655 459.886 683.7 463.646 683.639L464.077 684.18C462.982 687.939 457.828 691.57 455.047 694.368L462.827 694.363L468.338 696.731L467.874 697.48C463.903 699.311 460.029 698.543 455.81 698.145L456.06 700.724L455.844 704.894L453.143 707.586L451.464 706.668C449.712 704.806 449.937 702.035 449.872 699.655L449.63 699.351C447.446 699.492 446.158 706.619 443.918 708.31L444.76 707.504L443.682 707.782C443.398 703.532 444.603 701.519 446.606 697.863L438.492 698.228L435.428 696.536L435.907 695.851C438.657 693.413 444.053 694.117 447.399 694.219L444.614 690.204L442.661 687.961L442.422 686.272L445.074 685.308C447.027 686.657 446.849 688.63 448.452 690.292C450.124 689.724 450.614 681.887 452.153 679.313Z"/>
	<path fill="#231F20" d="M255.762 275.995C258.214 276.653 259.623 277.648 260.895 279.872C262.464 282.615 263.858 285.805 263.051 288.975L259.879 290.902C255.638 290.065 258.327 285.298 255.945 282.741C255.679 282.723 255.402 282.609 255.148 282.687C254.287 282.95 247.699 290.004 243.566 291.511C235.321 294.519 236.327 286.804 230.715 284.175L227.268 285.28C224.118 287.5 220.266 290.977 216.17 290.441L215.53 289.592L216.052 287.483C218.686 282.325 226.129 278.341 231.428 276.513C235.834 278.912 238.39 282.196 241.189 286.213C246.843 283.545 249.975 278.262 255.762 275.995Z"/>
	<path fill="#231F20" d="M888.667 358.866C894.529 358.959 892.3 364.81 895.291 367.794C899.834 367.977 902.231 360.108 907.217 358.796C908.636 359.06 908.964 359.058 909.852 360.311C912.398 363.905 911.771 375.643 910.642 379.85C910.225 381.404 909.708 382.259 908.328 383.069L906.565 382.239C904.546 379.895 905.898 369.253 906.034 365.853C902.346 369.095 899.277 375.188 894.24 376.36C889.954 375.12 892.364 369.981 889.504 367.504C885.194 369.758 886.394 378.555 881.95 380.122L878.962 380.033L878.495 378.957C878.751 373.511 884.918 363.055 888.667 358.866Z"/>
	<path fill="#231F20" d="M689.133 229.477L691.811 229.589C694.791 230.658 696.905 236.727 698.189 239.394C700.825 236.361 703.041 232.165 707.055 230.98L709.61 232.044C712.299 234.756 712.563 243.305 712.657 246.918C712.716 249.169 712.798 250.715 711.212 252.402L709.623 251.85C706.154 248.882 706.578 242.86 706.346 238.712L702.885 242.702L700.276 245.058L696.716 245.467C693.584 244.197 691.708 239.178 690.257 236.389L680.86 251.784C679.683 253.015 679.652 253.096 677.945 253.121L677.76 250.229C678.6 244.03 684.173 233.269 689.133 229.477Z"/>
	<path fill="#231F20" d="M491.053 692.646C490.692 689.133 489.826 684.864 492.12 681.797L494.116 680.784C495.555 681.718 496.275 683.012 496.628 684.675L497.165 689.504C500.172 686.747 502.521 684.027 506.691 683.324L507.544 683.628L506.466 686.406C503.942 689.305 499.922 690.879 498.572 694.765C501.059 697.026 508.706 693.88 510.051 698.116L506.01 699.909L498.122 699.618C498.48 702.466 499.936 708.037 497.945 710.305L494.765 711.825L492.802 710.988L490.723 700.641C487.359 700.154 477.703 700.39 475.505 698.247L478.683 695.225L486.499 695.678L487.052 695.18C487.983 692.528 484.162 690.553 483.177 688.271L483.309 686.791L484.456 686.485C487.238 687.446 489.296 690.378 491.053 692.646Z"/>
	<path fill="#231F20" d="M373.437 199.067C380.424 198.826 382.186 202.307 387.086 206.479C393.861 212.247 400.069 201.663 406.528 200.226C413.53 198.67 415.316 205.199 419.757 206.016C420.727 206.194 422.487 205.881 423.516 205.831L425.301 207.906L424.412 211.051L421.31 212.346C416.916 212.603 413.793 209.496 410.625 206.944C405.36 203.73 397.35 215.087 390.478 214.889C386.131 214.764 383.732 211.618 381.094 208.655C372.113 198.565 367.78 213.09 361.791 211.789L359.71 209.85L360.121 207.579C362.094 203.629 369.462 200.06 373.437 199.067Z"/>
	<path fill="#231F20" d="M536.987 340.245C539.337 335.205 542.055 327.377 547.83 325.43C549.833 324.755 551.856 325.123 553.682 326.121C557.818 328.379 562.445 334.267 563.693 338.816L563.39 342.612C559.299 343.058 556.206 333.057 549.301 330.516C543.635 335.574 542.924 344.616 538.272 348.245C531.848 348.5 529.602 332.67 523.015 330.395C516.705 331.276 517.201 341.471 512.463 344.648L510.26 343.473C509.588 341.492 509.89 340.031 510.594 338.105C512.361 333.271 515.607 327.426 520.363 325.177L526.235 325.61C531.478 329.259 534.045 334.798 536.987 340.245Z"/>
	<path fill="#231F20" d="M550.28 335.317C553.286 335.818 557.221 343.676 561.98 345.983L561.904 372.021C560.404 373.666 554.906 373.049 552.59 373.338L552.117 373.401C549.446 371.656 544.351 375.161 541.012 372.751L540.693 371.274C540.597 369.266 541.094 366.965 541.084 364.883C541.022 352.347 541.509 345.024 550.28 335.317Z"/>
	<path fill="#231F20" d="M195.222 560.565L197.915 560.843L199.274 563.646C198.726 564.625 198.553 564.907 197.518 565.438C189.591 569.499 176.131 571.119 167.177 573.194C162.247 574.336 157.368 575.953 152.518 577.396C146.612 579.153 140.556 580.757 134.763 582.856C127.741 585.4 120.936 588.579 113.939 591.211C102.153 595.644 90.2273 599.792 78.6544 604.77L75.6469 603.888L75.213 601.152C78.319 597.491 86.708 595.653 91.1708 593.851C112.792 585.119 134.588 576.679 157.009 570.195C169.581 566.559 182.561 563.996 195.222 560.565Z"/>
	<path fill="#231F20" d="M522.1 334.254C527.972 337.801 531.76 347.419 538.026 352.166L537.556 373.274L530.625 373.367C525.658 373.207 519.787 374.49 515.052 372.904L514.669 372.098C513.773 369.431 514.104 365.121 514.02 362.293C513.522 345.485 514.412 348.576 522.1 334.254Z"/>
	<path fill="#231F20" d="M501.62 376.423C506.07 377.494 512.532 376.631 517.206 376.621C527.609 376.6 538.01 376.542 548.412 376.46C556.934 376.394 565.554 376.065 574.027 377.118L574.587 382.189C574.749 384.186 574.94 385.595 573.578 387.19L572.377 387.19C562.901 386.473 503.127 388.964 499.741 386.876L498.616 383.727C498.624 380.859 499.649 378.438 501.62 376.423Z"/>
	<path fill="#231F20" d="M769.173 713.225L769.649 713.088C770.973 712.874 772.443 713.037 773.438 714.019L774.449 716.714C771.754 720.496 750.355 719.875 745.347 720.013C710.611 720.976 675.915 722.282 641.205 723.919C636.585 724.136 630.116 723.856 626.411 726.985C618.71 733.489 617.512 785.207 607.986 792.922C606.417 794.193 604.712 795.008 602.716 795.332C593.215 796.871 582.543 796.253 572.883 796.271C542.517 796.326 512.367 794.618 482.079 792.751C447.919 790.646 413.697 789.384 379.618 786.143L372.792 784.736L371.862 782.007C373.705 779.928 378.279 780.3 380.922 780.408C396.165 781.031 411.473 782.666 426.708 783.649C458.28 785.688 489.934 787.443 521.535 788.968C546.492 790.172 572.148 791.634 597.083 789.734C599.247 789.569 602.73 789.459 604.352 787.887C611.285 781.169 612.773 732.755 621.391 723.095C623.754 720.447 626.286 719.634 629.695 718.966C635.638 717.802 642.207 717.904 648.257 717.671C656.204 717.364 664.147 716.965 672.095 716.671C704.422 715.474 736.879 714.891 769.173 713.225Z"/>
	<path fill="#231F20" d="M148.714 582.386L151.591 582.904C162.409 588.81 165.518 636.46 167.439 649.989C168.305 656.094 169.47 662.148 171.358 668.022L170.872 668.709C165.14 670.832 152.09 669.587 146.032 668.676C136.099 667.184 125.384 663.776 119.188 655.354L117.428 661.584C124.102 668.748 132.631 672.094 142.036 674.148C152.981 676.538 178.114 678.381 187.491 671.69L189.064 669.092C187.642 662.777 178.071 658.655 173.196 655.397C171.746 654.428 170.968 653.728 170.6 652.008L172.703 650.77C177.079 650.095 183.141 654.132 186.532 656.684C188.898 659.039 191.303 661.427 192.57 664.585C193.997 668.139 194.475 688.827 192.988 691.741L191.419 692.654C187.484 693.621 182.667 693.128 178.608 692.999C161.752 692.461 136.953 690.325 122.582 681.395C117.31 678.12 113.593 673.48 112.294 667.337C110.842 660.472 112.228 655.468 116.12 649.778C120.197 643.82 126.576 637.649 133.906 636.272L134.127 619.795C128.005 618.703 110.898 617.522 106.964 613.779L107.481 611.676C112.619 608.708 128.445 613.413 134.792 614.304L136.805 602.462C138.721 594.846 141.683 586.609 148.714 582.386Z"/>
	<path fill="#FEFEFE" d="M131.676 675.653L135.207 678.571C136.091 679.815 135.81 680.151 135.553 681.584L132.172 680.051C131.22 678.506 131.478 677.359 131.676 675.653Z"/>
	<path fill="#FEFEFE" d="M141.695 679.147L145.438 680.085L145.92 684.341L142.696 683.572L141.695 679.147Z"/>
	<path fill="#FEFEFE" d="M162.932 681.507L165.938 681.557L167.305 682.46L167.063 686.738L167.084 687.19L166.917 687.235L163.569 686.819L162.932 681.507Z"/>
	<path fill="#FEFEFE" d="M152.196 680.14L156.855 681.686C157.953 683.275 157.835 684.714 158.01 686.59L152.695 685.125L152.196 680.14Z"/>
	<path fill="#FEFEFE" d="M186.667 677.33L186.788 677.407L188.097 679.767C188.534 682.709 188.674 686.138 186.889 688.58L185.084 687.579C183.77 685.416 183.98 681.059 184.805 678.733L186.667 677.33Z"/>
	<path fill="#FEFEFE" d="M174.723 680.596L178.176 680.938L179.14 685.97L179.111 686.626L179.483 687.176L178.216 687.839L175.422 687.988L172.719 686.031L172.456 682.585C172.913 681.16 173.434 681.162 174.723 680.596Z"/>
	<path fill="#FEFEFE" d="M135.647 650.333L136.125 650.722L136.582 653.645L137.926 658.47L138.089 660.53L133.611 659.599C132.06 658.823 130.854 658.558 130.153 656.936C130.58 654.164 133.587 652.015 135.647 650.333Z"/>
	<path fill="#231F20" d="M814.75 235.654L815.178 235.593C825.463 234.551 836.172 236.676 844.49 243.1C852.395 249.205 857.141 259.666 858.4 269.402C859.641 279.002 858.156 289.121 852.101 296.92C845.188 305.824 835.381 308.958 824.622 310.253L823.963 310.37C813.961 311.435 800.76 307.497 792.738 301.514C785.995 296.485 781.868 289.083 780.679 280.8C779.198 270.487 781.602 259.693 787.997 251.394C794.666 242.74 803.95 237.132 814.75 235.654Z"/>
	<path fill="#FEFEFE" d="M816.592 240.691C825.585 240.605 834.025 241.964 841.331 247.631C848.394 253.11 852.212 261.918 853.159 270.65C854.041 278.778 852.714 287.882 847.356 294.335C841.203 301.745 832.209 303.894 823.073 304.668C814.239 304.909 805.3 302.998 797.825 298.111C791.754 294.142 787.659 287.871 786.246 280.77C784.62 272.604 786.464 263.496 791.13 256.615C797.552 247.147 805.533 242.793 816.592 240.691Z"/>
	<path fill="#231F20" d="M923.43 633.291L926.786 634.794C927.136 636.491 926.935 637.25 926.082 638.762C922.666 644.815 917.406 650.42 912.797 655.598C905.652 663.625 898.694 671.217 890.447 678.136C869.582 695.643 831.615 716.949 805.357 723.652C805.271 733.23 806.11 742.895 799.182 750.56C796.233 753.823 791.969 755.631 787.745 756.603C782.654 757.774 777.153 757.962 771.949 758.383C757.176 759.579 742.373 759.987 727.568 760.55C710.618 761.193 693.681 762.603 676.729 763.389C675.223 768.415 672.877 776.751 674.222 781.884C680.414 782.836 686.773 782.916 693.014 783.468C710.609 785.027 728.953 786.464 746.11 790.773C751.646 792.163 760.795 794.421 763.718 799.822C764.74 801.713 764.813 803.981 764.089 805.987C759.176 819.587 700.09 823.87 686.477 831.026L684.46 833.675L691.183 841.38C691.871 842.873 691.987 844.509 691.31 846.035C689.808 849.42 685.577 851.669 682.316 852.959C657.838 862.639 598.062 862.996 570.412 861.931C563.846 861.679 557.238 860.937 550.682 860.438C539.526 859.589 525.4 859.143 515.189 854.562C512.502 853.357 509.621 851.452 508.669 848.504C507.964 846.32 508.559 844.108 509.649 842.164C513.65 835.031 522.073 833.176 529.315 830.964C517.384 825.763 498.197 824.897 485.085 823.158C452.552 818.842 420.069 814.133 388.218 806.067C377.498 803.352 366.043 800.552 356.132 795.537C351.817 793.353 345.798 789.841 344.407 784.914C343.768 782.652 344.145 779.94 345.314 777.91C347.538 774.05 352.536 771.751 356.581 770.259C369.985 765.314 385.659 763.692 399.791 761.858C431.61 757.727 463.336 755.39 495.373 753.88C512.474 753.074 535.654 754.565 551.67 749.726C538.774 744.965 524.537 743.63 510.96 741.959C493.6 739.823 476.21 738.162 458.823 736.297C378.656 727.697 298.206 721.956 217.752 716.791C185.651 714.73 153.449 711.403 121.319 710.232L120.922 707.247C121.07 705.777 121.561 705.582 122.657 704.797C130.736 704.119 139.907 705.725 148.04 706.285C168.258 707.676 188.473 709.348 208.698 710.578C248.982 713.027 289.239 715.912 329.49 718.817C363.577 721.277 397.623 723.597 431.645 726.91C453.702 729.058 475.68 731.623 497.676 734.317C511.022 735.952 524.42 737.321 537.673 739.621C543.766 740.678 554.707 742.297 558.137 748.177L558.649 751.368C556.068 755.373 549.366 756.863 544.878 757.594C531.757 759.732 518.437 758.885 505.243 759.507C467.084 761.305 429.321 763.728 391.5 769.395C379.398 771.209 365.377 772.648 354.25 777.953C352.133 778.962 350.968 779.645 350.161 781.892C351.322 796.876 441.286 810.767 455.756 812.848C469.203 814.783 482.682 816.621 496.166 818.279C504.9 819.353 514.035 819.951 522.596 821.982C526.561 822.922 531.399 824.454 534.239 827.483C535.364 828.683 535.763 829.71 535.655 831.378C533.465 836.067 528.216 837.337 523.826 839.213C521.035 840.406 515.286 842.849 514.374 845.875L514.741 847.323C526.765 856.818 606.873 855.546 625.427 854.873C635.482 854.508 679.436 851.618 684.962 844.561C685.893 843.372 678.402 837.307 678.022 833.896C677.665 830.703 680.207 827.931 682.751 826.403C695.762 818.59 752.106 812.388 758.26 804.221L758.507 802.547C751.337 793.928 697.764 790.119 685.113 789.011C680.164 788.578 673.968 789.404 669.414 787.448L667.863 783.126C667.413 777.182 669 761.891 672.821 757.428L764.701 753.008C774.33 752.583 789.553 753.866 796.311 746.064C801.245 740.368 800.055 731.93 799.626 725.004C799.527 723.41 799.355 721.304 800.251 719.882C801.905 717.257 810.709 715.077 813.877 713.888C844.453 702.404 877.797 683.806 900.548 660.174C908.683 651.724 915.633 642.067 923.43 633.291Z"/>
	<path fill="#231F20" d="M533.399 162.37C539.491 165.458 556.451 193.616 561.039 200.472C572.216 217.171 583.731 233.651 594.616 250.545C608.88 272.681 622.524 295.321 637.106 317.233C643.314 315.846 653.169 312.228 659.253 312.774C668.953 313.646 680.798 318.159 690.325 320.909C706.004 325.434 721.769 329.723 737.495 334.087C752.315 338.2 767.238 341.675 781.919 346.301C784.568 347.135 787.516 347.458 790.071 348.446C791.528 349.01 791.729 349.601 792.253 350.999C791.25 354.98 786.443 355.4 783.749 358.054C781.408 360.359 781.302 387.189 781.403 392.101L782.206 392.584C783.683 393.491 784.364 394.152 784.746 395.867L784.148 396.839C781.426 399.904 759.295 407.794 754.991 408.018L756.341 552.369C762.208 552.286 768.328 553.52 774.155 554.193C792.7 556.335 811.696 558.746 829.924 562.79C830.245 554.61 832.207 546.29 833.631 538.229C835.685 526.599 837.181 514.898 840.836 503.632C837.058 509.628 832.944 516.983 827.177 521.25C825.865 522.22 824.909 522.593 823.297 522.39L821.895 519.356C820.329 506.109 829.692 488.126 837.492 477.985C833.819 476.031 830.19 474.759 826.019 474.391C820.253 473.881 811.955 476.497 807.437 480.293C804.706 482.587 802.615 485.605 799.756 487.763C798.445 488.753 797.635 489.012 796.022 488.79L794.683 486.268C794.609 484.197 795.853 481.901 796.583 479.987C800.29 470.27 804.93 460.955 812.424 453.539C815.687 450.31 819.92 447.086 824.737 447.224C832.051 447.434 837.769 452.616 842.475 457.635L844.334 439.73C845.153 435.776 846.812 426.736 850.163 424.521L852.836 425.535C854.268 427.026 854.778 430.592 855.176 432.604C857.583 444.763 857.581 456.175 856.298 468.43C862.448 466.498 868.609 465.29 874.662 468.361C879.861 470.999 883.266 475.785 885.07 481.228C887.239 487.77 889.016 508.515 885.977 514.517C884.793 515.445 884.833 515.417 883.328 515.34C881.957 514.463 868.768 490.751 867.286 487.718C868.373 495.879 868.688 504.431 865.87 512.312C864.678 515.647 861.645 524.135 858.085 525.446L856.288 525.009C853.501 521.332 854.498 515.039 853.644 510.532L853.496 509.77L848.433 566.29C854.028 567.508 859.678 568.672 865.178 570.269C877.763 573.921 943.05 594.402 948.02 601.866L948.61 604.873L947.875 605.264C944.311 606.483 931.056 599.133 926.891 597.451C908.789 590.135 890.561 583.651 871.929 577.81C864.194 575.386 855.326 574.314 847.988 571.067L846.102 597.956C864.581 602.97 883.158 608.223 899.901 617.718L910.332 614.49L912.06 616.754L911.475 618.74C909.553 621.438 900.915 623.709 897.769 624.779C877.346 631.727 856.289 637.656 835.059 641.561C814.994 645.252 794.733 647.418 774.624 650.726C737.639 656.81 701.027 663.645 663.672 667.255C625.284 670.965 586.282 673.44 547.71 673.974C533.542 674.17 519.397 673.666 505.233 673.522C454.313 673.001 402.855 670.473 352.383 663.327C337.144 661.17 322.094 658.03 306.99 655.118C279.878 649.891 252.82 644.381 225.731 639.037C218.91 637.691 170.389 628.787 168.005 625.914L167.337 621.401C173.019 616.428 196.318 608.836 204.468 606.232C202.698 598.417 203.466 589.682 202.556 581.665C200.981 567.785 198.764 553.997 197.073 540.134C195.883 530.385 195.224 520.582 194.015 510.841C193.113 503.573 191.77 496.436 190.552 489.222C189.408 482.446 189.433 475.691 187.493 469.032L172.889 467.16C165.86 475.408 163.06 485.804 163.7 496.579C163.872 499.476 164.596 503.361 163.655 506.127L162.921 506.414L160.351 505.733C157.982 504.127 156.529 500.657 155.383 498.112C150.735 487.788 148.692 477.807 148.843 466.455C148.882 463.573 150.944 459.336 150.157 456.738L148.619 455.343C146.875 454.552 143.431 455.013 141.531 455.221C124.161 457.128 128.58 470.593 122.26 473.521L120.665 472.028C118.303 466.897 122.661 451.39 124.854 446.187C129.504 435.157 135.461 428.942 146.66 424.424C138.908 417.846 129.34 412.969 120.061 408.907C117.541 407.804 114.304 407.25 112.036 405.764L110.586 403.322C111.513 401.095 113.835 399.835 115.871 398.742C127.16 392.68 142.478 390.939 154.776 394.638C168.71 398.828 177.393 408.816 184.028 421.322C186.245 416.447 188.382 412.092 192.057 408.117C198.039 401.647 206.079 397.969 214.896 397.751C227.118 397.449 247.16 408.299 255.425 416.67C256.635 417.895 257.254 418.749 257.267 420.48C254.768 423.288 244.589 422.793 240.502 423.707C235.337 424.863 230.807 426.879 226.087 429.234C229.687 431.332 232.636 433.643 235.134 437.02C242.672 447.211 242.81 460.402 240.951 472.434C240.28 476.773 238.548 484.858 234.897 487.504C233.449 487.432 233 487.149 232.315 485.724C231.261 483.53 231.025 480.719 230.546 478.341C228.999 470.665 225.809 464.034 219.674 458.978C214.414 454.644 208.692 454.571 202.264 455.099C206.094 467.46 205.382 483.521 206.991 496.566C208.445 508.36 211.787 520.113 214.533 531.665C217.926 544.963 220.25 558.398 222.615 571.904C224.212 581.023 226.15 590.292 226.732 599.536L279.747 588.02L274.93 550.717C261.131 552.736 247.407 555.191 233.679 557.633C230.735 558.157 227.347 559.852 224.443 559.881L221.85 558.519L222.045 555.608C226.181 552.118 268.507 545.694 275.31 545.216C275.268 542.757 275.4 540.009 274.883 537.605C273.691 532.074 270.845 526.586 268.61 521.397C263.711 510.023 258.222 498.658 254.599 486.802L321.527 460.741C321.618 446.436 321.854 432.067 321.427 417.767C321.294 413.293 320.691 408.855 320.502 404.387C320.235 398.09 320.577 391.798 319.988 385.513L317.012 386.852C315.442 387.527 314.283 388.023 312.647 387.362C310.612 382.873 307.809 372.016 309.123 367.199C312.783 364.899 317.035 363.318 320.939 361.451C328.973 357.608 336.982 353.694 344.973 349.762C369.987 337.453 395.027 324.813 419.676 311.783C435.729 318.022 453.461 319.315 470.019 324.056C470.089 328.067 470.837 333.283 468.677 336.797C464.306 339.803 437.145 332.795 429.681 332.45L428.955 332.42C429.708 362.892 428.908 393.288 428.77 423.763L643.653 423.714C642.793 418.3 641.909 402.821 644.442 398.369C645.713 397.66 645.609 397.715 647.019 398.111C648.947 400.44 647.997 419.859 647.974 424.062L706.576 422.245L708.573 424.052C709.107 425.447 708.565 427.274 708.1 428.604C704.056 440.188 696.83 453.956 691.459 465.268C687.025 474.607 683.079 484.264 678.252 493.398L649.329 493.518C651.312 512.004 650.736 530.52 651.175 549.067C651.378 557.675 652.756 571.668 651.557 579.696C651.292 581.476 650.823 582.711 649.371 583.798L648.199 583.193C647.382 581.862 646.914 580.642 646.804 579.064C646.459 574.119 646.743 568.966 646.67 563.991C646.53 554.415 646.23 544.829 646 535.253C645.812 527.436 645.655 519.611 645.438 511.795C645.273 505.852 644.619 499.533 645.633 493.678L435.663 494.391L436.107 645.367C443.023 645.684 449.982 646.537 456.909 646.98C471.091 647.888 485.357 648.429 499.567 648.639L499.553 611.595L501.364 608.841C505.259 603.318 524.3 585.538 531.122 585.206C536.871 584.926 553.317 597.713 557.846 602.036C560.835 604.889 563.916 608.52 565.493 612.37C568.47 619.639 567.069 639.786 567.265 648.518L647.829 642.905L647.002 618.065C647.112 616.228 647.106 613.813 648.564 612.498L650.864 613.215C651.655 613.989 652.383 615.328 652.559 616.415C652.951 618.835 652.476 621.702 652.471 624.169C652.459 630.146 652.617 636.125 652.748 642.101C663.282 641.913 673.691 640.655 684.153 639.533C707.11 637.072 729.933 633.645 752.873 631.075C753.334 610.853 752.391 590.649 751.88 570.435C751.347 549.336 751.214 528.217 750.812 507.112C750.178 473.867 751.066 440.573 750.137 407.33C739.547 404.313 728.543 402.56 717.776 400.239C709.415 398.436 701.191 396.049 692.829 394.236C686.332 392.827 661.516 389.281 657.856 386.585L657.463 385.096C661.226 379.159 674.391 377.664 679.733 373.101L679.318 335.18L645.715 343.078C637.2 325.809 626.414 309.622 616.178 293.355C599.237 266.433 582.035 239.894 564.082 213.641C554.074 199.005 545.19 183.119 533.876 169.45C531.129 174.896 527.033 179.967 523.751 185.135C514.911 199.054 505.958 212.917 497.304 226.952C488.37 241.439 479.016 255.784 470.392 270.446C465.984 277.939 461.649 285.464 457.201 292.934C455.545 295.715 454.287 298.765 452.406 301.406L448.968 303.817L447.015 302.302C447.793 295.968 525.982 168.983 533.399 162.37Z"/>
	<path fill="#FEFEFE" d="M506.802 609.896L507.167 610.61C507.801 613.126 507.468 644.402 506.947 647.751C506.833 648.482 506.58 648.964 506.253 649.617C504.581 646.399 504.502 619.249 504.46 613.759L506.802 609.896Z"/>
	<path fill="#FEFEFE" d="M514.097 601.688L514.937 602.497C515.844 608.817 515.129 615.818 515.133 622.245C515.139 630.627 515.736 639.432 515.095 647.768C515.019 648.758 514.752 649.377 514.262 650.221L513.526 648.012C512.605 640.755 513.166 632.661 513.083 625.285C513.006 618.496 512.253 610.858 513.027 604.145C513.143 603.144 513.543 602.503 514.097 601.688Z"/>
	<path fill="#FEFEFE" d="M521.328 596.742L522.153 597.385C523.135 603.527 522.461 610.509 522.599 616.779C522.827 627.128 523.826 637.825 522.989 648.161C522.914 649.077 522.682 649.626 522.254 650.423L521.623 649.214C520.663 646.161 520.356 604.12 520.558 599.174C520.597 598.196 520.858 597.581 521.328 596.742Z"/>
	<path fill="#FEFEFE" d="M557.073 608.825L557.837 609.499C563.398 614.833 560.599 641.244 560.563 649.324L557.419 649.01L557.073 608.825Z"/>
	<path fill="#FEFEFE" d="M443.489 456.503C449.525 458.737 458.528 456.099 463.39 457.943L465.313 459.978L464.387 463.628L443.52 463.824L442.174 460.162C441.795 458.565 442.655 457.72 443.489 456.503Z"/>
	<path fill="#FEFEFE" d="M666.964 458.699L669.55 458.778L670.328 460.139L670.507 463.69C667.105 467.223 656.189 466.209 651.452 466.301L650.001 465.849L648.344 464.4L649.087 459.216C655.26 459.444 660.845 459.642 666.964 458.699Z"/>
	<path fill="#FEFEFE" d="M548.479 601.169L551.775 603.492C552.092 603.832 552.548 604.604 552.657 605.04C553.297 607.614 552.535 612.753 552.531 615.625C552.513 627.014 552.585 638.404 552.632 649.793L549.81 649.114L548.479 601.169Z"/>
	<path fill="#FEFEFE" d="M529.659 590.147L531.953 591.243C533.414 592.554 532.295 642.467 532.278 649.924L529.984 649.9C529.795 649.675 529.532 649.494 529.416 649.224C528.716 647.601 529.38 595.944 529.659 590.147Z"/>
	<path fill="#FEFEFE" d="M539.562 595.093L544.355 598.155L544.462 649.418L540.777 649.55C539.109 644.761 539.935 603.968 539.562 595.093Z"/>
	<path fill="#FEFEFE" d="M212.665 431.256L214.149 431.298C220.224 431.513 225.228 433.887 229.322 438.46C237.033 447.072 236.932 459.419 236.255 470.236L231.257 461.701C223.265 450.985 216.044 449.64 204.156 445.107C202.174 444.351 200.298 443.676 199.407 441.696C199.592 438.899 201.273 436.39 203.072 434.324C205.811 431.18 208.801 431.543 212.665 431.256Z"/>
	<path fill="#FEFEFE" d="M848.188 498.329L848.606 498.712C849.839 502.823 842.938 560.096 842.141 569.673C841.145 581.64 840.53 593.893 840.416 605.902L832.952 605.593L831.77 604.449C830.61 600.877 832.151 593.895 832.54 590.023C835.166 563.863 838.319 537.517 844.011 511.816C845.043 507.158 846.421 502.757 848.188 498.329Z"/>
	<path fill="#FEFEFE" d="M850.207 438.333C854.13 442.365 851.358 463.016 851.526 469.182L852.86 474.694L866.153 471.996C869.722 471.994 873.183 473.222 875.691 475.81C882.168 482.494 882.053 493.36 881.92 502.004C877.898 494.352 873.439 486.334 866.777 480.63C865.195 479.275 864.102 478.552 861.994 478.738C859.65 481.128 861.313 484.86 861.918 487.863C863.974 498.074 862.7 506.298 859.201 516.064C858.389 509.222 855.801 492.675 852.723 486.603C851.992 485.162 851.406 484.545 849.869 484.071C844.7 486.362 840.505 494.646 837.474 499.287C834.914 503.006 831.617 510.713 827.812 512.913L827.515 512.245C829.512 503.019 831.89 495.571 837.273 487.646C839.222 484.776 844.08 480.526 844.969 477.374L844.23 474.584C841.233 471.61 831.914 469.581 827.726 469.173C818.037 468.232 811.747 470.445 804.268 476.583C807.257 469.499 811.932 461.194 817.91 456.212C832.104 444.385 839.705 468.779 847.785 469.617C848.53 468.726 848.666 468.39 848.755 467.178C848.93 464.777 848.489 462.224 848.377 459.815C848.052 452.859 848.258 445.607 850.065 438.847L850.207 438.333Z"/>
	<path fill="#FEFEFE" d="M756.689 557.412C765.576 558.85 774.685 559.486 783.619 560.694C798.747 562.739 813.839 565.299 828.859 568.012L826.408 591.46L826.277 592.53L825.57 593.075C803.24 587.211 779.911 584.171 757.073 581.033L756.689 557.412Z"/>
	<path fill="#FEFEFE" d="M683.839 335.497L777.084 360.096L776.527 390.913L776.302 391.149L775.007 391.559L776.083 391.59L774.723 390.932L774.772 391.603C766.747 389.494 758.11 388.55 749.946 386.816C737.523 384.179 725.169 381.139 712.773 378.368C703.377 376.268 693.904 374.473 684.547 372.214L683.839 335.497Z"/>
	<path fill="#231F20" d="M724.391 357.264L726.991 357.714L728.855 360.902C729.164 363.124 728.563 364.739 727.255 366.496L725.747 366.413L723.369 364.055C722.468 361.698 723.21 359.335 724.391 357.264Z"/>
	<path fill="#231F20" d="M712.225 353.204L714.021 353.473C715.508 353.939 716.368 355.454 716.832 356.835L716.394 362.526L713.946 363.36L711.579 361.867C710.494 359.812 711.511 355.283 712.225 353.204Z"/>
	<path fill="#FEFEFE" d="M139.531 398.263C157.264 398.386 168.188 405.767 177.45 420.71C179.214 423.555 181.337 428.6 183.734 430.728L184.644 430.586C187.921 429.613 191.12 419.586 192.841 416.604C196.391 410.451 201.594 405.99 208.585 404.272C221.965 400.983 234.564 408.857 245.545 415.482C237.323 414.871 229.017 414.466 220.921 416.36C211.434 418.579 202.805 424.302 197.676 432.668C195.421 436.346 193.883 440.247 193.965 444.63C194.094 451.53 198.059 461.369 199.101 468.963C200.531 479.39 200.408 490.031 202.024 500.448C204.302 515.129 208.738 529.437 211.642 544.001C214.228 556.974 216.678 569.993 219.036 583.009C220.102 588.891 220.817 594.835 222.178 600.659L209.186 604.558L208.126 584.39C207.419 570.542 204.624 556.516 203.021 542.718C200.974 525.083 198.864 507.527 196.471 489.936C195.223 480.761 194.438 471.227 191.936 462.299C190.703 457.899 188.585 451.169 184.256 448.987L179.543 448.75C169.132 452.391 160.834 474.915 156.284 484.23C154.821 479.177 154.18 473.66 154.392 468.407C154.859 456.776 160.028 450.119 168.188 442.494L145.36 443.001C137.001 444.281 132.344 448.035 127.488 454.659C130.414 447.582 133.042 440.167 138.951 434.961C153.053 422.541 160.127 434.995 169.89 435.581L170.419 435.017C169.383 429.973 148.278 410.51 143.218 406.616C140.712 404.687 133.701 402.141 132.91 399.352C134.77 398.026 137.334 398.3 139.531 398.263Z"/>
	<path fill="#FEFEFE" d="M424.381 334.468C424.598 334.729 424.885 334.945 425.032 335.251C425.717 336.676 423.699 410.745 425.495 423.215C413.789 425.246 402.459 430.234 391.362 434.381C370.162 442.303 349.131 451.028 327.61 458.015L326.67 457.492C325.944 451.552 327.103 444.932 326.967 438.844C326.704 427.034 326.642 415.208 326.322 403.403C326.136 396.524 325.546 389.686 325.497 382.798C345.813 370.95 367.617 362.143 388.855 352.212C400.857 346.599 412.36 340.032 424.381 334.468Z"/>
	<path fill="#231F20" d="M342.091 414.979L345.801 415.71L346.85 419.229L347.296 424.601L346.634 424.763C344.936 425.125 344.224 425.137 342.78 424.258C341.062 421.515 341.838 418.062 342.091 414.979Z"/>
	<path fill="#231F20" d="M396.002 364.87L400.344 365.895L401.847 368.967L399.969 372.251C398.424 372.508 396.614 373.033 395.256 371.941L394.072 370.044C393.692 367.828 394.709 366.508 396.002 364.87Z"/>
	<path fill="#231F20" d="M375.172 405.974L376.421 406.125L379.192 407.856C380.452 410.149 379.701 414.51 379.063 416.923L377.253 416.677L374.746 414.7C373.607 412.412 374.245 408.265 375.172 405.974Z"/>
	<path fill="#231F20" d="M357.77 410.239L361.368 411.898C362.655 413.888 363.453 420.206 362.698 422.318L359.418 422.486L357.732 421.258C355.943 418.408 357.189 413.407 357.77 410.239Z"/>
	<path fill="#231F20" d="M376.094 385.923L378.812 386.667L379.462 389.028C376.885 392.388 371.068 393.868 367.223 395.514L366.821 395.481C365.241 395.264 363.701 394.86 362.74 393.598L362.932 392.755C364.2 389.694 372.971 387.245 376.094 385.923Z"/>
	<path fill="#231F20" d="M345.893 394.443L348.912 395.94L349.18 397.578C347.589 401.125 337.753 403.809 334.118 405.137L332.709 404.8C331.826 403.638 331.417 403.483 331.536 401.987C334.242 398.436 341.839 396.605 345.893 394.443Z"/>
	<path fill="#FEFEFE" d="M430.092 495.388L430.416 495.449L431.033 645.156L287.8 632.879L286.861 616.096L394.026 604.101L413.048 601.703L414.51 595.84C414.783 593.477 414.883 591.344 413.325 589.416C409.421 587.205 335.894 599.11 326.208 600.463C312.855 602.328 299.436 603.819 286.062 605.539C285.446 598.351 285.298 591.137 284.515 583.958C282.793 568.161 280.368 552.999 280.82 537.021C294.322 531.35 312.661 527.493 327.12 523.357C353.03 515.944 378.9 508.618 404.956 501.729C412.75 499.669 422.196 495.872 430.092 495.388Z"/>
	<path fill="#231F20" d="M343.138 526.236L344.119 526.659C345.602 528.266 346.19 531.172 346.235 533.311C346.272 535.056 345.94 535.989 344.742 537.231L343.45 536.396C341.915 535.187 340.853 532.248 340.835 530.331C340.815 528.257 341.827 527.59 343.138 526.236Z"/>
	<path fill="#231F20" d="M303.076 538.785L305.21 539.184L307.839 543.54C308.29 545.739 308.392 547.707 307.139 549.616L306.013 549.288L303.436 546.324C302.405 543.978 302.097 541.168 303.076 538.785Z"/>
	<path fill="#231F20" d="M385.744 515.251L387.74 515.561L389.711 517.906C390.788 520.439 390.548 523.643 389.623 526.167L387.496 525.648L385.899 523.293C385.014 520.905 384.681 517.59 385.744 515.251Z"/>
	<path fill="#231F20" d="M357.256 522.684L358.301 523.198C359.807 524.227 360.524 525.827 360.902 527.567C361.412 529.91 361.38 531.973 360.011 533.976L357.617 532.986L355.823 529.224C355.274 526.471 355.779 524.917 357.256 522.684Z"/>
	<path fill="#231F20" d="M372.578 518.258L373.213 518.531C374.783 519.312 375.362 520.431 375.872 522.031C376.734 524.735 376.744 527.941 375.375 530.444L373.507 529.534L371.043 523.44C370.851 521.071 371.099 520.069 372.578 518.258Z"/>
	<path fill="#231F20" d="M401.079 510.813L403.514 511.155L404.858 512.796C405.895 514.969 406.285 519.322 405.519 521.633L403.233 521.426L400.853 518.626C399.929 516.179 400.169 513.217 401.079 510.813Z"/>
	<path fill="#231F20" d="M322.483 534.277L325.245 534.539L326.556 536.149C328.04 538.757 328.562 542.477 327.843 545.379L326.682 545.538L324.135 544.21C322.41 542.021 322.242 536.914 322.483 534.277Z"/>
	<path fill="#231F20" d="M293.066 541.854L294.202 542.504L296.082 549.729C296.155 552.378 295.944 553.451 294.116 555.424L293.065 554.334C291.356 552.282 290.625 548.495 290.846 545.907C291.011 543.974 291.645 543.107 293.066 541.854Z"/>
	<path fill="#231F20" d="M323.785 551.554C326.722 551.28 328.721 551.466 331.457 552.672C337.481 555.328 341.484 560.823 343.681 566.867C345.477 571.806 349.674 589.274 347.642 593.617L328.342 593.533C322.035 593.594 316.807 596.435 310.723 597.177L308.696 594.752C305.637 586.895 308.189 570.111 311.801 562.546C314.528 556.835 317.899 553.597 323.785 551.554Z"/>
	<path fill="#231F20" d="M383.788 541.217L387.619 541.293C392.418 541.998 396.161 545.199 398.879 549.046C405.915 559.007 407.451 575.093 405.547 586.747C397.111 585.615 389.439 585.579 381.06 587.106C376.849 587.926 369.347 588.754 366.001 591.503L364.602 592.355L363.765 592.006L362.189 586.533C361.376 573.855 361.659 557.606 370.67 547.605C374.4 543.467 378.316 541.55 383.788 541.217Z"/>
</svg>
