<svg xmlns="http://www.w3.org/2000/svg" version="1.1" xmlns:xlink="http://www.w3.org/1999/xlink" xmlns:svgjs="http://svgjs.dev/svgjs" viewBox="0 0 800 800"><defs><linearGradient x1="50%" y1="0%" x2="50%" y2="100%" id="ccchaos-grad"><stop stop-color="hsl(206, 75%, 49%)" stop-opacity="1" offset="0%"></stop><stop stop-color="hsl(331, 90%, 56%)" stop-opacity="1" offset="100%"></stop></linearGradient></defs><g stroke-width="2" stroke="hsl(0, 0%, 85%)" fill="none" stroke-linecap="round"><path d="M409.19 102.69C419.28 104.75 429.58 107.68 440.07 111.34 450.58 115.19 461.29 119.54 472.14 124.25 482.98 128.82 493.93 133.56 504.88 138.37 515.74 142.78 526.5 147.17 536.99 151.48 547.21 155.3 556.97 159.06 566.07 162.75 574.62 166 582.27 169.28 588.82 172.63 596.83 177.28 605.13 187.56 605.66 193.5 604.9 199.88 602.88 215.2 604.06 224.19 606.99 230.5 611.61 237.3 618.1 244.53 626.78 251.91 637.22 259.7 649.11 267.84 662.12 276.11 675.42 284.68 688.2 293.5 699.89 302.41 709.45 311.52 716.1 320.78 719.75 330.08 719.71 339.5 715.92 348.99 709.29 358.49 699.87 368.03 688.52 377.57 676.93 387.11 665.82 396.42 656.2 405.48 649.13 414.54 644.73 423.37 643.13 431.97 644.63 440.61 648.37 449.05 653.69 457.33 660.45 465.69 667.26 473.95 673.32 482.14 678.59 490.51 681.85 498.9 682.75 507.34 681.6 516.06 677.81 524.93 671.56 533.98 663.41 543.38 653.36 553.02 641.88 562.92 629.48 573.15 616.45 583.62 603.22 594.26 590.09 605.11 577.33 616.01 565.13 626.81 553.6 637.54 542.81 647.92 532.75 657.76 523.45 667.1 514.76 675.58 506.55 682.98 498.91 689.46 491.52 694.57 484.23 698.17 477.27 700.61 470.2 701.44 462.94 700.64 455.79 698.82 448.32 695.59 440.46 691.09 432.63 686.14 424.36 680.43 415.65 674.25 406.93 668.48 397.76 662.87 388.16 657.7 378.57 653.77 368.81 650.8 358.94 648.87 349.11 648.42 339.22 648.94 329.34 650.29 319.56 652.79 309.85 655.72 300.3 658.83 290.92 662.43 281.78 665.71 272.96 668.43 264.38 670.94 256.21 672.49 248.52 672.94 241.12 672.72 234.24 671.21 227.95 668.42 221.9 664.79 216.4 659.91 211.45 653.87 206.6 647.1 202.18 639.34 198.11 630.75 193.88 621.65 189.83 611.94 185.86 601.76 181.46 591.33 176.98 580.62 172.36 569.74 167.17 558.81 161.81 547.82 156.31 536.87 150.38 525.97 144.46 515.15 138.7 504.44 132.88 493.83 127.51 483.33 122.76 472.97 118.41 462.69 114.93 452.52 112.47 442.47 110.62 432.46 109.83 422.55 110.07 412.73 110.77 402.94 112.29 393.21 114.47 383.58 116.6 373.95 118.99 364.63 121.46 355.63 123.4 346.63 125.24 337.95 126.92 329.6 127.98 321.25 128.99 313.25 130.02 305.6 130.73 297.96 131.74 290.67 133.19 283.76 134.78 276.83 137.09 270.25 140.19 264.03 143.77 257.75 148.28 251.78 153.68 246.12 159.63 240.32 166.41 234.76 173.9 229.41 181.77 223.82 190.17 218.37 198.95 213 207.82 207.32 216.89 201.65 226.06 195.98 235.07 189.93 244.07 183.83 253.01 177.7 261.67 171.2 270.26 164.69 278.8 158.22 287.04 151.51 295.27 144.93 303.55 138.6 311.59 132.24 319.75 126.29 328.08 120.87 336.25 115.69 344.66 111.23 353.34 107.6 361.94 104.46 370.87 102.29 380.17 101.15 389.42 100.61 399.09 101.12 409.18 102.69" stroke-dasharray="5 1" transform="rotate(0, 400, 400)" opacity="0.93"></path><path d="M415.57 113.36C425.42 115.4 435.4 118.26 445.48 121.83 455.58 125.59 465.76 129.85 475.98 134.48 486.16 138.99 496.31 143.69 506.33 148.49 516.21 152.94 525.83 157.38 535.05 161.77 543.95 165.7 552.26 169.57 559.83 173.38 569.93 178.45 584.04 188.31 587.77 193.37 589.68 198.42 589.56 210.08 589.08 216.89 589.73 221.63 591.15 226.84 593.71 232.49 598.03 238.25 603.94 244.47 611.53 251.11 620.97 257.87 631.83 265.03 643.75 272.54 656.39 280.15 668.99 288.09 680.81 296.29 691.39 304.57 699.81 313.08 705.43 321.77 708.27 330.5 707.71 339.38 703.74 348.37 697.25 357.38 688.24 366.47 677.48 375.61 666.5 384.76 655.9 393.74 646.58 402.54 639.51 411.35 634.79 419.99 632.59 428.48 633.25 437.01 636.02 445.41 640.39 453.72 646.3 462.11 652.51 470.47 658.31 478.82 663.7 487.32 667.5 495.9 669.34 504.56 669.49 513.46 667.27 522.52 662.77 531.76 656.47 541.28 648.22 551.01 638.4 560.93 627.49 571.1 615.66 581.42 603.33 591.82 590.79 602.32 578.28 612.76 566.05 623 554.21 633.07 542.91 642.71 532.19 651.73 522.07 660.21 512.52 667.8 503.46 674.31 494.93 679.94 486.74 684.26 478.78 687.14 471.16 688.99 463.58 689.36 455.97 688.25 448.52 686.25 440.9 682.99 433.04 678.6 425.23 673.86 417.12 668.45 408.7 662.62 400.27 657.2 391.5 651.92 382.41 647.03 373.31 643.27 364.13 640.36 354.91 638.38 345.72 637.75 336.53 637.99 327.43 638.99 318.41 641.08 309.52 643.59 300.85 646.31 292.33 649.54 284.09 652.55 276.21 655.11 268.52 657.57 261.26 659.23 254.47 659.94 247.9 660.11 241.82 659.15 236.26 657.03 230.86 654.18 225.92 650.16 221.43 645.06 216.92 639.26 212.73 632.5 208.79 624.9 204.6 616.79 200.48 608.01 196.36 598.71 191.78 589.11 187.07 579.16 182.2 568.96 176.79 558.64 171.23 548.2 165.56 537.72 159.53 527.24 153.57 516.78 147.82 506.39 142.09 496.05 136.85 485.8 132.27 475.67 128.12 465.6 124.86 455.63 122.6 445.8 120.96 436 120.36 426.31 120.76 416.74 121.61 407.18 123.23 397.73 125.51 388.41 127.74 379.08 130.2 370.08 132.73 361.42 134.76 352.75 136.66 344.42 138.39 336.43 139.51 328.43 140.52 320.76 141.52 313.45 142.15 306.12 143.01 299.13 144.23 292.48 145.52 285.8 147.44 279.43 150.08 273.38 153.14 267.24 157.06 261.37 161.84 255.75 167.17 249.98 173.32 244.39 180.22 238.97 187.55 233.31 195.47 227.74 203.85 222.24 212.43 216.42 221.29 210.61 230.34 204.78 239.34 198.61 248.4 192.4 257.47 186.18 266.34 179.64 275.17 173.12 283.95 166.67 292.5 160.03 301.02 153.57 309.55 147.38 317.87 141.21 326.26 135.47 334.74 130.26 343.09 125.33 351.6 121.09 360.32 117.67 368.96 114.73 377.86 112.72 387.06 111.7 396.22 111.25 405.72 111.8 415.56 113.36" stroke-dasharray="5 3" transform="rotate(4.04, 400, 400)" opacity="0.76"></path><path d="M420.13 124.04C429.68 126.03 439.27 128.83 448.86 132.31 458.44 135.97 468 140.13 477.46 144.66 486.87 149.11 496.12 153.76 505.11 158.53 513.93 162.99 522.37 167.47 530.3 171.91 537.91 175.94 544.86 179.92 551.03 183.85 559.15 189.11 569.94 199.23 572.62 204.33 574.13 209.32 575.14 220.51 576.14 226.92 577.99 231.32 580.74 236.14 584.66 241.36 590.23 246.65 597.23 252.36 605.68 258.47 615.64 264.67 626.68 271.26 638.41 278.19 650.53 285.21 662.32 292.55 673.12 300.18 682.59 307.86 689.92 315.8 694.58 323.95 696.67 332.13 695.65 340.5 691.55 349.02 685.22 357.55 676.63 366.22 666.44 374.99 656.06 383.76 645.97 392.43 636.96 400.99 629.93 409.55 624.97 418.03 622.24 426.4 622.12 434.82 623.99 443.19 627.42 451.5 632.45 459.91 637.96 468.33 643.36 476.78 648.66 485.38 652.78 494.07 655.31 502.86 656.5 511.86 655.64 521 652.7 530.31 648.13 539.83 641.65 549.51 633.55 559.31 624.27 569.29 613.87 579.33 602.72 589.35 591.12 599.39 579.26 609.27 567.4 618.86 555.68 628.21 544.25 637.06 533.24 645.23 522.63 652.85 512.5 659.57 502.82 665.21 493.58 670.03 484.71 673.62 476.14 675.86 467.89 677.17 459.8 677.14 451.8 675.77 443.98 673.64 436.12 670.38 428.17 666.13 420.29 661.61 412.25 656.49 404.02 651.02 395.79 645.94 387.36 640.98 378.71 636.35 370.06 632.77 361.41 629.93 352.81 627.9 344.24 627.11 335.75 627.1 327.4 627.78 319.13 629.48 311.04 631.58 303.22 633.91 295.52 636.77 288.12 639.48 281.11 641.85 274.24 644.21 267.79 645.9 261.78 646.79 253.2 647 238.32 641.4 231.84 635.52 227.53 630.65 223.42 624.83 219.47 618.19 215.19 611.05 210.92 603.22 206.58 594.83 201.76 586.11 196.8 576.98 191.67 567.53 186.05 557.93 180.3 548.13 174.5 538.22 168.41 528.26 162.46 518.27 156.77 508.3 151.17 498.34 146.11 488.44 141.73 478.63 137.82 468.85 134.8 459.16 132.76 449.6 131.35 440.06 130.93 430.63 131.48 421.34 132.46 412.05 134.19 402.89 136.55 393.86 138.85 384.83 141.38 376.14 143.97 367.79 146.08 359.43 148.05 351.4 149.85 343.72 151.03 336.01 152.08 328.63 153.07 321.59 153.66 314.51 154.42 307.74 155.46 301.29 156.49 294.78 158.06 288.56 160.27 282.61 162.83 276.55 166.19 270.71 170.35 265.09 175.02 259.3 180.51 253.66 186.75 248.14 193.45 242.38 200.79 236.69 208.65 231.04 216.79 225.1 225.29 219.15 234.06 213.2 242.89 206.93 251.86 200.65 260.9 194.37 269.83 187.83 278.78 181.33 287.7 174.95 296.45 168.42 305.19 162.11 313.91 156.09 322.46 150.13 331.05 144.62 339.68 139.65 348.2 134.96 356.82 130.96 365.57 127.76 374.26 125.01 383.13 123.16 392.21 122.26 401.27 121.89 410.57 122.48 420.12 124.03" stroke-dasharray="7 8" transform="rotate(8.08, 400, 400)" opacity="1.00"></path><path d="M422.34 134.71C431.54 136.67 440.66 139.39 449.68 142.76 458.68 146.33 467.54 150.38 476.2 154.8 484.78 159.16 493.09 163.75 501.03 168.47 508.8 172.93 516.1 177.42 522.83 181.91 529.27 186.02 535.03 190.1 540.03 194.13 546.58 199.58 555.11 210.02 557.32 215.2 558.99 220.2 561.96 231.1 564.62 237.2 567.69 241.35 571.71 245.85 576.86 250.72 583.49 255.62 591.36 260.9 600.43 266.56 610.67 272.27 621.66 278.34 633.03 284.76 644.48 291.24 655.37 298.04 665.12 305.14 673.5 312.28 679.78 319.69 683.53 327.33 684.95 335 683.53 342.89 679.34 350.97 673.2 359.05 665.02 367.31 655.4 375.72 645.6 384.14 636.02 392.51 627.35 400.83 620.4 409.17 615.25 417.46 612.07 425.72 611.25 434.02 612.26 442.32 614.79 450.62 618.91 459 623.67 467.43 628.55 475.92 633.59 484.53 637.79 493.25 640.77 502.08 642.76 511.06 643 520.18 641.41 529.42 638.4 538.82 633.6 548.32 627.19 557.89 619.59 567.54 610.76 577.18 600.99 586.72 590.61 596.19 579.72 605.43 568.59 614.31 557.37 622.88 546.22 630.91 535.28 638.23 524.56 644.99 514.18 650.86 504.16 655.69 494.47 659.75 485.13 662.66 476.1 664.32 467.35 665.17 458.82 664.79 450.47 663.21 442.3 660.99 434.19 657.77 426.12 653.68 418.13 649.38 410.1 644.57 402.01 639.43 393.93 634.69 385.76 630.04 377.5 625.68 369.23 622.26 361.07 619.49 353.05 617.44 345.04 616.51 337.19 616.28 329.55 616.66 321.95 617.98 314.6 619.7 307.55 621.64 300.58 624.13 293.93 626.53 287.67 628.67 278.6 631.71 262.53 634.12 255.49 632.95 248.71 630.08 236.13 618.8 229.96 610.6 225.51 604.4 221.01 597.5 216.4 590.02 211.32 582.2 206.09 573.92 200.71 565.29 194.91 556.45 189.02 547.37 183.13 538.12 177.05 528.78 171.15 519.35 165.58 509.88 160.16 500.4 155.31 490.93 151.18 481.52 147.53 472.11 144.76 462.78 142.97 453.55 141.77 444.33 141.54 435.21 142.24 426.22 143.35 417.24 145.17 408.37 147.59 399.65 149.96 390.92 152.54 382.52 155.18 374.46 157.36 366.38 159.41 358.63 161.27 351.2 162.53 343.75 163.65 336.61 164.67 329.77 165.25 322.89 165.95 316.3 166.85 309.99 167.67 303.6 168.96 297.46 170.79 291.56 172.88 285.53 175.7 279.7 179.26 274.03 183.28 268.19 188.08 262.47 193.63 256.84 199.63 250.98 206.3 245.17 213.54 239.39 221.11 233.33 229.11 227.28 237.46 221.22 245.95 214.9 254.65 208.57 263.49 202.28 272.33 195.77 281.22 189.35 290.14 183.06 298.96 176.69 307.78 170.55 316.59 164.74 325.28 159.01 333.98 153.74 342.69 149.02 351.32 144.59 359.99 140.84 368.74 137.85 377.43 135.31 386.24 133.61 395.16 132.83 404.07 132.54 413.13 133.17 422.33 134.71" stroke-dasharray="0 10" transform="rotate(12.12, 400, 400)" opacity="0.24"></path><path d="M421.93 145.38C430.72 147.3 439.33 149.94 447.74 153.2 456.13 156.66 464.27 160.59 472.11 164.89 479.87 169.16 487.27 173.66 494.23 178.32 501.03 182.75 507.32 187.25 513.01 191.76 520.88 198.01 532.84 209.84 536.92 215.45 540.19 220.62 544.75 230.97 546.91 236.36 550.25 241.74 561.45 253.73 570.24 260.45 577.71 265.04 586.21 269.97 595.64 275.24 605.92 280.53 616.66 286.18 627.49 292.15 638.16 298.15 648.1 304.47 656.79 311.1 664.1 317.74 669.39 324.67 672.31 331.86 673.12 339.06 671.37 346.5 667.13 354.17 661.19 361.83 653.42 369.71 644.36 377.78 635.14 385.86 626.06 393.95 617.74 402.03 610.91 410.12 605.62 418.23 602.06 426.35 600.62 434.51 600.85 442.7 602.52 450.93 605.75 459.23 609.71 467.61 613.96 476.06 618.6 484.61 622.7 493.27 625.9 502.02 628.41 510.89 629.5 519.86 629.03 528.91 627.37 538.07 624.07 547.27 619.25 556.46 613.31 565.68 606.08 574.82 597.82 583.78 588.84 592.61 579.17 601.14 569.06 609.25 558.68 617.03 548.15 624.22 537.64 630.7 527.18 636.63 516.89 641.68 506.86 645.75 497.02 649.12 487.47 651.4 478.21 652.56 469.15 652.99 460.34 652.33 451.75 650.59 443.31 648.33 435.02 645.18 426.86 641.25 418.77 637.19 410.74 632.68 402.76 627.88 394.8 623.46 386.85 619.11 378.92 615.01 370.99 611.75 363.25 609.07 355.73 607.01 348.21 605.95 340.92 605.51 333.89 605.62 326.88 606.6 320.16 607.95 313.75 609.52 307.39 611.64 301.36 613.71 295.68 615.59 287.4 618.4 272.55 621.06 265.88 620.39 259.29 618.28 246.54 609.1 240.08 602.14 235.39 596.83 230.61 590.82 225.71 584.23 220.37 577.31 214.9 569.9 209.31 562.09 203.36 554.07 197.39 545.75 191.48 537.21 185.45 528.56 179.67 519.76 174.26 510.88 169.07 501.95 164.48 492.99 160.62 484.04 157.26 475.09 154.77 466.17 153.22 457.32 152.25 448.49 152.2 439.72 153.04 431.07 154.26 422.42 156.16 413.87 158.62 405.45 161.05 397.03 163.67 388.92 166.36 381.13 168.6 373.32 170.72 365.82 172.66 358.61 174.02 351.38 175.21 344.43 176.28 337.76 176.9 331.04 177.57 324.57 178.39 318.35 179.06 312.04 180.1 305.95 181.61 300.05 183.3 294.03 185.62 288.17 188.61 282.44 192 276.54 196.12 270.73 200.95 264.99 206.23 259.04 212.17 253.12 218.71 247.23 225.6 241.09 232.98 234.96 240.76 228.85 248.75 222.5 257.03 216.18 265.51 209.92 274.06 203.49 282.74 197.18 291.47 191.03 300.2 184.84 308.95 178.92 317.69 173.33 326.38 167.87 335.08 162.86 343.76 158.4 352.39 154.23 361.03 150.73 369.68 147.96 378.31 145.62 386.97 144.08 395.68 143.41 404.37 143.2 413.13 143.86 421.92 145.38" stroke-dasharray="3 3" transform="rotate(16.16, 400, 400)" opacity="0.47"></path><path d="M418.95 156.06C427.29 157.92 435.36 160.48 443.15 163.63 450.91 166.97 458.35 170.77 465.42 174.94 472.42 179.1 479 183.51 485.1 188.08 491.08 192.47 496.54 196.95 501.42 201.45 508.21 207.78 518.64 219.87 522.41 225.64 525.8 230.98 531.83 241.58 535.29 247 538.36 250.5 541.95 254.2 546.21 258.12 551.49 261.95 557.62 266.06 564.66 270.44 572.73 274.78 581.61 279.43 591.16 284.4 601.27 289.35 611.58 294.63 621.74 300.22 631.54 305.82 640.48 311.73 648.12 317.94 654.39 324.15 658.75 330.65 660.92 337.42 661.19 344.2 659.16 351.23 654.92 358.51 649.19 365.79 641.84 373.31 633.32 381.05 624.66 388.8 616.08 396.6 608.12 404.44 601.44 412.28 596.08 420.19 592.21 428.13 590.23 436.11 589.75 444.15 590.61 452.25 592.97 460.41 596.11 468.66 599.68 476.98 603.79 485.38 607.61 493.87 610.82 502.44 613.63 511.09 615.3 519.8 615.7 528.55 615.14 537.35 613.15 546.14 609.76 554.87 605.36 563.55 599.71 572.09 592.97 580.4 585.48 588.53 577.18 596.31 568.29 603.63 559.01 610.6 549.39 616.97 539.62 622.62 529.75 627.75 519.9 632.04 510.16 635.4 500.5 638.13 491.03 639.87 481.78 640.57 472.67 640.67 463.78 639.77 455.11 637.92 446.57 635.65 438.2 632.59 430.01 628.86 421.89 625.04 413.9 620.82 406.04 616.35 398.2 612.24 390.46 608.19 382.81 604.33 375.16 601.25 367.78 598.64 360.68 596.58 353.58 595.43 346.75 594.8 340.22 594.66 333.69 595.33 327.46 596.32 321.56 597.54 312.87 600.16 297.07 605.16 289.92 606.87 282.92 607.86 269.74 606.05 263.32 603.04 258.78 600.39 254.24 596.98 249.65 592.85 244.69 588.35 239.62 583.19 234.44 577.44 228.87 571.39 223.19 564.83 217.43 557.85 211.41 550.66 205.42 543.12 199.55 535.33 193.64 527.41 188.04 519.29 182.86 511.04 177.94 502.73 173.65 494.34 170.09 485.92 167.03 477.48 164.82 469.03 163.52 460.62 162.78 452.21 162.9 443.84 163.87 435.55 165.2 427.27 167.16 419.07 169.66 410.96 172.12 402.86 174.78 395.04 177.5 387.5 179.8 379.95 181.99 372.68 184.01 365.67 185.46 358.64 186.75 351.85 187.9 345.32 188.58 338.72 189.27 332.35 190.04 326.19 190.62 319.94 191.49 313.87 192.73 307.96 194.07 301.93 195.96 296.02 198.44 290.23 201.23 284.27 204.71 278.38 208.84 272.55 213.38 266.52 218.56 260.52 224.34 254.55 230.49 248.37 237.16 242.21 244.26 236.08 251.62 229.76 259.32 223.49 267.27 217.31 275.37 211.01 283.65 204.84 292.04 198.88 300.48 192.91 308.99 187.22 317.51 181.89 326.04 176.7 334.57 171.97 343.08 167.79 351.58 163.89 360.07 160.64 368.53 158.09 376.97 155.94 385.41 154.57 393.82 154 402.22 153.87 410.61 154.56 418.94 156.05" stroke-dasharray="9 11" transform="rotate(20.200000000000003, 400, 400)" opacity="0.57"></path><path d="M413.76 166.73C421.6 168.55 429.13 171.01 436.32 174.04 443.48 177.26 450.28 180.93 456.67 184.96 463 188.99 468.89 193.28 474.32 197.75 479.65 202.08 484.49 206.51 488.82 210.99 494.93 217.35 504.72 229.64 508.64 235.56 512.53 241.07 520.56 251.93 525.41 257.43 529.46 260.96 534.06 264.65 539.3 268.53 545.44 272.29 552.33 276.28 559.96 280.52 568.39 284.69 577.41 289.14 586.84 293.85 596.59 298.55 606.31 303.53 615.68 308.81 624.56 314.07 632.48 319.64 639.08 325.48 644.38 331.32 647.88 337.45 649.37 343.85 649.17 350.25 646.92 356.91 642.7 363.83 637.2 370.75 630.27 377.93 622.28 385.36 614.17 392.78 606.09 400.29 598.5 407.87 592.01 415.45 586.62 423.12 582.52 430.85 580.07 438.6 578.96 446.44 579.07 454.35 580.6 462.3 582.93 470.34 585.76 478.45 589.26 486.6 592.67 494.84 595.71 503.12 598.58 511.44 600.6 519.79 601.61 528.13 601.9 536.47 600.97 544.76 598.81 552.92 595.79 561 591.58 568.88 586.31 576.48 580.31 583.87 573.45 590.88 565.89 597.39 557.87 603.56 549.38 609.12 540.59 613.98 531.58 618.36 522.45 621.95 513.29 624.66 504.11 626.82 495 628.08 486.03 628.4 477.12 628.21 468.38 627.13 459.83 625.22 451.36 622.96 443.07 620.02 434.97 616.49 426.92 612.92 419.04 609 411.33 604.85 403.64 601.04 396.1 597.27 388.71 593.66 381.32 590.74 374.24 588.23 367.48 586.18 360.71 584.94 354.24 584.15 348.09 583.79 338.98 584.5 322.27 587.82 314.62 589.85 307.16 592.03 293.22 594.59 286.59 594.52 279.74 593.49 265.81 587.63 258.52 582.79 253.29 579.01 247.95 574.62 242.52 569.66 236.77 564.42 230.94 558.68 225.1 552.51 219.08 546.13 213.14 539.38 207.38 532.34 201.66 525.17 196.3 517.76 191.4 510.18 186.8 502.53 182.83 494.75 179.59 486.9 176.85 479.01 174.94 471.08 173.89 463.15 173.36 455.2 173.66 447.27 174.75 439.38 176.16 431.49 178.18 423.65 180.7 415.87 183.19 408.1 185.86 400.57 188.6 393.29 190.95 386 193.2 378.94 195.3 372.12 196.86 365.27 198.25 358.64 199.49 352.21 200.27 345.74 201.01 339.44 201.79 333.32 202.32 327.12 203.07 321.06 204.11 315.14 205.18 309.1 206.71 303.16 208.74 297.3 211 291.3 213.87 285.36 217.34 279.46 221.16 273.4 225.6 267.36 230.61 261.36 235.97 255.18 241.86 249.03 248.21 242.93 254.83 236.69 261.84 230.53 269.14 224.47 276.64 218.33 284.36 212.37 292.24 206.62 300.23 200.9 308.32 195.48 316.46 190.42 324.65 185.53 332.86 181.1 341.06 177.19 349.28 173.57 357.47 170.57 365.62 168.24 373.77 166.29 381.88 165.06 389.91 164.6 397.95 164.55 405.9 165.25 413.75 166.73" stroke-dasharray="9 10" transform="rotate(24.24, 400, 400)" opacity="0.72"></path><path d="M406.95 177.4C414.29 179.16 421.28 181.53 427.92 184.44 434.53 187.53 440.76 191.05 446.59 194.93 452.38 198.83 457.75 202.98 462.68 207.34 467.57 211.58 472.02 215.94 476.04 220.37 481.85 226.73 491.77 239.15 496.18 245.18 500.85 250.84 511.13 261.99 517.35 267.58 522.28 271.16 527.74 274.88 533.79 278.75 540.58 282.49 547.99 286.42 555.95 290.56 564.5 294.62 573.42 298.92 582.53 303.45 591.75 307.95 600.75 312.7 609.25 317.72 617.17 322.72 624.08 327.99 629.69 333.53 634.07 339.06 636.78 344.86 637.66 350.93 637.06 356.99 634.64 363.32 630.48 369.91 625.23 376.49 618.71 383.34 611.24 390.46 603.66 397.57 596.08 404.78 588.87 412.07 582.59 419.37 577.23 426.77 572.96 434.23 570.12 441.72 568.46 449.3 567.9 456.94 568.65 464.62 570.18 472.37 572.27 480.17 575.1 488.01 577.99 495.89 580.7 503.78 583.45 511.69 585.59 519.58 586.95 527.42 587.84 535.23 587.72 542.93 586.55 550.46 584.69 557.88 581.75 565.06 577.83 571.92 573.24 578.55 567.78 584.77 561.58 590.5 554.89 595.88 547.65 600.68 539.98 604.8 532.04 608.48 523.84 611.42 515.49 613.55 507.04 615.21 498.55 616.05 490.09 616.06 481.63 615.63 473.26 614.43 465.03 612.49 456.83 610.28 448.78 607.48 440.9 604.16 433.06 600.84 425.38 597.2 417.88 593.37 410.39 589.85 403.07 586.36 395.93 582.99 388.79 580.23 381.97 577.81 375.48 575.79 368.97 574.48 362.77 573.56 356.88 573 348.15 573.3 332.01 575.64 324.54 577.22 317.16 579.04 303.06 581.31 296.18 581.36 289.02 580.67 274.29 576.03 266.58 572.02 261.11 568.88 255.56 565.17 249.94 560.93 244.08 556.44 238.19 551.46 232.35 546.05 226.39 540.45 220.59 534.47 215.02 528.17 209.56 521.74 204.49 515.05 199.91 508.15 195.67 501.17 192.05 494.03 189.16 486.77 186.75 479.47 185.13 472.09 184.33 464.66 184.02 457.22 184.47 449.75 185.67 442.28 187.16 434.81 189.21 427.35 191.74 419.92 194.24 412.49 196.92 405.26 199.66 398.24 202.05 391.21 204.36 384.38 206.53 377.74 208.2 371.07 209.7 364.59 211.05 358.27 211.94 351.91 212.77 345.69 213.59 339.62 214.13 333.47 214.83 327.43 215.74 321.5 216.61 315.47 217.84 309.52 219.5 303.63 221.32 297.62 223.65 291.65 226.52 285.73 229.68 279.67 233.4 273.64 237.66 267.65 242.23 261.53 247.32 255.45 252.87 249.44 258.7 243.33 264.93 237.31 271.49 231.42 278.26 225.51 285.3 219.77 292.55 214.27 299.92 208.84 307.45 203.71 315.06 198.95 322.75 194.37 330.49 190.23 338.24 186.62 346.03 183.28 353.8 180.53 361.52 178.41 369.27 176.66 376.95 175.58 384.53 175.22 392.13 175.23 399.61 175.96 406.94 177.4" stroke-dasharray="3 3" transform="rotate(28.28, 400, 400)" opacity="0.45"></path><path d="M399.34 188.07C406.16 189.78 412.65 192.05 418.8 194.83 424.93 197.78 430.7 201.15 436.1 204.86 441.47 208.61 446.48 212.62 451.11 216.84 457.86 223.11 469.75 235.91 475.06 242.3 480.39 248.38 491.1 260.27 496.91 266.11 501.3 269.8 505.99 273.55 511.07 277.37 516.73 281.02 522.86 284.78 529.49 288.66 536.7 292.41 544.37 296.32 552.43 300.4 560.86 304.39 569.47 308.59 578.09 313 586.64 317.34 594.83 321.93 602.41 326.74 609.35 331.53 615.26 336.56 619.93 341.84 624.46 349.87 623.61 367.18 618.27 376.47 613.28 382.75 607.16 389.28 600.2 396.08 593.14 402.87 586.04 409.77 579.23 416.76 573.19 423.75 567.91 430.84 563.52 438 560.38 445.18 558.26 452.43 557.1 459.75 557.13 467.08 557.91 474.47 559.27 481.89 561.38 489.32 563.68 496.77 565.94 504.19 568.41 511.61 570.47 518.97 571.97 526.24 573.2 533.45 573.64 540.51 573.21 547.36 572.26 554.08 570.38 560.53 567.61 566.63 564.28 572.51 560.11 577.97 555.21 582.93 549.84 587.57 543.87 591.64 537.4 595.07 530.63 598.12 523.5 600.48 516.12 602.11 508.58 603.33 500.9 603.82 493.15 603.57 485.35 602.96 477.55 601.68 469.81 599.75 462.07 597.62 454.42 594.97 446.89 591.87 439.38 588.8 432.01 585.45 424.79 581.92 417.58 578.68 410.52 575.45 403.63 572.31 396.73 569.72 390.15 567.4 383.88 565.41 374.59 563.53 357.36 562.21 349.35 562.54 341.48 563.65 326.55 566.21 319.36 567.24 312.03 568.08 297.31 567.68 289.78 566.21 284.49 564.89 279.15 563.04 273.76 560.65 268.12 558.06 262.43 554.94 256.71 551.32 250.82 547.5 244.97 543.21 239.21 538.5 233.42 533.63 227.83 528.37 222.53 522.79 217.39 517.08 212.66 511.09 208.45 504.86 204.59 498.55 201.35 492.05 198.81 485.39 196.74 478.7 195.41 471.88 194.85 464.97 194.74 458.05 195.34 451.06 196.63 444.04 198.18 437.01 200.26 429.95 202.78 422.88 205.27 415.81 207.94 408.89 210.68 402.14 213.11 395.39 215.46 388.78 217.69 382.33 219.46 375.86 221.08 369.53 222.54 363.33 223.56 357.09 224.5 350.97 225.4 344.95 226 338.88 226.69 332.89 227.54 326.98 228.28 320.99 229.31 315.05 230.68 309.17 232.13 303.19 234.02 297.25 236.37 291.36 238.93 285.35 242 279.39 245.55 273.47 249.38 267.45 253.69 261.5 258.44 255.63 263.46 249.7 268.87 243.88 274.64 238.21 280.62 232.55 286.9 227.09 293.4 221.87 300.06 216.74 306.9 211.93 313.87 207.49 320.93 203.23 328.08 199.4 335.26 196.08 342.49 193.02 349.74 190.52 356.94 188.62 364.18 187.05 371.35 186.12 378.43 185.85 385.52 185.93 392.5 186.67 399.33 188.07" stroke-dasharray="2 8" transform="rotate(32.32, 400, 400)" opacity="0.34"></path><path d="M391.79 198.75C398.12 200.38 404.16 202.56 409.88 205.2 415.6 208.01 421.01 211.22 426.1 214.76 431.19 218.35 435.98 222.2 440.47 226.26 444.98 230.26 449.23 234.42 453.25 238.67 459.31 244.89 471.03 257.32 476.99 263.46 481.26 267.37 485.68 271.3 490.32 275.26 495.36 279.03 500.72 282.85 506.44 286.73 512.63 290.45 519.21 294.25 526.17 298.16 533.56 301.94 541.25 305.85 549.16 309.9 557.28 313.86 565.4 318 573.37 322.31 581.15 326.55 588.46 331 595.09 335.66 601.06 340.28 606.03 345.12 609.82 350.18 613.25 357.86 611.32 374.38 606.06 383.23 601.34 389.21 595.63 395.44 589.16 401.91 582.61 408.38 575.99 414.96 569.58 421.61 563.81 428.27 558.64 435.02 554.21 441.83 550.84 448.64 548.32 455.53 546.65 462.45 546.04 469.38 546.13 476.34 546.77 483.31 548.17 490.27 549.83 497.22 551.57 504.11 553.62 510.97 555.44 517.75 556.88 524.39 558.22 530.96 558.97 537.35 559.04 543.5 558.22 552.36 552.05 568.07 546.79 574.67 542.65 578.61 537.89 582.02 532.6 584.83 527.01 587.3 521.01 589.15 514.67 590.35 508.15 591.2 501.4 591.4 494.49 590.95 487.5 590.22 480.42 588.89 473.32 587.01 466.19 584.98 459.07 582.5 452.02 579.62 444.97 576.8 437.99 573.73 431.13 570.49 424.27 567.53 417.52 564.55 410.9 561.64 404.27 559.2 397.92 556.99 391.84 555.05 382.82 553.09 365.91 551.25 357.95 551.18 350.06 551.84 334.87 553.58 327.43 554.3 319.83 554.94 304.45 554.59 296.57 553.38 291.1 552.31 285.59 550.78 280.05 548.79 274.33 546.64 268.59 544.01 262.88 540.93 257.07 537.69 251.35 534.02 245.77 529.94 240.23 525.72 234.93 521.13 229.96 516.21 225.19 511.18 220.86 505.85 217.05 500.27 213.59 494.62 210.74 488.74 208.57 482.69 206.82 476.59 205.78 470.34 205.45 463.96 205.53 457.57 206.26 451.07 207.63 444.5 209.23 437.93 211.32 431.28 213.82 424.59 216.29 417.9 218.94 411.31 221.66 404.85 224.1 398.38 226.49 392.02 228.78 385.78 230.64 379.52 232.37 373.36 233.95 367.3 235.11 361.21 236.18 355.2 237.19 349.28 237.88 343.31 238.63 337.4 239.47 331.55 240.15 325.63 241.06 319.77 242.23 313.95 243.4 308.05 244.94 302.19 246.87 296.38 248.93 290.48 251.42 284.63 254.36 278.85 257.5 273 261.08 267.22 265.09 261.55 269.31 255.85 273.93 250.28 278.89 244.88 284.05 239.5 289.52 234.34 295.25 229.45 301.13 224.65 307.21 220.17 313.46 216.05 319.8 212.12 326.27 208.61 332.79 205.58 339.39 202.8 346.02 200.55 352.63 198.86 359.29 197.47 365.9 196.67 372.44 196.5 379 196.63 385.46 197.38 391.78 198.75" stroke-dasharray="1 7" transform="rotate(36.36, 400, 400)" opacity="0.61"></path><path d="M385.21 209.42C391.07 210.99 396.7 213.05 402.08 215.56 407.45 218.22 412.59 221.26 417.48 224.62 427.29 231.48 436.28 239.26 444.62 247.6 453.34 255.52 461.92 263.74 470.71 272.1 480.59 279.77 491.35 287.61 503.22 295.6 516.54 303 530.95 310.76 545.93 318.92 561.11 326.72 575.33 335.15 587.26 344.24 596.6 353.16 601.69 362.89 601.73 373.45 600.31 378.71 597.66 384.18 593.86 389.88 589.41 395.57 584.1 401.49 578.12 407.64 572.07 413.78 565.92 420.01 559.91 426.31 554.43 432.61 549.41 438.98 544.99 445.4 538.89 458.24 535.64 471.25 534.82 484.18 536.86 497.04 539.59 509.67 541.91 521.74 544.38 533.44 544.81 544.24 542.82 553.72 539.54 562.37 533.64 569.29 525.53 574.11 516.31 577.77 505.48 579.17 493.6 578.24 481.28 576.43 468.43 572.72 455.48 567.42 448.98 564.84 442.49 562.05 436.05 559.09 429.6 556.39 423.21 553.66 416.89 550.97 410.57 548.69 404.46 546.59 398.57 544.7 392.66 543.29 386.94 542.09 381.41 541.1 370.24 540.51 359.65 540.43 349.52 540.53 339 541.66 328.66 542.23 318.39 541.87 307.51 541.59 296.52 539.85 285.5 536.56 274.02 532.82 262.76 527.41 252.11 520.47 241.82 513.07 232.84 504.3 225.75 494.42 220.03 484.28 216.75 473.25 216.15 461.57 216.39 455.71 217.25 449.71 218.67 443.6 220.31 437.48 222.39 431.26 224.86 424.96 227.3 418.66 229.91 412.42 232.6 406.26 235.04 400.1 237.45 394.01 239.78 387.99 243.26 375.93 246.28 364.11 248.91 352.57 250.26 340.87 251.85 329.32 254.05 317.98 256.05 306.41 259.34 294.98 264.05 283.84 269.31 272.56 276.18 261.67 284.44 251.45 293.35 241.42 303.43 232.37 314.31 224.66 325.6 217.66 337.39 212.37 349.34 209.13 355.37 207.91 361.4 207.25 367.39 207.16 373.39 207.34 379.34 208.09 385.2 209.42" stroke-dasharray="6 4" transform="rotate(40.400000000000006, 400, 400)" opacity="0.41"></path><path d="M380.36 220.09C391.22 223.28 401.41 228.2 410.93 234.46 420.52 240.96 429.63 248.38 438.41 256.39 447.61 264.09 456.94 272.15 466.65 280.39 477.29 288.07 488.76 295.93 501.12 303.94 514.46 311.43 528.46 319.22 542.51 327.35 556.31 335.13 568.82 343.43 578.9 352.3 586.52 360.98 590.26 370.37 589.52 380.47 585.64 390.5 577.86 401.34 567.09 412.95 556.05 424.56 545.22 436.44 535.87 448.41 529.44 460.39 525.36 472.42 523.43 484.27 524.14 496.01 525.72 507.41 527.27 518.16 529.38 528.52 530.06 537.94 528.87 546.04 526.84 553.4 522.59 559.12 516.3 562.93 509.1 565.78 500.24 566.64 490.16 565.44 479.63 563.61 468.34 560.12 456.64 555.27 444.85 550.71 432.87 545.58 420.91 540.29 408.95 536.45 397.54 533.19 386.69 530.62 375.72 529.67 365.11 529.12 354.81 528.74 344.18 529.34 333.63 529.5 323.11 528.93 312.14 528.56 301.13 526.98 290.2 524.07 279.07 520.9 268.32 516.25 258.34 510.22 248.88 503.84 240.8 496.16 234.6 487.39 229.71 478.4 227.09 468.47 226.93 457.82 228 447.1 231.1 435.77 235.9 423.97 240.58 412.17 245.68 400.47 250.69 388.98 254.36 377.45 257.63 366.06 260.52 354.87 262.16 343.56 263.91 332.36 266.07 321.35 267.84 310.18 270.61 299.19 274.55 288.52 278.81 277.81 284.46 267.54 291.39 257.98 298.81 248.67 307.38 240.35 316.82 233.33 326.6 226.99 336.99 222.26 347.7 219.43 358.53 217.59 369.5 217.77 380.35 220.09" stroke-dasharray="1 7" transform="rotate(44.44, 400, 400)" opacity="0.68"></path><path d="M377.81 230.77C387.87 233.79 397.58 238.39 406.92 244.26 416.35 250.38 425.6 257.41 434.79 265.05 444.38 272.47 454.26 280.29 464.59 288.34 475.65 295.95 487.4 303.76 499.76 311.71 512.69 319.23 525.88 327.01 538.7 335.07 550.95 342.82 561.69 350.99 569.99 359.62 576.03 368.09 578.57 377.14 577.21 386.79 573.25 396.38 565.95 406.64 556.05 417.55 545.92 428.46 535.83 439.53 526.83 450.61 520.21 461.66 515.49 472.66 512.6 483.39 512.09 493.98 512.51 504.13 513.17 513.57 514.65 522.64 515.2 530.74 514.38 537.56 511.61 546.08 496.13 553.74 484.15 552.61 475.33 550.8 465.56 547.58 455.15 543.17 444.64 539.08 433.68 534.45 422.48 529.62 411.28 526.03 400.35 522.86 389.75 520.21 379.06 518.95 368.54 518 358.19 517.19 347.61 517.3 337.04 517.05 326.49 516.22 315.68 515.67 304.89 514.13 294.32 511.49 283.76 508.71 273.71 504.66 264.56 499.37 256.04 493.84 248.93 487.11 243.64 479.33 239.56 471.37 237.57 462.47 237.82 452.8 239.12 443.06 242.26 432.65 246.94 421.67 251.52 410.69 256.52 399.69 261.51 388.79 265.32 377.86 268.82 366.98 271.97 356.24 273.94 345.42 275.92 334.68 278.16 324.13 279.87 313.49 282.34 303.05 285.74 292.97 289.23 282.92 293.91 273.35 299.72 264.51 305.86 255.97 313.09 248.39 321.2 242.07 329.57 236.39 338.64 232.21 348.17 229.78 357.8 228.23 367.74 228.52 377.81 230.77" stroke-dasharray="0 7" transform="rotate(48.48, 400, 400)" opacity="0.73"></path><path d="M377.85 241.44C387.2 244.28 396.47 248.58 405.62 254.05 414.88 259.77 424.2 266.37 433.64 273.58 443.42 280.67 453.57 288.19 464.15 295.97 475.24 303.42 486.83 311.09 498.74 318.92 510.89 326.39 522.94 334.09 534.31 342.02 544.91 349.69 553.89 357.71 560.52 366.09 565.14 374.32 566.66 383.03 564.81 392.21 560.86 401.34 554.06 411.01 545.01 421.2 535.77 431.38 526.42 441.61 517.85 451.75 511.18 461.85 506 471.8 502.33 481.37 500.73 490.82 500.04 499.75 499.76 507.92 500.5 519.2 497.71 535.33 492.73 539.42 488.48 541.05 482.76 541.16 475.77 539.75 468.46 538.02 460.11 535.08 450.96 531.12 441.69 527.48 431.8 523.34 421.42 518.95 411.04 515.61 400.7 512.55 390.47 509.86 380.19 508.36 369.93 507.08 359.73 505.89 349.4 505.53 339.03 504.89 328.73 503.78 318.32 503 308.02 501.42 298.06 498.92 288.27 496.4 279.1 492.79 270.91 488.1 263.41 483.25 257.29 477.33 252.89 470.41 249.6 463.36 248.21 455.4 248.81 446.65 250.31 437.85 253.44 428.33 257.98 418.19 262.42 408.05 267.3 397.79 272.22 387.54 276.15 377.28 279.83 367 283.23 356.81 285.53 346.59 287.8 336.43 290.21 326.45 292.01 316.45 294.37 306.67 297.43 297.27 300.42 287.96 304.38 279.16 309.31 271.09 314.42 263.35 320.52 256.53 327.48 250.9 334.62 245.87 342.5 242.22 350.97 240.17 359.5 238.89 368.5 239.28 377.85 241.44" stroke-dasharray="6 6" transform="rotate(52.52, 400, 400)" opacity="0.59"></path><path d="M380.48 252.11C389.17 254.77 398 258.75 406.91 263.8 415.92 269.11 425.15 275.25 434.61 282.01 444.32 288.7 454.41 295.85 464.84 303.28 475.56 310.48 486.59 317.92 497.67 325.53 508.72 332.86 519.39 340.41 529.18 348.15 538.11 355.67 545.41 363.48 550.51 371.56 553.87 379.52 554.54 387.85 552.35 396.54 548.47 405.19 542.18 414.25 533.97 423.69 525.59 433.13 517.01 442.5 508.92 451.67 502.34 460.82 496.87 469.7 492.6 478.15 490.09 486.48 488.4 494.23 487.19 501.22 485.13 517.44 473.65 528.35 465.49 526.89 459.43 525.29 452.31 522.65 444.31 519.13 436.21 515.92 427.36 512.24 417.86 508.27 408.35 505.19 398.69 502.27 388.98 499.59 379.26 497.9 369.45 496.34 359.64 494.83 349.78 494.06 339.89 493.06 330.1 491.67 320.33 490.64 310.77 488.96 301.63 486.52 292.79 484.13 284.64 480.83 277.5 476.61 271.06 472.3 265.94 467.04 262.41 460.87 259.85 454.61 259 447.5 259.91 439.61 261.56 431.67 264.66 423.02 269.02 413.72 273.29 404.42 278.01 394.93 282.83 385.4 286.82 375.87 290.64 366.28 294.25 356.75 296.88 347.21 299.46 337.73 302.09 328.44 304.09 319.18 306.48 310.15 309.41 301.51 312.12 293.02 315.61 285.04 319.91 277.77 324.25 270.84 329.47 264.79 335.51 259.85 341.63 255.44 348.51 252.3 356.06 250.61 363.63 249.58 371.79 250.05 380.48 252.11" stroke-dasharray="0 8" transform="rotate(56.56, 400, 400)" opacity="0.67"></path><path d="M385.4 262.79C393.46 265.25 401.8 268.9 410.37 273.54 419 278.41 427.94 284.07 437.14 290.33 446.5 296.58 456.18 303.29 466.07 310.31 476.08 317.16 486.2 324.29 496.14 331.59 505.87 338.68 515.03 345.98 523.19 353.44 530.49 360.73 536.22 368.25 539.96 375.98 542.25 383.61 542.24 391.52 539.82 399.67 536.08 407.8 530.33 416.22 522.93 424.88 515.39 433.55 507.57 442.05 500.04 450.27 493.65 458.46 488.06 466.31 483.38 473.68 480.15 480.94 477.61 487.6 475.55 493.51 471.71 506.98 460.87 515.51 453.91 514.05 448.81 512.61 442.71 510.29 435.72 507.2 428.66 504.4 420.79 501.16 412.2 497.6 403.6 494.78 394.72 492.01 385.7 489.37 376.69 487.55 367.53 485.79 358.34 484.03 349.17 482.91 339.99 481.58 330.97 479.94 322.07 478.65 313.44 476.82 305.32 474.39 297.54 472.06 290.5 468.97 284.46 465.1 279.07 461.2 274.92 456.48 272.22 450.95 270.34 445.37 269.95 439 271.12 431.91 272.87 424.78 275.9 416.96 280.06 408.5 284.14 400.04 288.66 391.36 293.34 382.6 297.32 373.86 301.24 365.03 305 356.25 307.92 347.48 310.79 338.78 313.68 330.26 315.95 321.81 318.5 313.61 321.43 305.81 324.06 298.17 327.3 291.04 331.2 284.6 335.03 278.48 339.62 273.19 344.96 268.91 350.29 265.12 356.37 262.46 363.14 261.09 369.9 260.3 377.33 260.83 385.4 262.79" stroke-dasharray="8 9" transform="rotate(60.599999999999994, 400, 400)" opacity="0.13"></path><path d="M392.02 273.46C399.47 275.73 407.27 279.05 415.33 283.26 423.45 287.68 431.88 292.85 440.53 298.57 449.26 304.33 458.22 310.54 467.25 317.07 476.26 323.51 485.21 330.22 493.8 337.11 502.08 343.87 509.69 350.82 516.26 357.9 522.02 364.87 526.34 372.02 528.91 379.32 530.31 386.54 529.77 393.97 527.24 401.55 523.7 409.11 518.49 416.86 511.88 424.73 505.16 432.61 498.11 440.24 491.17 447.52 485.1 454.78 479.54 461.64 474.64 467.99 469.29 477.08 462.04 491.59 459.06 496.62 452.15 501.49 434.71 499.01 425.93 495.33 419.76 492.92 412.8 490.09 405.11 486.93 397.43 484.37 389.41 481.77 381.21 479.21 373.04 477.32 364.71 475.42 356.35 473.48 348.07 472.07 339.82 470.48 331.77 468.62 323.9 467.09 316.36 465.12 309.36 462.65 299.78 458.85 285.91 448.05 282.34 440.93 281.06 435.92 281.08 430.22 282.44 423.85 284.25 417.47 287.17 410.44 291.1 402.81 294.96 395.19 299.25 387.34 303.73 379.4 307.66 371.48 311.6 363.48 315.45 355.52 318.61 347.59 321.73 339.73 324.86 332.07 327.43 324.49 330.18 317.17 333.22 310.25 335.92 303.49 339.08 297.23 342.77 291.63 346.31 286.31 350.49 281.75 355.32 278.12 360.09 274.9 365.55 272.69 371.68 271.63 377.79 271.04 384.57 271.63 392.02 273.46" stroke-dasharray="10 0" transform="rotate(64.64, 400, 400)" opacity="0.38"></path><path d="M399.58 284.13C406.41 286.2 413.57 289.19 420.99 292.96 428.43 296.93 436.14 301.57 444 306.74 451.87 311.97 459.86 317.63 467.78 323.61 475.6 329.55 483.21 335.76 490.36 342.16 497.16 348.48 503.24 354.98 508.32 361.6 512.7 368.14 515.8 374.83 517.39 381.61 518.08 388.35 517.17 395.22 514.62 402.17 511.34 409.11 506.68 416.15 500.84 423.23 494.91 430.3 488.63 437.06 482.33 443.44 476.65 449.8 471.28 455.73 466.34 461.15 460.44 468.88 451.43 480.96 447.61 485.03 439.92 488.9 423.57 486.64 415.79 483.51 410.36 481.48 404.22 479.03 397.43 476.25 390.64 473.95 383.54 471.55 376.27 469.11 369.03 467.21 361.67 465.22 354.31 463.17 347.05 461.56 339.87 459.76 332.94 457.73 326.21 456 319.84 453.9 314.02 451.41 306.17 447.63 295.29 437.52 292.8 431.05 292.04 426.54 292.39 421.43 293.87 415.74 295.69 410.05 298.48 403.78 302.13 396.98 305.74 390.17 309.77 383.17 314.01 376.09 317.83 369.02 321.72 361.88 325.58 354.8 328.89 347.76 332.21 340.8 335.53 334.04 338.37 327.37 341.34 320.96 344.52 314.94 348.97 306.38 359.57 292.43 366.01 287.48 372.9 283.9 389.65 282.12 399.58 284.13" stroke-dasharray="7 6" transform="rotate(68.68, 400, 400)" opacity="0.85"></path><path d="M407.18 294.81C419.54 298.77 433.03 305.78 446.79 314.86 460.45 324.22 473.88 335.13 485.6 346.8 495.98 358.3 503.1 370.52 505.45 382.93 505.12 395.24 499.74 407.92 489.8 420.45 479.6 432.97 468.6 444.09 458.42 453.3 450.76 462.29 443.95 469.06 437.59 473.11 432.67 476.76 426.68 477.7 419.05 475.91 411.6 474.31 401.91 470.74 390.05 465.58 378.18 461.91 365.45 457.65 352.84 453.11 340.61 449.97 329.1 445.91 319.51 440.75 311.11 436.15 305.5 429.78 303.6 421.6 303.27 413.46 306.52 403.29 313.17 391.3 319.66 379.31 327.4 366.71 335.37 354.32 341.64 342.1 348.19 330.34 355.1 319.96 360.84 310.15 367.85 302.2 376.38 297.01 384.57 292.92 394.82 291.99 407.18 294.81" stroke-dasharray="4 5" transform="rotate(72.72, 400, 400)" opacity="0.21"></path><path d="M413.95 305.48C424.93 308.95 436.61 315.05 448.21 322.95 459.61 331.13 470.4 340.76 479.37 351.1 487.2 361.39 492.13 372.35 493.13 383.41 492.23 394.43 487.34 405.66 478.76 416.56 470 427.45 460.25 436.93 450.83 444.62 443.13 452.16 435.91 457.72 429.07 460.98 423.41 464.03 417.11 464.83 409.8 463.39 402.72 462.19 394.05 459.29 383.83 454.91 373.61 451.65 362.9 447.67 352.55 443.29 342.52 439.96 333.35 435.79 326.01 430.73 319.61 426.15 315.63 420.17 314.76 412.78 314.99 405.46 318.17 396.51 324.21 386.1 330.12 375.69 337.27 364.87 344.8 354.32 351.1 343.92 357.77 334.03 364.74 325.42 370.77 317.29 377.74 310.81 385.83 306.71 393.59 303.47 402.96 302.9 413.95 305.48" stroke-dasharray="2 3" transform="rotate(76.76, 400, 400)" opacity="0.36"></path><path d="M419.08 316.15C428.61 319.14 438.37 324.31 447.72 331.02 456.86 337.99 465.14 346.24 471.65 355.15 477.28 364.09 480.46 373.62 480.49 383.21 479.28 392.8 474.96 402.49 467.72 411.76 460.35 421.04 451.94 428.97 443.5 435.31 436.17 441.56 428.98 446.11 422.05 448.77 416.01 451.33 409.58 452.09 402.63 451.01 395.9 450.16 388.17 447.87 379.5 444.23 370.83 441.41 362.09 437.79 353.91 433.69 345.97 430.36 338.98 426.25 333.65 421.41 328.98 416.96 326.36 411.42 326.26 404.82 326.88 398.3 329.89 390.52 335.25 381.66 340.52 372.8 346.95 363.72 353.87 354.98 359.96 346.37 366.49 338.3 373.29 331.38 379.41 324.83 386.22 319.71 393.79 316.6 401.1 314.11 409.55 313.84 419.08 316.15" stroke-dasharray="8 3" transform="rotate(80.80000000000001, 400, 400)" opacity="0.21"></path><path d="M421.98 326.83C429.97 329.32 437.8 333.57 444.98 339.09 451.98 344.83 458.01 351.66 462.45 359.06 466.3 366.53 468.15 374.51 467.6 382.54 466.28 390.58 462.61 398.66 456.68 406.33 450.67 413.99 443.65 420.48 436.38 425.62 429.76 430.71 423.03 434.41 416.45 436.59 410.44 438.76 404.21 439.49 397.78 438.76 391.54 438.24 384.76 436.5 377.57 433.56 370.38 431.18 363.47 428.01 357.27 424.31 348.67 419.21 338.47 406.13 338.11 397.86 338.95 392.16 341.67 385.56 346.29 378.22 350.84 370.87 356.45 363.49 362.58 356.51 368.2 349.61 374.31 343.25 380.67 337.9 386.57 332.82 393 328.94 399.87 326.68 406.57 324.86 413.99 324.81 421.98 326.83" stroke-dasharray="9 8" transform="rotate(84.84, 400, 400)" opacity="0.47"></path><path d="M422.31 337.5C435.1 341.76 445.94 351.29 451.94 362.93 456.54 374.85 454.73 388.38 445.64 400.55 436.33 412.71 424.04 421.01 412.08 424.58 401.43 428.24 389.78 427.75 378.26 422.89 366.74 419.43 357.4 412.96 352.49 404.94 348.46 397.67 349.79 387.68 357.33 375.97 364.68 364.25 375.41 353.08 386.83 345.05 397.25 337.7 409.5 334.47 422.31 337.5" stroke-dasharray="4 3" transform="rotate(88.88, 400, 400)" opacity="0.34"></path><path d="M420.02 348.17C429.57 351.32 436.85 358.3 440.3 366.87 443.07 375.65 441.35 385.69 434.6 394.73 427.74 403.77 418.27 410 408.71 412.83 399.76 415.77 390.21 415.69 381.5 412.21 372.79 409.52 366.44 404.27 363.59 397.78 361.1 391.72 362.51 383.79 368.37 375.02 374.13 366.25 382.66 358.29 391.83 352.84 400.57 347.77 410.47 345.73 420.02 348.17" stroke-dasharray="4 6" transform="rotate(92.92, 400, 400)" opacity="0.13"></path><path d="M415.4 358.85C427.99 363.26 432.22 377.25 423.57 389.21 414.7 401.16 398.67 406.25 386.9 401.54 375.12 398.19 371.42 387.14 379.41 375.44 387.2 363.73 402.79 355.71 415.4 358.85" stroke-dasharray="2 2" transform="rotate(96.96, 400, 400)" opacity="0.60"></path></g></svg>