<svg xmlns="http://www.w3.org/2000/svg" version="1.1" xmlns:xlink="http://www.w3.org/1999/xlink" xmlns:svgjs="http://svgjs.dev/svgjs" viewBox="0 0 800 800"><g stroke-width="2" stroke="hsl(0, 0%, 85%)" fill="none" stroke-linecap="round"><path d="M390.67 126.73C400.32 127.96 410.12 128.77 420.04 129.16 429.98 128.67 440.09 127.92 450.34 127.04 460.64 125.71 471.13 124.62 481.77 123.95 492.48 123.39 503.37 123.61 514.38 124.72 525.45 126.39 536.61 129.13 547.78 132.94 558.91 137.46 569.95 143.02 580.76 149.51 591.34 156.59 601.5 164.42 611.07 172.87 620.13 181.62 628.37 190.77 635.6 200.19 642.03 209.62 647.27 219.16 651.17 228.72 654.16 238.09 655.8 247.41 656.08 256.65 655.65 265.63 654.12 274.53 651.67 283.37 649.12 291.95 646.16 300.53 643.13 309.14 640.86 317.55 639.15 326.06 638.28 334.71 638.97 343.24 640.93 351.96 644.27 360.92 649.38 369.81 655.79 378.99 663.26 388.48 671.86 397.93 680.85 407.73 689.73 417.86 698.41 428 705.79 438.25 711.5 448.59 715.78 458.92 717.83 469.31 717.56 479.72 715.46 490.08 711.12 500.41 704.78 510.59 697.03 520.67 687.82 530.51 677.53 540 666.73 549.25 655.51 558.01 644.21 566.15 633.27 573.89 622.72 580.85 612.75 586.93 603.65 592.47 595.29 597.03 587.68 600.56 578.02 604.61 562.58 607.86 556.05 607.9 550.18 608.31 537.68 612.14 530.49 617.05 525.52 622.25 519.99 628.71 513.88 636.42 507.68 645.55 500.89 655.59 493.54 666.2 486.09 677.25 478.1 688.01 469.61 697.93 461.06 706.81 452.06 713.86 442.63 718.59 433.18 721.16 423.35 720.94 413.17 717.86 402.98 712.64 392.71 705.21 382.4 696.14 372.1 686.35 361.77 676.06 351.43 665.86 341.12 656.54 330.82 648.21 320.57 641.16 310.35 635.9 300.2 632.14 290.16 629.79 280.18 629.12 270.34 629.46 260.7 630.49 251.19 632.41 241.92 634.35 232.97 635.96 224.2 637.55 215.82 638.27 207.87 637.92 200.19 636.91 193 634.58 186.37 630.95 180.02 626.44 174.25 620.66 169.08 613.74 164.18 606.07 159.84 597.47 156.09 588.11 152.48 578.27 149.36 567.92 146.7 557.21 144.02 546.27 141.68 535.16 139.65 524 137.42 512.78 135.38 501.61 133.51 490.55 131.3 479.52 129.2 468.63 127.21 457.94 124.86 447.28 122.65 436.81 120.62 426.56 118.33 416.33 116.33 406.29 114.7 396.47 113.03 386.65 111.92 377.26 111.42 368.3 111.11 359.32 111.53 350.76 112.69 342.61 114.19 334.42 116.47 326.63 119.52 319.21 122.92 311.72 127.04 304.56 131.83 297.72 136.87 290.74 142.47 284 148.55 277.46 154.73 270.69 161.26 264.01 168.07 257.38 174.79 250.41 181.7 243.38 188.73 236.25 195.55 228.69 202.44 220.98 209.38 213.11 216.05 204.84 222.78 196.43 229.56 187.96 236.07 179.27 242.68 170.66 249.41 162.28 255.93 153.99 262.61 146.18 269.49 139.02 276.23 132.35 283.2 126.58 290.44 121.85 297.58 117.88 305.03 115.07 312.77 113.46 320.46 112.58 328.48 112.77 336.82 113.96 345.13 115.45 353.77 117.58 362.75 120.14 371.7 122.39 381.01 124.64 390.66 126.73" stroke-dasharray="8 0" transform="rotate(0, 400, 400)" opacity="1.00"></path><path d="M396.29 138.09C405.7 139.33 415.26 140.17 424.96 140.62 434.68 140.22 444.56 139.56 454.59 138.76 464.65 137.49 474.88 136.4 485.22 135.66 495.62 134.97 506.13 134.96 516.7 135.74 527.27 136.99 537.85 139.22 548.35 142.46 558.75 146.34 568.95 151.23 578.82 157.04 588.4 163.43 597.48 170.62 605.9 178.47 613.79 186.68 620.82 195.36 626.86 204.39 632.16 213.53 636.32 222.86 639.26 232.29 641.43 241.63 642.4 250.98 642.21 260.29 641.5 269.41 639.9 278.48 637.57 287.49 635.31 296.3 632.8 305.08 630.34 313.86 628.7 322.46 627.64 331.13 627.41 339.87 628.64 348.49 631.04 357.26 634.67 366.19 639.89 375.07 646.22 384.15 653.48 393.46 661.72 402.75 670.27 412.3 678.67 422.11 686.89 431.92 693.93 441.76 699.43 451.6 703.67 461.43 705.87 471.24 705.96 480.96 704.39 490.63 700.74 500.17 695.19 509.48 688.31 518.65 679.97 527.51 670.51 535.94 660.46 544.12 649.86 551.76 639.03 558.75 628.37 565.37 617.93 571.22 607.89 576.22 598.53 580.8 589.77 584.49 581.64 587.28 574.36 589.73 567.67 591.4 561.5 592.36 553.49 593.58 539.41 595.55 532.67 597.6 528.36 600.22 523.78 603.69 518.84 608.18 513.95 614.08 508.61 621.11 502.78 629.2 496.91 638.46 490.52 648.41 483.62 658.74 476.66 669.31 469.19 679.46 461.23 688.69 453.23 696.89 444.77 703.31 435.88 707.55 426.97 709.8 417.67 709.46 407.99 706.49 398.32 701.56 388.53 694.58 378.67 686.05 368.83 676.79 358.94 666.98 349.03 657.14 339.16 648.01 329.29 639.66 319.47 632.39 309.7 626.69 300 622.32 290.43 619.24 280.95 617.75 271.62 617.26 262.51 617.52 253.55 618.74 244.85 620.16 236.49 621.46 228.32 622.94 220.54 623.79 213.21 623.81 206.14 623.4 199.55 621.88 193.49 619.21 187.71 615.84 182.47 611.29 177.79 605.65 173.34 599.33 169.42 592.05 166.02 583.98 162.73 575.4 159.88 566.22 157.44 556.58 154.94 546.67 152.75 536.46 150.82 526.09 148.66 515.61 146.67 505.07 144.81 494.56 142.62 484.03 140.52 473.59 138.51 463.28 136.15 452.99 133.91 442.86 131.83 432.91 129.51 422.98 127.46 413.22 125.76 403.68 124.02 394.13 122.82 385 122.2 376.29 121.78 367.55 122.05 359.2 123.05 351.23 124.37 343.22 126.46 335.55 129.29 328.21 132.48 320.78 136.38 313.63 140.94 306.73 145.76 299.67 151.16 292.79 157.05 286.04 163.06 279.04 169.44 272.09 176.13 265.14 182.78 257.85 189.64 250.49 196.64 243.03 203.47 235.19 210.4 227.21 217.38 219.12 224.13 210.72 230.93 202.25 237.78 193.8 244.38 185.23 251.06 176.83 257.84 168.74 264.39 160.85 271.09 153.49 277.95 146.83 284.64 140.69 291.55 135.46 298.67 131.27 305.69 127.8 312.98 125.44 320.54 124.21 328.03 123.63 335.83 124.05 343.93 125.37 352 126.95 360.39 129.09 369.12 131.63 377.82 133.84 386.87 136.04 396.28 138.09" stroke-dasharray="9 4" transform="rotate(4.04, 400, 400)" opacity="0.96"></path><path d="M402.16 149.46C411.32 150.7 420.63 151.57 430.07 152.07 439.52 151.76 449.12 151.2 458.84 150.49 468.58 149.29 478.44 148.23 488.39 147.46 498.34 146.66 508.35 146.45 518.35 146.95 528.31 147.82 538.2 149.59 547.91 152.28 557.47 155.56 566.75 159.78 575.62 164.91 584.16 170.6 592.14 177.1 599.42 184.28 606.19 191.87 612.1 199.99 617.04 208.53 621.34 217.25 624.57 226.23 626.7 235.39 628.21 244.55 628.69 253.79 628.18 263.04 627.33 272.17 625.77 281.29 623.67 290.37 621.77 299.3 619.76 308.2 617.88 317.08 616.86 325.83 616.43 334.59 616.79 343.38 618.51 352.09 621.28 360.87 625.14 369.75 630.42 378.58 636.67 387.56 643.68 396.68 651.56 405.78 659.67 415.06 667.61 424.51 675.39 433.96 682.07 443.35 687.36 452.66 691.54 461.96 693.86 471.14 694.27 480.15 693.18 489.1 690.16 497.83 685.37 506.25 679.31 514.53 671.84 522.43 663.22 529.84 653.95 537.03 644.04 543.65 633.76 549.6 623.51 555.25 613.3 560.17 603.33 564.31 593.88 568.14 584.88 571.19 576.39 573.5 568.61 575.63 561.36 577.15 554.6 578.16 545.63 579.79 529.83 583.61 522.46 586.93 517.82 590.4 513.01 594.69 507.96 599.92 503.01 606.42 497.72 613.88 492.04 622.22 486.36 631.5 480.25 641.27 473.69 651.24 467.09 661.28 460.04 670.8 452.54 679.35 445 686.87 437.03 692.7 428.64 696.47 420.24 698.41 411.44 697.98 402.28 695.12 393.11 690.48 383.82 683.94 374.45 675.92 365.11 667.2 355.7 657.87 346.27 648.42 336.89 639.52 327.52 631.22 318.2 623.81 308.94 617.76 299.77 612.87 290.74 609.14 281.81 606.88 273.06 605.6 264.54 605.08 256.18 605.58 248.09 606.39 240.36 607.25 232.82 608.45 225.67 609.24 218.97 609.43 209.5 608.91 193.41 602.32 186.84 596.06 182.82 590.96 179.27 584.93 176.2 578.09 173.19 570.77 170.58 562.78 168.32 554.27 165.98 545.44 163.89 536.24 162.03 526.77 159.93 517.15 157.96 507.37 156.11 497.54 153.93 487.65 151.81 477.77 149.78 467.96 147.4 458.14 145.13 448.42 143.02 438.84 140.67 429.27 138.58 419.84 136.82 410.58 135.02 401.33 133.74 392.44 133.02 383.93 132.48 375.4 132.62 367.22 133.45 359.36 134.59 351.46 136.48 343.85 139.09 336.51 142.05 329.08 145.71 321.86 150.02 314.83 154.61 307.64 159.77 300.56 165.43 293.56 171.24 286.32 177.45 279.09 183.98 271.82 190.51 264.26 197.27 256.62 204.21 248.88 211.02 240.84 217.95 232.7 224.95 224.49 231.75 216.06 238.61 207.64 245.52 199.32 252.21 190.98 258.96 182.89 265.79 175.19 272.42 167.75 279.16 160.9 286.02 154.78 292.73 149.21 299.61 144.54 306.68 140.87 313.63 137.89 320.82 135.96 328.25 135.09 335.6 134.79 343.23 135.41 351.15 136.85 359.02 138.49 367.2 140.64 375.7 143.13 384.18 145.3 392.99 147.45 402.15 149.46" stroke-dasharray="10 5" transform="rotate(8.08, 400, 400)" opacity="0.92"></path><path d="M407.89 160.83C416.78 162.06 425.81 162.96 434.93 163.51 444.07 163.3 453.32 162.84 462.65 162.23 472 161.12 481.41 160.11 490.85 159.33 500.27 158.46 509.68 158.1 519.01 158.36 528.26 158.9 537.36 160.25 546.22 162.44 554.89 165.13 563.2 168.73 571.04 173.17 578.55 178.16 585.46 183.94 591.66 190.42 597.38 197.32 602.27 204.8 606.24 212.74 609.66 220.94 612.12 229.46 613.61 238.22 614.62 247.06 614.75 256.04 614.08 265.09 613.22 274.1 611.81 283.13 610.02 292.15 608.53 301.08 607.04 309.99 605.77 318.88 605.33 327.67 605.49 336.45 606.39 345.23 608.54 353.95 611.63 362.69 615.69 371.48 620.99 380.23 627.11 389.05 633.88 397.95 641.39 406.83 649.06 415.81 656.56 424.87 663.89 433.93 670.23 442.85 675.3 451.61 679.39 460.35 681.81 468.89 682.49 477.18 681.83 485.41 679.4 493.35 675.31 500.91 670.05 508.35 663.4 515.36 655.63 521.86 647.17 528.16 637.98 533.88 628.34 538.98 618.59 543.83 608.74 548.02 598.99 551.52 589.59 554.83 580.5 557.49 571.81 559.55 563.69 561.58 556.01 563.16 548.77 564.42 542.11 565.95 535.81 567.42 529.79 568.99 524.24 571.24 518.84 573.89 513.51 577.12 508.47 581.36 503.36 586.39 498.11 592.25 493.01 599.22 487.66 606.98 482.01 615.43 476.41 624.63 470.46 634.14 464.13 643.67 457.8 653.15 451.07 662.03 443.94 669.9 436.79 676.77 429.24 682.02 421.32 685.36 413.37 687.02 405.06 686.5 396.4 683.75 387.74 679.39 378.96 673.27 370.11 665.76 361.28 657.56 352.39 648.73 343.49 639.69 334.64 631.06 325.81 622.88 317.05 615.4 308.35 609.09 299.76 603.77 291.33 599.48 283 596.52 274.86 594.49 266.98 593.22 259.25 592.96 251.81 593.11 244.71 593.44 237.81 594.23 231.3 594.8 225.22 594.96 216.65 594.77 202.15 590.02 196.25 585.13 192.6 581.08 189.4 576.17 186.62 570.46 183.85 564.32 181.43 557.49 179.33 550.08 177.1 542.37 175.1 534.21 173.28 525.7 171.22 517.01 169.26 508.09 167.4 499.02 165.21 489.87 163.07 480.65 161.01 471.41 158.62 462.16 156.33 452.93 154.18 443.78 151.81 434.62 149.68 425.56 147.88 416.61 146.03 407.66 144.68 399.02 143.87 390.7 143.22 382.36 143.22 374.31 143.89 366.53 144.86 358.7 146.54 351.11 148.92 343.73 151.64 336.25 155.05 328.93 159.09 321.73 163.42 314.39 168.32 307.1 173.72 299.86 179.3 292.4 185.29 284.92 191.62 277.4 198 269.62 204.63 261.77 211.45 253.85 218.2 245.7 225.08 237.5 232.06 229.3 238.88 220.96 245.78 212.71 252.72 204.63 259.48 196.61 266.3 188.92 273.18 181.68 279.88 174.76 286.67 168.47 293.56 162.92 300.3 157.92 307.19 153.81 314.23 150.67 321.15 148.17 328.28 146.64 335.62 146.1 342.87 146.06 350.38 146.86 358.14 148.39 365.85 150.08 373.85 152.21 382.13 154.65 390.4 156.77 398.98 158.87 407.88 160.83" stroke-dasharray="10 1" transform="rotate(12.12, 400, 400)" opacity="0.89"></path><path d="M413.07 172.2C421.69 173.43 430.39 174.35 439.16 174.95 447.94 174.83 456.78 174.48 465.65 173.97 474.53 172.96 483.42 172.02 492.27 171.25 501.08 170.36 509.82 169.89 518.41 169.94 526.9 170.21 535.16 171.19 543.12 172.92 550.87 175.08 558.22 178.07 565.05 181.87 571.57 186.15 577.48 191.21 582.67 196.97 587.45 203.15 591.44 209.92 594.59 217.2 597.28 224.77 599.13 232.72 600.14 240.97 600.81 249.36 600.74 257.94 600.04 266.65 599.27 275.39 598.11 284.2 596.7 293.03 595.66 301.82 594.7 310.62 594 319.39 594.14 328.11 594.83 336.82 596.23 345.5 598.75 354.13 602.1 362.77 606.29 371.4 611.58 380 617.55 388.62 624.06 397.25 631.2 405.88 638.45 414.52 645.5 423.16 652.41 431.81 658.4 440.24 663.25 448.44 667.24 456.61 669.72 464.53 670.63 472.13 670.36 479.68 668.46 486.87 665.02 493.66 660.5 500.34 654.66 506.56 647.71 512.27 640.07 517.83 631.65 522.83 622.69 527.25 613.53 531.51 604.15 535.18 594.74 538.27 585.54 541.27 576.51 543.76 567.76 545.79 559.46 547.91 551.5 549.74 543.91 551.39 536.82 553.41 530.06 555.49 523.58 557.78 517.54 560.75 511.67 564.18 505.93 568.18 500.49 573.11 495.04 578.75 489.54 585.12 484.21 592.41 478.73 600.35 473.03 608.8 467.42 617.81 461.53 626.98 455.35 636.02 449.19 644.91 442.69 653.13 435.86 660.34 429.03 666.58 421.85 671.29 414.33 674.21 406.8 675.61 398.94 675.02 390.77 672.39 382.6 668.29 374.33 662.57 366 655.56 357.69 647.88 349.35 639.55 341.01 630.95 332.72 622.63 324.46 614.61 316.29 607.14 308.2 600.65 300.22 595 292.41 590.24 284.71 586.67 277.22 583.94 269.99 581.96 262.9 580.96 256.11 580.42 249.67 580.15 240.45 580.54 224.3 580.47 217.46 579.19 211.29 576.89 201.23 567.9 197.24 561.2 194.68 556.12 192.42 550.36 190.43 544 188.29 537.36 186.34 530.22 184.55 522.68 182.5 514.96 180.54 506.93 178.66 498.67 176.45 490.31 174.29 481.8 172.2 473.21 169.79 464.57 167.48 455.9 165.32 447.22 162.93 438.53 160.78 429.87 158.93 421.25 157.05 412.63 155.64 404.25 154.74 396.12 154 387.97 153.88 380.05 154.39 372.33 155.18 364.56 156.66 356.97 158.8 349.53 161.28 342 164.42 334.57 168.17 327.23 172.22 319.75 176.83 312.29 181.95 304.84 187.26 297.21 193 289.55 199.1 281.85 205.27 273.95 211.71 266 218.38 258.02 225.01 249.88 231.81 241.74 238.72 233.65 245.51 225.53 252.39 217.55 259.34 209.82 266.13 202.23 272.99 195.02 279.9 188.3 286.65 181.95 293.49 176.24 300.41 171.29 307.19 166.88 314.08 163.32 321.11 160.68 328.03 158.63 335.11 157.49 342.37 157.24 349.56 157.44 356.96 158.38 364.58 159.99 372.15 161.7 379.98 163.81 388.05 166.19 396.11 168.25 404.45 170.28 413.06 172.2" stroke-dasharray="9 6" transform="rotate(16.16, 400, 400)" opacity="0.85"></path><path d="M417.37 183.57C425.67 184.79 434.02 185.73 442.39 186.38 450.76 186.35 459.14 186.11 467.5 185.7 475.85 184.81 484.16 183.96 492.37 183.23 500.52 182.33 508.54 181.79 516.35 181.69 524.04 181.74 531.45 182.4 538.51 183.73 545.36 185.41 551.78 187.85 557.67 191.02 563.26 194.64 568.25 198.99 572.57 204.02 576.52 209.46 579.75 215.5 582.23 222.06 584.36 228.93 585.75 236.23 586.43 243.86 586.89 251.69 586.77 259.76 586.14 268 585.57 276.33 584.72 284.78 583.73 293.28 583.16 301.8 582.73 310.34 582.6 318.88 583.26 327.41 584.45 335.92 586.27 344.4 589.11 352.86 592.68 361.29 596.95 369.68 602.19 378.07 607.99 386.42 614.22 394.74 620.99 403.05 627.82 411.32 634.44 419.53 640.93 427.73 646.59 435.67 651.2 443.32 655.07 450.95 657.6 458.27 658.7 465.23 658.76 472.15 657.34 478.68 654.51 484.79 650.68 490.82 645.61 496.38 639.47 501.46 632.63 506.43 625 510.9 616.77 514.84 608.27 518.7 599.45 522.06 590.48 524.95 581.6 527.84 572.78 530.35 564.12 532.54 555.78 534.91 547.7 537.12 539.91 539.28 532.52 541.86 525.42 544.59 518.58 547.59 512.12 551.27 505.86 555.4 499.74 560.08 493.92 565.59 488.15 571.71 482.38 578.45 476.8 585.94 471.14 593.93 465.35 602.28 459.65 611.01 453.77 619.76 447.67 628.27 441.6 636.55 435.27 644.11 428.68 650.67 422.1 656.3 415.22 660.49 408.07 663.03 400.91 664.19 393.48 663.53 385.77 661.02 378.07 657.19 370.3 651.86 362.5 645.33 354.71 638.15 346.91 630.33 339.15 622.17 331.43 614.2 323.77 606.41 316.21 599.02 308.72 592.43 301.37 586.53 294.2 581.39 287.14 577.3 280.29 573.96 273.71 571.32 264.19 568.99 246.99 567.06 239.44 566.6 232.5 566.23 220.82 563.22 216.06 560.14 211.72 556.01 204.59 543.91 201.61 536.09 199.53 530.43 197.61 524.26 195.82 517.64 193.77 510.85 191.79 503.7 189.88 496.26 187.65 488.72 185.47 480.96 183.35 473.03 180.93 465.06 178.61 456.96 176.42 448.79 174.03 440.62 171.87 432.38 169.99 424.12 168.08 415.86 166.62 407.76 165.65 399.84 164.82 391.9 164.58 384.11 164.94 376.46 165.56 368.78 166.83 361.2 168.74 353.73 170.97 346.17 173.83 338.67 177.29 331.22 181.04 323.65 185.35 316.08 190.15 308.51 195.17 300.79 200.61 293.04 206.43 285.27 212.35 277.36 218.57 269.42 225.03 261.5 231.5 253.49 238.15 245.54 244.93 237.7 251.65 229.9 258.47 222.31 265.37 215.01 272.15 207.92 279 201.26 285.91 195.13 292.68 189.38 299.53 184.28 306.46 179.93 313.26 176.09 320.16 173.07 327.16 170.92 334.07 169.29 341.11 168.5 348.3 168.52 355.42 168.92 362.72 169.99 370.19 171.65 377.63 173.37 385.28 175.44 393.14 177.75 400.98 179.73 409.05 181.71 417.36 183.56" stroke-dasharray="7 6" transform="rotate(20.200000000000003, 400, 400)" opacity="0.81"></path><path d="M420.48 194.93C428.44 196.14 436.4 197.1 444.33 197.8 452.25 197.86 460.14 197.72 467.95 197.43 475.74 196.66 483.42 195.9 490.96 195.24 498.43 194.38 505.71 193.8 512.73 193.59 519.63 193.46 526.21 193.86 532.4 194.85 541.18 197.08 555.85 205.49 561.5 211.64 564.77 216.34 567.4 221.63 569.35 227.45 571.06 233.58 572.15 240.16 572.65 247.11 573.03 254.27 572.96 261.73 572.51 269.4 572.2 277.2 571.71 285.16 571.17 293.21 571.08 301.32 571.17 309.49 571.56 317.67 572.7 325.87 574.33 334.07 576.52 342.24 579.62 350.42 583.34 358.56 587.67 366.64 592.81 374.72 598.42 382.74 604.37 390.69 610.77 398.64 617.18 406.51 623.38 414.26 629.47 422.02 634.79 429.47 639.17 436.6 642.91 443.71 645.44 450.48 646.7 456.88 647.04 463.24 646.05 469.21 643.77 474.76 640.59 480.25 636.25 485.31 630.88 489.92 624.84 494.47 618 498.57 610.52 502.23 602.72 505.87 594.52 509.11 586.1 511.99 577.65 514.94 569.17 517.63 560.74 520.12 552.52 522.85 544.46 525.53 536.6 528.25 529.07 531.41 521.76 534.79 514.68 538.47 507.92 542.79 501.35 547.54 494.94 552.78 488.79 558.74 482.73 565.22 476.72 572.19 470.9 579.75 465.05 587.67 459.14 595.8 453.34 604.17 447.41 612.45 441.34 620.4 435.33 628.04 429.12 634.95 422.72 640.88 416.33 645.93 409.72 649.63 402.89 651.82 396.06 652.76 389.01 652.05 381.74 649.65 374.48 646.08 367.19 641.13 359.9 635.06 352.63 628.39 345.37 621.06 338.18 613.37 331.02 605.77 323.95 598.24 317.01 591 310.12 584.4 303.4 578.35 296.87 572.92 290.42 568.4 284.21 564.54 278.26 561.31 269.66 557.99 254.21 554.23 247.45 553.08 235.98 550.8 222.42 543.26 219.01 538.67 215.71 533.18 209.83 519.09 207.07 510.66 205 504.74 203 498.42 201.05 491.76 198.8 485.02 196.59 477.99 194.45 470.73 192.02 463.42 189.69 455.93 187.5 448.29 185.11 440.64 182.94 432.87 181.05 424.99 179.12 417.11 177.62 409.32 176.59 401.62 175.68 393.92 175.33 386.3 175.54 378.76 176 371.19 177.07 363.67 178.75 356.21 180.72 348.69 183.3 341.18 186.46 333.69 189.9 326.11 193.88 318.52 198.35 310.92 203.04 303.22 208.16 295.5 213.67 287.78 219.3 279.98 225.24 272.19 231.45 264.45 237.69 256.7 244.14 249.05 250.74 241.58 257.32 234.21 264.01 227.09 270.81 220.33 277.52 213.8 284.31 207.74 291.16 202.23 297.92 197.1 304.74 192.62 311.63 188.87 318.42 185.59 325.29 183.09 332.25 181.39 339.12 180.15 346.11 179.67 353.2 179.93 360.24 180.5 367.42 181.67 374.74 183.36 382.03 185.07 389.49 187.09 397.1 189.32 404.71 191.23 412.5 193.13 420.47 194.93" stroke-dasharray="9 4" transform="rotate(24.24, 400, 400)" opacity="0.77"></path><path d="M422.19 206.3C429.79 207.49 437.33 208.46 444.78 209.2 452.24 209.35 459.6 209.32 466.83 209.14 474.03 208.51 481.09 207.86 487.94 207.28 494.73 206.47 501.28 205.9 507.53 205.63 516.57 205.47 532.48 207.93 539.13 210.78 544.95 214.72 553.47 226.15 556.14 233.49 557.57 238.87 558.48 244.69 558.93 250.91 559.35 257.36 559.42 264.12 559.22 271.14 559.23 278.31 559.13 285.67 559.05 293.17 559.43 300.75 560.01 308.42 560.89 316.14 562.45 323.9 564.46 331.69 566.97 339.45 570.27 347.23 574.1 354.98 578.42 362.67 583.45 370.37 588.85 378 594.49 385.54 600.53 393.08 606.54 400.51 612.32 407.81 618.01 415.11 623 422.09 627.14 428.73 630.74 435.36 633.25 441.64 634.63 447.56 634.92 456.2 628.41 471.51 621.93 478.15 616.66 482.43 610.6 486.33 603.89 489.88 596.82 493.46 589.31 496.73 581.49 499.75 573.58 502.89 565.53 505.88 557.45 508.76 549.49 511.92 541.59 515.11 533.83 518.41 526.29 522.15 518.92 526.13 511.73 530.41 504.79 535.28 498.03 540.53 491.41 546.21 485.03 552.5 478.74 559.19 472.54 566.25 466.51 573.77 460.5 581.51 454.48 589.33 448.57 597.27 442.6 605.03 436.55 612.39 430.56 619.39 424.44 625.66 418.19 630.98 411.97 635.47 405.58 638.71 399.05 640.57 392.51 641.31 385.81 640.56 378.96 638.28 372.11 634.95 365.27 630.37 358.48 624.76 351.69 618.57 344.96 611.75 338.33 604.52 331.72 597.32 325.22 590.11 318.87 583.06 312.57 576.53 306.44 570.41 300.52 564.79 294.67 559.94 289.06 555.65 283.71 551.92 275.96 547.7 262.11 542.13 256.07 540.23 245.72 537.15 233.31 529.98 230.08 526.02 226.9 521.36 221.07 509.27 218.28 501.94 216.19 496.78 214.15 491.21 212.16 485.28 209.89 479.27 207.66 472.93 205.49 466.32 203.07 459.67 200.74 452.77 198.54 445.67 196.17 438.55 194.01 431.24 192.11 423.77 190.18 416.3 188.65 408.84 187.56 401.42 186.59 393.99 186.13 386.58 186.21 379.2 186.51 371.8 187.38 364.41 188.83 357.04 190.55 349.62 192.85 342.19 195.7 334.76 198.82 327.27 202.46 319.77 206.58 312.26 210.93 304.69 215.7 297.12 220.85 289.58 226.16 282.01 231.78 274.49 237.68 267.07 243.65 259.69 249.84 252.47 256.2 245.46 262.57 238.61 269.09 232.05 275.71 225.88 282.29 219.97 288.96 214.54 295.7 209.67 302.37 205.17 309.11 201.31 315.91 198.13 322.64 195.4 329.44 193.37 336.3 192.09 343.11 191.21 349.99 191.01 356.96 191.47 363.89 192.18 370.93 193.42 378.06 195.12 385.17 196.8 392.41 198.76 399.76 200.9 407.11 202.74 414.58 204.56 422.18 206.3" stroke-dasharray="9 6" transform="rotate(28.28, 400, 400)" opacity="0.73"></path><path d="M422.39 217.67C429.59 218.84 436.68 219.82 443.65 220.59 450.61 220.83 457.44 220.9 464.09 220.83 470.71 220.33 477.13 219.81 483.32 219.33 492.38 218.33 508.83 217.46 516.05 217.96 527.97 221.83 540.51 234.01 542.79 240.28 544.5 247.44 546.12 264.15 546.37 273.47 546.72 279.94 547.04 286.63 547.41 293.49 548.23 300.45 549.26 307.54 550.57 314.7 552.51 321.93 554.84 329.19 557.59 336.46 561.04 343.76 564.92 351.04 569.21 358.27 574.09 365.52 579.26 372.71 584.6 379.79 590.27 386.88 595.88 393.87 601.26 400.71 606.56 407.55 611.23 414.08 615.13 420.28 619.81 429.41 623.16 445.93 621.68 453.32 619.63 458.12 616.58 462.57 612.63 466.7 608.1 470.84 602.8 474.69 596.85 478.25 590.53 481.9 583.73 485.33 576.57 488.58 569.27 492.01 561.75 495.36 554.13 498.68 546.54 502.29 538.94 505.99 531.39 509.83 523.99 514.09 516.69 518.6 509.53 523.39 502.56 528.68 495.72 534.32 489.02 540.3 482.5 546.76 476.08 553.54 469.77 560.57 463.6 567.92 457.47 575.38 451.38 582.81 445.4 590.27 439.39 597.46 433.37 604.21 427.4 610.58 421.36 616.22 415.25 620.95 409.17 624.92 402.99 627.74 396.72 629.29 390.45 629.86 384.08 629.07 377.61 626.91 371.14 623.83 364.73 619.6 358.4 614.42 352.08 608.71 345.85 602.38 339.73 595.63 333.64 588.85 327.69 581.98 321.9 575.19 316.14 568.79 310.58 562.69 305.23 556.97 299.93 551.89 294.86 547.27 290.06 543.13 283.08 538.14 270.65 530.86 265.23 528.17 255.83 524.03 244.32 516.56 241.22 512.96 238.1 508.85 232.26 498.27 229.42 491.83 226.26 484.84 219.79 468.87 216.48 460 214.07 453.96 211.75 447.63 209.56 441.05 207.21 434.45 205.06 427.63 203.17 420.58 201.24 413.53 199.7 406.44 198.57 399.33 197.53 392.22 196.99 385.08 196.94 377.92 197.09 370.76 197.78 363.57 199 356.37 200.47 349.14 202.49 341.89 205.03 334.63 207.83 327.34 211.12 320.04 214.88 312.74 218.86 305.43 223.26 298.14 228.03 290.9 232.97 283.69 238.24 276.56 243.78 269.57 249.43 262.67 255.3 255.97 261.37 249.52 267.48 243.25 273.74 237.31 280.13 231.77 286.51 226.52 292.99 221.74 299.54 217.51 306.07 213.64 312.66 210.37 319.31 207.75 325.92 205.51 332.58 203.94 339.3 203.03 345.98 202.46 352.72 202.5 359.53 203.14 366.3 203.95 373.14 205.24 380.06 206.92 386.96 208.57 393.94 210.45 400.99 212.5 408.05 214.25 415.18 215.99 422.38 217.67" stroke-dasharray="4 6" transform="rotate(32.32, 400, 400)" opacity="0.70"></path><path d="M421.06 229.04C427.84 230.18 434.47 231.17 440.95 231.97 447.41 232.29 453.69 232.46 459.77 232.5 468.73 231.94 485.33 230.51 492.83 229.99 505.89 230.15 521.11 234.87 524.55 238.32 527.42 242.63 531.19 253.96 532.28 260.86 533.29 268.43 535.08 285.36 536.24 294.52 537.47 300.8 538.91 307.23 540.6 313.77 542.85 320.38 545.44 327.06 548.39 333.76 551.93 340.51 555.82 347.26 560.03 353.98 564.73 360.72 569.65 367.41 574.69 374.02 579.99 380.63 585.21 387.15 590.21 393.54 595.13 399.94 599.47 406.04 603.13 411.85 607.61 420.4 611.29 436 610.34 443.04 607.53 449.82 596.85 462.11 589.36 467.75 583.79 471.54 577.72 475.2 571.26 478.75 564.61 482.5 557.7 486.23 550.61 489.99 543.5 494.03 536.3 498.2 529.1 502.52 521.97 507.21 514.88 512.14 507.88 517.33 501 522.92 494.22 528.8 487.54 534.94 481.01 541.45 474.57 548.18 468.23 555.05 462 562.13 455.84 569.23 449.74 576.21 443.73 583.14 437.73 589.74 431.76 595.87 425.83 601.61 419.89 606.64 413.93 610.81 407.99 614.29 402.01 616.71 395.98 617.99 389.97 618.39 383.9 617.58 377.79 615.55 371.67 612.69 365.66 608.8 359.76 604.04 353.87 598.8 348.1 592.95 342.48 586.69 336.86 580.35 331.41 573.86 326.13 567.37 320.88 561.16 315.83 555.15 310.99 549.43 306.19 544.21 301.62 539.36 297.3 534.91 291 529.27 279.78 520.47 274.88 517.01 266.24 511.64 255.4 503.35 252.37 499.87 249.29 496.05 243.39 486.51 240.48 480.74 237.27 474.51 230.73 460.16 227.42 452.11 225.02 446.61 222.71 440.81 220.54 434.73 218.23 428.64 216.11 422.28 214.23 415.67 212.31 409.07 210.77 402.37 209.6 395.62 208.52 388.87 207.9 382.05 207.73 375.19 207.74 368.33 208.26 361.43 209.26 354.49 210.5 347.55 212.24 340.58 214.48 333.6 216.95 326.62 219.89 319.63 223.28 312.68 226.88 305.74 230.88 298.84 235.26 292.03 239.81 285.28 244.68 278.65 249.84 272.19 255.11 265.85 260.63 259.74 266.35 253.91 272.13 248.28 278.08 243 284.16 238.13 290.27 233.53 296.49 229.4 302.8 225.81 309.1 222.54 315.48 219.83 321.91 217.73 328.33 215.96 334.8 214.78 341.31 214.21 347.8 213.91 354.34 214.16 360.92 214.92 367.48 215.82 374.09 217.12 380.74 218.78 387.38 220.37 394.07 222.17 400.79 224.11 407.51 225.77 414.27 227.43 421.05 229.04" stroke-dasharray="11 10" transform="rotate(36.36, 400, 400)" opacity="0.66"></path><path d="M418.29 240.41C424.64 241.52 430.8 242.5 436.78 243.34 442.74 243.72 448.5 243.99 454.04 244.14 465.03 243.34 474.99 242.59 483.73 242.27 492.2 241.51 499.28 241.96 504.85 243.85 510.13 246.25 513.96 250.45 516.45 256.34 519.08 263.03 520.87 271.3 522.21 280.83 524.64 290.96 527.43 302.05 530.97 313.71 536.47 325.68 543.14 337.98 550.86 350.3 555.37 356.5 560.03 362.67 564.76 368.78 569.69 374.91 574.53 380.96 579.15 386.92 583.7 392.87 587.73 398.58 591.14 404.04 594.24 409.5 596.58 414.7 598.14 419.65 599.75 429.56 597.94 438.53 592.99 446.66 586.12 455.03 576.72 462.89 565.48 470.46 553.38 478.78 540.28 487.35 526.76 496.43 513.32 506.79 499.9 518.01 486.76 530.02 474.02 543.1 461.54 556.48 449.38 569.47 437.52 581.99 425.77 592.7 414.14 600.56 405.47 604.6 388.14 606.5 379.48 604.18 373.7 601.54 368.06 597.98 362.56 593.63 357.06 588.83 351.71 583.47 346.53 577.68 336.18 565.9 326.54 553.75 317.74 542.11 309.02 532.06 301.2 523.2 294.38 515.57 287.58 509.78 281.72 504.73 276.8 500.01 271.67 496.28 267.26 492.11 263.49 487.16 259.14 482.41 255.14 476.44 251.43 469.18 246.86 461.81 242.44 453.09 238.28 443.1 235.91 438.08 233.64 432.76 231.49 427.14 229.23 421.52 227.14 415.63 225.28 409.46 223.4 403.3 221.86 397.03 220.67 390.67 219.56 384.32 218.86 377.88 218.59 371.39 218.54 358.42 220.39 345.24 224.05 332.03 228.57 318.92 234.84 305.89 242.59 293.24 251.01 280.93 260.65 269.31 271.21 258.79 282.08 249.07 293.62 240.88 305.58 234.59 317.6 229.47 329.94 226.44 342.42 225.62 354.88 225.65 367.51 227.43 380.19 230.67 386.52 232.19 392.87 233.9 399.23 235.73 405.58 237.3 411.94 238.87 418.28 240.4" stroke-dasharray="2 10" transform="rotate(40.400000000000006, 400, 400)" opacity="0.62"></path><path d="M414.28 251.77C426.06 253.54 437.05 254.86 447.12 255.74 457.11 255.23 466.06 254.74 473.83 254.57 484.56 254.03 499.4 259.12 503.83 265.63 506.7 271.1 508.99 278.04 511.01 286.2 514.08 294.88 517.54 304.54 521.66 314.87 527.46 325.48 534.2 336.53 541.72 347.72 550.59 359.01 559.61 370.3 568.09 381.38 576.34 392.45 582.41 402.75 585.89 412.23 587.76 421.77 586.61 430.61 582.65 438.86 577.01 447.39 568.99 455.63 559.17 463.78 548.45 472.63 536.62 481.81 524.19 491.48 511.66 502.17 498.96 513.54 486.39 525.43 474.06 538.01 461.91 550.61 450.05 562.55 438.43 573.87 426.97 583.37 415.72 590.18 404.56 594.75 393.48 595.74 382.57 592.81 371.65 587.41 361.37 579.02 351.79 568.62 342.22 557.7 333.38 546.24 325.37 534.98 317.38 524.94 310.24 515.76 304 507.58 297.7 500.98 292.23 495.08 287.57 489.59 282.63 485.1 278.3 480.4 274.51 475.19 270.14 470.31 266.07 464.51 262.27 457.64 257.67 450.78 253.24 442.73 249.09 433.53 244.27 424.28 239.93 413.9 236.34 402.47 232.66 391.03 230.35 379.14 229.53 367 229.23 354.9 230.67 342.61 233.77 330.35 237.65 318.23 243.16 306.29 250.08 294.83 257.64 283.77 266.4 273.47 276.08 264.31 286.11 255.92 296.85 249.01 308.04 243.9 319.35 239.78 331.01 237.54 342.82 237.24 354.65 237.6 366.62 239.47 378.57 242.6 390.54 245.34 402.49 248.51 414.27 251.77" stroke-dasharray="1 2" transform="rotate(44.44, 400, 400)" opacity="0.58"></path><path d="M409.29 263.14C420.16 264.87 430.22 266.27 439.35 267.31 448.42 267.07 456.5 266.85 463.48 266.87 473.21 266.43 487.13 270.43 491.78 275.72 494.98 280.14 497.77 285.89 500.43 292.79 504.08 300.12 508.09 308.43 512.65 317.46 518.63 326.74 525.33 336.55 532.58 346.64 540.91 356.8 549.26 367.11 557.03 377.39 564.6 387.66 570.24 397.38 573.61 406.53 575.66 415.74 575.07 424.5 571.99 432.89 567.46 441.56 560.74 450.13 552.28 458.75 542.96 467.96 532.45 477.53 521.22 487.51 509.76 498.28 497.97 509.52 486.15 521.02 474.45 532.92 462.84 544.59 451.46 555.42 440.24 565.53 429.19 573.86 418.41 579.69 407.69 583.54 397.14 584.22 386.85 581.44 376.55 576.53 366.94 568.94 358.07 559.48 349.19 549.45 341.04 538.74 333.69 528 326.31 518.13 319.71 508.85 313.93 500.33 308.02 493.11 302.83 486.51 298.34 480.35 293.53 475.12 289.23 469.85 285.39 464.29 280.98 459.14 276.84 453.31 272.95 446.66 268.36 440.09 263.94 432.54 259.82 423.98 255.13 415.41 250.9 405.82 247.4 395.26 243.81 384.7 241.49 373.73 240.53 362.53 240.01 351.4 241.07 340.13 243.66 328.96 246.91 317.97 251.68 307.24 257.77 297.07 264.46 287.31 272.3 278.37 281.05 270.57 290.17 263.48 300.02 257.78 310.34 253.73 320.83 250.5 331.68 248.94 342.7 249.08 353.78 249.68 364.98 251.58 376.13 254.56 387.31 257.12 398.42 260.07 409.29 263.14" stroke-dasharray="8 9" transform="rotate(48.48, 400, 400)" opacity="0.54"></path><path d="M403.67 274.51C413.63 276.2 422.8 277.65 431.09 278.83 439.34 278.86 446.67 278.91 453.02 279.15 461.99 278.91 475.44 282.21 480.44 286.54 483.98 290.09 487.26 294.83 490.48 300.63 494.6 306.75 499.04 313.82 503.91 321.65 509.96 329.67 516.53 338.3 523.45 347.32 531.22 356.4 538.9 365.77 545.97 375.27 552.89 384.78 558.09 393.97 561.32 402.8 563.47 411.69 563.34 420.36 561.02 428.84 557.48 437.57 551.95 446.35 544.8 455.24 536.82 464.63 527.65 474.34 517.68 484.36 507.4 494.93 496.67 505.79 485.78 516.69 474.89 527.74 463.99 538.36 453.25 548.05 442.6 556.96 432.1 564.16 421.87 569.09 411.69 572.29 401.71 572.69 392.02 570.08 382.34 565.64 373.36 558.82 365.12 550.27 356.85 541.14 349.3 531.23 342.49 521.12 335.62 511.6 329.45 502.4 324 493.75 318.4 486.14 313.4 479.02 309 472.32 304.27 466.45 299.97 460.64 296.06 454.71 291.63 449.21 287.44 443.24 283.48 436.69 278.91 430.26 274.54 423.06 270.48 415.04 265.94 407.03 261.85 398.15 258.46 388.45 254.99 378.75 252.68 368.72 251.61 358.54 250.9 348.43 251.62 338.27 253.72 328.29 256.39 318.5 260.45 309.05 265.73 300.21 271.55 291.77 278.46 284.17 286.25 277.67 294.41 271.79 303.29 267.2 312.66 264.09 322.24 261.64 332.19 260.64 342.32 261.1 352.54 261.87 362.88 263.75 373.16 266.54 383.48 268.91 393.71 271.64 403.67 274.51" stroke-dasharray="8 9" transform="rotate(52.52, 400, 400)" opacity="0.51"></path><path d="M397.8 285.88C406.86 287.52 415.2 289 422.75 290.29 430.26 290.58 436.97 290.89 442.84 291.34 451.24 291.39 464.52 294.34 469.91 297.96 473.78 300.84 477.49 304.75 481.18 309.63 485.65 314.71 490.38 320.7 495.43 327.45 501.43 334.34 507.78 341.87 514.31 349.9 521.5 357.97 528.51 366.45 534.91 375.22 541.19 384 545.95 392.66 549 401.15 551.21 409.71 551.44 418.21 549.77 426.68 547.09 435.35 542.63 444.16 536.69 453.11 530 462.43 522.15 472.02 513.46 481.81 504.42 491.95 494.84 502.2 484.99 512.3 475.07 522.36 465.03 531.88 455.07 540.39 445.15 548.14 435.32 554.28 425.73 558.37 416.17 560.99 406.81 561.16 397.74 558.71 388.68 554.73 380.3 548.64 372.62 540.98 364.91 532.75 357.86 523.69 351.5 514.29 345.05 505.25 339.22 496.34 334.02 487.76 328.65 479.97 323.79 472.56 319.44 465.49 314.76 459.13 310.45 452.89 306.48 446.63 302.04 440.78 297.82 434.65 293.84 428.12 289.33 421.75 285.04 414.8 281.07 407.24 276.7 399.7 272.78 391.48 269.52 382.6 266.18 373.73 263.91 364.64 262.76 355.52 261.9 346.45 262.32 337.44 263.97 328.68 266.1 320.11 269.48 311.95 273.98 304.44 278.95 297.27 284.95 290.94 291.77 285.65 298.95 280.87 306.83 277.26 315.2 274.97 323.79 273.16 332.76 272.61 341.94 273.3 351.22 274.16 360.63 275.96 370 278.55 379.41 280.71 388.73 283.21 397.8 285.88" stroke-dasharray="9 8" transform="rotate(56.56, 400, 400)" opacity="0.47"></path><path d="M392.08 297.25C400.27 298.82 407.83 300.32 414.71 301.7 424.66 302.49 441.21 303.82 447.98 305.11 454.49 306.72 466.42 313.89 472.48 319.65 477.18 323.89 482.07 328.97 487.17 334.78 493.01 340.68 499.07 347.24 505.16 354.37 511.75 361.51 518.1 369.16 523.86 377.23 529.5 385.29 533.83 393.41 536.68 401.52 538.87 409.69 539.38 417.93 538.25 426.22 536.3 434.68 532.8 443.31 527.95 452.09 522.47 461.11 515.87 470.33 508.44 479.63 500.65 489.11 492.27 498.56 483.54 507.72 474.69 516.71 465.64 525.08 456.56 532.43 447.49 539.06 438.45 544.22 429.58 547.55 420.73 549.64 412.04 549.62 403.62 547.34 395.19 543.79 387.39 538.4 380.24 531.6 373.04 524.27 366.44 516.09 360.45 507.47 354.37 499.05 348.82 490.57 343.81 482.27 338.62 474.53 333.88 467.03 329.55 459.8 324.93 453.14 320.61 446.6 316.6 440.12 312.18 434 307.97 427.73 304.01 421.24 299.6 414.89 295.43 408.16 291.59 401.01 287.42 393.89 283.69 386.28 280.58 378.2 277.4 370.12 275.19 361.97 273.98 353.89 273.01 345.86 273.16 337.99 274.42 330.45 276.06 323.07 278.82 316.15 282.58 309.89 286.74 303.92 291.85 298.75 297.73 294.54 303.92 290.73 310.79 287.96 318.15 286.32 325.71 285.03 333.67 284.81 341.85 285.64 350.14 286.53 358.58 288.21 367 290.57 375.47 292.52 383.88 294.79 392.08 297.25" stroke-dasharray="11 10" transform="rotate(60.599999999999994, 400, 400)" opacity="0.43"></path><path d="M386.89 308.61C394.25 310.12 401.09 311.61 407.36 313.05 416.5 314.14 432.17 316.14 438.87 317.61 445.47 319.21 457.99 325.53 464.38 330.49 469.17 334.08 474.09 338.42 479.11 343.44 484.7 348.52 490.38 354.24 496 360.56 501.98 366.88 507.67 373.76 512.8 381.14 517.84 388.51 521.73 396.06 524.36 403.71 526.48 411.39 527.18 419.24 526.49 427.2 525.16 435.27 522.48 443.51 518.61 451.87 514.21 460.37 508.78 468.99 502.55 477.59 496 486.23 488.82 494.73 481.23 502.84 473.51 510.71 465.51 517.92 457.41 524.15 449.28 529.71 441.11 533.96 433.03 536.61 424.97 538.24 417 538.07 409.24 535.97 401.48 532.84 394.26 528.11 387.6 522.14 380.91 515.68 374.73 508.39 369.06 500.62 363.31 492.91 358.01 485.02 353.17 477.16 348.16 469.68 343.51 462.31 339.22 455.14 334.67 448.39 330.39 441.75 326.38 435.19 322.02 428.94 317.88 422.62 313.98 416.21 309.72 409.93 305.71 403.43 302.03 396.68 298.09 389.96 294.58 382.93 291.64 375.61 288.64 368.29 286.52 361.05 285.28 353.98 284.23 346.95 284.16 340.17 285.07 333.78 286.27 327.52 288.46 321.75 291.55 316.63 294.96 311.73 299.22 307.58 304.19 304.31 309.43 301.31 315.31 299.22 321.66 298.11 328.2 297.22 335.13 297.22 342.31 298.1 349.58 298.96 357.03 300.5 364.51 302.61 372.03 304.34 379.54 306.37 386.89 308.61" stroke-dasharray="10 7" transform="rotate(64.64, 400, 400)" opacity="0.39"></path><path d="M382.6 319.98C389.15 321.4 395.31 322.86 401.03 324.34 409.42 325.67 424.27 328.3 430.9 329.98 437.5 331.68 450.31 337.52 456.82 341.89 461.57 345 466.38 348.76 471.21 353.15 476.46 357.55 481.7 362.56 486.81 368.15 492.17 373.75 497.22 379.91 501.75 386.61 506.19 393.3 509.65 400.23 512.03 407.32 514.05 414.44 514.86 421.76 514.51 429.2 513.68 436.71 511.7 444.37 508.68 452.1 505.24 459.89 500.88 467.71 495.76 475.43 490.36 483.11 484.36 490.55 477.91 497.56 471.32 504.29 464.41 510.36 457.32 515.52 450.19 520.1 442.95 523.53 435.72 525.58 428.5 526.8 421.3 526.51 414.24 524.6 407.17 521.87 400.55 517.77 394.38 512.59 388.19 506.98 382.42 500.59 377.08 493.7 371.66 486.77 366.61 479.58 361.93 472.32 357.11 465.28 352.59 458.26 348.37 451.35 343.94 444.73 339.73 438.19 335.78 431.74 331.55 425.52 327.52 419.29 323.74 413.05 319.68 406.94 315.87 400.71 312.39 394.38 308.72 388.09 305.44 381.63 302.69 375.05 299.9 368.47 297.89 362.08 296.66 355.96 295.44 346.99 297.6 331.15 300.92 324.66 305.39 319.05 318.05 311.78 325.9 310.28 331.44 309.66 337.36 309.8 343.55 310.66 349.82 311.44 356.29 312.8 362.85 314.65 369.43 316.15 376.05 317.95 382.6 319.98" stroke-dasharray="6 5" transform="rotate(68.68, 400, 400)" opacity="0.35"></path><path d="M379.5 331.35C391.06 333.45 401.53 335.99 410.73 338.85 420.17 340.15 428.84 342.66 436.83 346.65 445.76 350.13 454.71 355.76 463.44 363.52 473.36 371.22 482.84 381.16 490.69 393.19 498.31 405.21 502.23 418.3 502.36 431.79 501.09 445.4 496.03 459.44 488.06 472.93 479.17 486.06 468.15 497.78 456.07 506.54 443.8 513.4 430.94 515.98 418.26 513.24 405.58 507.93 394.19 498.49 384.26 486.65 374.06 474.48 364.92 461.32 356.92 448.26 348.23 435.92 340.25 423.63 333.28 411.68 325.49 400.09 318.72 388.29 313.75 376.57 308.63 364.84 306.41 354.26 306.99 345.38 308.23 336.72 312.4 330.15 318.95 326.19 326.14 322.63 335.36 321.66 345.78 323.27 356.45 324.46 367.94 327.28 379.5 331.35" stroke-dasharray="9 6" transform="rotate(72.72, 400, 400)" opacity="0.32"></path><path d="M377.8 342.72C387.86 344.71 397.29 347.28 405.86 350.25 414.64 351.97 422.96 354.71 430.77 358.65 439.27 362.06 447.71 367.21 455.77 374.13 464.63 380.94 472.91 389.7 479.63 400.34 486.18 410.97 489.67 422.57 490.05 434.46 489.45 446.38 485.72 458.49 479.48 469.87 472.52 480.81 463.59 490.33 453.51 497.2 443.24 502.56 432.2 504.38 421.04 501.87 409.87 497.42 399.6 489.5 390.42 479.45 381.04 468.98 372.46 457.38 364.82 445.64 356.67 434.29 349.16 422.88 342.61 411.86 335.48 401.08 329.33 390.34 324.81 380.03 320.18 369.72 318.03 360.75 318.27 353.48 318.95 346.33 322.11 341.08 327.32 338.08 332.99 335.23 340.47 334.52 349.14 335.92 357.98 336.85 367.73 339.19 377.8 342.72" stroke-dasharray="1 2" transform="rotate(76.76, 400, 400)" opacity="0.28"></path><path d="M377.6 354.09C386.23 355.93 394.57 358.44 402.39 361.42 410.37 363.43 418.11 366.33 425.46 370.19 433.27 373.59 440.97 378.36 448.17 384.53 455.87 390.58 462.93 398.24 468.57 407.46 474.09 416.67 477.1 426.63 477.62 436.74 477.49 446.8 474.83 456.85 470.06 466.07 464.79 474.87 457.76 482.32 449.56 487.51 441.21 491.55 431.98 492.75 422.38 490.5 412.78 486.85 403.71 480.36 395.41 472.07 386.99 463.33 379.12 453.46 372.03 443.28 364.59 433.26 357.71 423.09 351.73 413.26 345.35 403.58 339.88 394.07 335.87 385.16 330.76 372.49 331.16 354.82 336.37 350.38 340.72 348.05 346.64 347.45 353.7 348.56 360.87 349.21 368.98 351.09 377.6 354.09" stroke-dasharray="1 5" transform="rotate(80.80000000000001, 400, 400)" opacity="0.24"></path><path d="M378.94 365.45C386.15 367.1 393.34 369.46 400.24 372.31 407.26 374.48 414.19 377.42 420.79 381.12 427.69 384.45 434.41 388.84 440.6 394.29 447.08 399.63 452.91 406.21 457.51 413.96 462.03 421.71 464.54 429.94 465.1 438.15 465.26 446.3 463.43 454.25 459.9 461.38 456.04 468.16 450.68 473.73 444.23 477.45 437.66 480.38 430.19 481.08 422.2 479.13 414.2 476.22 406.44 471.08 399.19 464.46 391.86 457.45 384.9 449.39 378.55 440.95 371.98 432.52 365.9 423.86 360.62 415.47 355.11 407.14 350.39 399.02 346.93 391.52 342.35 373.72 351.6 360.68 359.49 361.16 365.15 361.55 371.73 362.99 378.94 365.45" stroke-dasharray="1 6" transform="rotate(84.84, 400, 400)" opacity="0.20"></path><path d="M381.71 376.82C393.33 379.08 405.6 384.22 416.64 391.27 428.32 397.3 439.29 406.79 446.45 419.3 453.41 431.8 453.96 445.08 449.1 455.69 443.49 465.28 433.25 470.35 420.5 467.76 407.75 462.77 395.06 451.58 384.39 438.41 373.27 425.04 363.62 410.71 357.99 398.59 352.09 382.53 365.61 372.24 381.71 376.82" stroke-dasharray="0 1" transform="rotate(88.88, 400, 400)" opacity="0.16"></path><path d="M385.73 388.19C394.53 390.13 404.15 394.59 412.85 400.53 421.85 405.88 430.14 413.6 435.39 423.03 440.54 432.45 441.1 441.85 437.79 448.93 434.11 455.4 426.89 458.54 417.4 456.4 407.91 452.91 398.05 444.98 389.59 435.45 380.95 425.67 373.43 414.96 369.04 405.77 364.39 393.55 373.7 385.04 385.73 388.19" stroke-dasharray="3 0" transform="rotate(92.92, 400, 400)" opacity="0.13"></path><path d="M390.72 399.56C402.6 401.9 417.51 412.23 424.34 424.84 430.96 437.45 425.65 447.53 413.12 445.03 400.58 440.19 386.07 424.85 380.1 412.47 373.96 400.09 378.83 395.02 390.72 399.56" stroke-dasharray="2 5" transform="rotate(96.96, 400, 400)" opacity="0.09"></path></g></svg>