<svg xmlns="http://www.w3.org/2000/svg" version="1.1" xmlns:xlink="http://www.w3.org/1999/xlink" xmlns:svgjs="http://svgjs.dev/svgjs" viewBox="0 0 800 800"><g stroke-width="2" stroke="hsl(0, 0%, 85%)" fill="none" stroke-linecap="round"><path d="M379.34 73.38Q387.14 82.65 395.06 91.06 403.14 98.14 411.37 103.62 419.79 107.41 428.38 109.63 437.18 110.62 446.18 110.88 455.38 111.02 464.8 111.69 474.44 113.48 484.3 116.85 494.38 122.08 504.67 129.21 515.17 138.02 525.87 148.1 536.77 158.84 547.85 169.54 559.11 179.49 570.52 188.05 582.07 194.76 593.74 199.37 605.52 201.9 617.38 202.65 629.3 202.13 641.26 201.05 653.23 200.2 665.2 200.36 677.12 202.18 688.99 206.13 700.77 212.41 712.44 220.93 716.69 230.96 720.03 241 722.37 251.03 723.64 261.06 723.79 271.1 722.83 281.13 720.79 291.16 717.71 301.2 713.7 311.23 708.87 321.27 703.37 331.3 697.36 341.33 691 351.37 684.51 361.4 678.05 371.43 671.83 381.47 666.03 391.5 660.81 401.53 656.34 411.57 652.75 421.6 650.13 431.63 648.58 441.67 648.13 451.7 648.79 461.74 650.56 471.77 653.37 481.8 657.14 491.84 661.77 501.87 667.11 511.9 673 521.94 679.66 536.54 674.22 543.86 668.26 550.6 662.16 561.17 655.9 574.94 649.45 590.85 642.8 607.55 635.94 623.58 628.86 637.56 621.55 648.33 606.08 655.78 589.88 651.91 581.35 645.46 572.57 638.49 563.57 632.56 554.33 629.08 544.88 629.18 535.22 633.55 525.37 642.33 515.33 655.12 505.13 670.97 494.77 688.58 484.29 706.37 473.69 722.74 462.99 736.24 452.21 745.79 441.37 750.78 430.48 751.19 419.58 747.57 408.67 741 401.26 722.64 393.7 704.73 385.99 688.86 378.12 676.36 361.8 666.67 344.98 669.51 336.29 676.15 327.44 683.63 318.45 690.34 309.31 694.8 300.04 695.83 290.64 692.67 281.13 685.13 271.51 673.55 261.8 658.79 252.02 642.09 242.17 624.93 232.27 608.82 222.33 595.12 212.36 584.89 202.39 578.72 192.41 576.69 182.45 578.36 172.51 582.83 162.6 588.85 152.74 594.99 142.94 599.84 133.21 602.15 123.54 601 113.95 595.95 112.73 585.24 111.55 574.54 110.44 563.84 109.44 553.13 108.56 542.43 107.85 531.73 107.33 521.02 106.99 510.32 106.87 499.62 106.95 488.91 107.25 478.21 107.74 467.51 108.41 456.81 109.26 446.1 110.24 435.4 111.33 424.7 112.5 413.99 113.71 403.29 114.94 392.59 116.13 381.89 117.27 371.18 118.3 360.48 119.21 349.78 119.96 339.08 120.54 328.37 120.93 317.67 121.11 306.97 121.08 296.26 120.84 285.56 120.4 274.86 119.77 264.16 118.97 253.45 127.76 247.93 136.44 240.13 145.03 230.43 153.51 219.44 161.89 207.92 170.16 196.68 178.34 186.48 186.43 177.93 202.29 168.06 217.94 163.98 233.32 164.67 248.59 164.16 256.21 161.68 263.83 157.31 271.48 151 279.16 142.95 286.9 133.56 294.7 123.4 302.58 113.11 310.56 103.34 318.65 94.66 326.87 87.47 335.21 82 343.71 78.23 352.36 75.94 361.18 74.73 374.76 73.72 379.34 73.38" stroke-dasharray="7 10" transform="rotate(0, 400, 400)" opacity="0.59"></path><path d="M377.93 86.21Q385.78 95.29 393.77 103.55 401.92 110.56 410.24 116.06 418.74 119.94 427.41 122.28 436.28 123.35 445.33 123.59 454.58 123.53 464.02 123.77 473.66 124.87 483.5 127.32 493.52 131.46 503.72 137.4 514.1 145.1 524.65 154.25 535.35 164.41 546.2 174.96 557.18 185.27 568.27 194.68 579.47 202.65 590.75 208.79 602.09 212.91 613.48 215.09 624.9 215.59 636.32 214.93 647.72 213.73 659.08 212.72 670.38 212.61 681.6 214.03 692.71 217.42 703.7 223 707.22 232.57 709.87 242.13 711.56 251.7 712.26 261.27 711.94 270.84 710.61 280.4 708.31 289.97 705.1 299.54 701.06 309.11 696.32 318.67 691 328.24 685.23 337.81 679.19 347.38 673.04 356.94 666.93 366.51 661.05 376.08 655.55 385.65 650.58 395.21 646.27 404.78 642.75 414.35 640.11 423.92 638.42 433.48 637.73 443.05 638.06 452.62 639.39 462.19 641.7 471.75 644.91 481.32 648.95 490.89 653.69 500.46 659.02 510.03 665.06 526.11 659.75 539.73 654.08 550.27 648.31 563.63 642.41 578.85 636.37 594.75 630.16 610.05 623.79 623.52 610.37 639.27 596.34 643.96 588.95 640.42 581.35 634.77 573.52 628.23 565.47 622.14 548.62 618.2 531.15 624.82 522.07 634.97 512.8 648.48 503.36 664.36 493.76 681.36 484.01 698.07 474.12 713.11 464.12 725.28 454.01 733.68 443.81 737.89 433.54 737.94 423.21 734.38 412.84 728.16 405.43 710.67 397.87 693.54 390.15 678.16 382.28 665.74 365.97 654.72 349.2 655.47 340.56 661.13 331.77 668.05 322.86 674.83 313.82 680.1 304.67 682.69 295.41 681.74 286.07 676.83 276.64 668 267.14 655.73 257.58 640.91 247.98 624.73 238.34 608.5 228.69 593.54 219.02 580.99 209.36 571.72 199.71 566.19 190.08 564.42 180.49 565.99 170.94 570.12 161.45 575.7 152.01 581.5 142.64 586.26 128.12 583.51 121.69 567.89 120.59 557.61 119.6 547.33 118.77 537.04 118.1 526.76 117.62 516.48 117.35 506.2 117.28 495.92 117.42 485.64 117.77 475.36 118.32 465.08 119.05 454.8 119.94 444.52 120.97 434.24 122.11 423.96 123.33 413.68 124.59 403.4 125.86 393.12 127.11 382.84 128.31 372.56 129.41 362.28 130.39 352 131.23 341.72 131.89 331.44 132.37 321.16 132.64 310.88 132.71 300.6 132.57 290.32 132.22 280.04 131.67 269.76 130.94 259.48 139.43 251.48 147.84 241.77 156.15 230.94 164.35 219.69 172.46 208.77 180.47 198.85 188.39 190.49 196.21 184.06 211.53 178.06 226.62 176.71 241.38 177.55 256 175.97 263.26 172.57 270.5 167.32 277.75 160.29 285 151.76 292.29 142.18 299.61 132.12 306.99 122.18 314.44 112.93 321.96 104.86 329.58 98.29 345.22 90.76 361.24 87.18 373.72 86.47 377.93 86.21" stroke-dasharray="11 8" transform="rotate(4.04, 400, 400)" opacity="0.84"></path><path d="M377.5 99.05Q385.4 107.92 393.46 116.01 401.67 122.95 410.05 128.47 418.6 132.44 427.31 134.91 436.2 136.1 445.26 136.37 454.5 136.19 463.9 136.09 473.48 136.61 483.21 138.23 493.11 141.31 503.15 146.08 513.34 152.57 523.66 160.63 534.09 169.94 544.64 180.02 555.28 190.31 566 200.21 576.78 209.15 587.61 216.64 598.47 222.37 609.34 226.18 620.21 228.15 631.06 228.55 641.86 227.81 652.6 226.52 663.25 225.34 673.81 224.9 690.82 231.73 699.37 246.83 700.46 256 700.64 265.17 699.9 274.35 698.25 283.52 695.74 292.69 692.43 301.87 688.41 311.04 683.77 320.21 678.63 329.38 673.13 338.56 667.4 347.73 661.58 356.9 655.82 366.08 650.27 375.25 645.06 384.42 640.33 393.6 636.2 402.77 632.76 411.94 630.11 421.11 628.31 430.29 627.41 439.46 627.43 448.63 628.37 457.81 630.21 466.98 632.89 476.15 636.36 485.32 640.52 494.5 645.28 503.67 650.5 512.84 656.07 522.02 650.74 529.68 645.38 540.37 639.97 553.47 634.47 568.1 628.89 583.21 623.2 597.68 617.38 610.45 611.43 620.63 598.98 629.39 586.03 628.37 579.23 623.43 572.25 617.4 557.6 607.85 542.37 604.89 534.41 609.09 526.26 616.96 517.92 628.19 509.41 642.12 500.72 657.78 491.87 674.01 482.86 689.57 473.71 703.27 464.42 714.14 455.02 721.47 445.5 724.96 435.89 724.69 426.19 721.2 416.43 715.32 409 698.7 401.42 682.33 393.68 667.48 385.8 655.2 377.76 646.28 369.59 641.14 361.27 639.77 352.82 641.78 344.24 646.39 335.54 652.59 326.74 659.17 317.83 664.9 308.83 668.68 299.74 669.61 290.59 667.09 281.38 660.93 272.11 651.32 262.81 638.81 253.48 624.26 244.13 608.76 234.78 593.46 225.44 579.49 216.11 567.83 206.8 559.19 197.53 553.96 188.3 552.15 179.12 553.41 170 557.04 160.94 562.13 151.95 567.6 137.99 568.95 131.76 555.77 130.68 545.97 129.74 536.18 128.95 526.39 128.34 516.59 127.93 506.8 127.71 497.01 127.71 487.21 127.91 477.42 128.32 467.63 128.92 457.83 129.7 448.04 130.64 438.25 131.71 428.45 132.89 418.66 134.14 408.87 135.45 399.07 136.77 389.28 138.06 379.49 139.31 369.69 140.47 359.9 141.52 350.11 142.44 340.31 143.18 330.52 143.75 320.73 144.13 310.93 144.3 301.14 144.25 291.35 144.01 281.55 143.56 271.76 142.92 261.97 151.13 252.18 159.26 241.49 167.29 230.53 175.23 219.99 183.08 210.47 190.83 202.46 206.01 192.99 220.91 188.87 235.39 189.95 249.66 190.84 263.63 186.29 277.49 176.72 284.38 169.07 291.25 160.2 298.13 150.57 305.02 140.73 311.95 131.23 318.91 122.56 325.92 115.13 333 109.18 347.45 102.6 362.21 99.66 373.64 99.22 377.5 99.05" stroke-dasharray="11 4" transform="rotate(8.08, 400, 400)" opacity="0.24"></path><path d="M378.07 111.9Q386.02 120.54 394.11 128.47 402.36 135.32 410.75 140.84 419.3 144.9 428.01 147.52 436.86 148.86 445.87 149.21 455.03 148.99 464.33 148.65 473.77 148.69 483.34 149.58 493.04 151.69 502.85 155.32 512.77 160.57 522.79 167.42 532.9 175.67 543.07 184.98 553.31 194.89 563.6 204.87 573.91 214.39 584.25 222.93 594.58 230.08 604.9 235.55 615.19 239.22 625.43 241.14 635.61 241.55 645.71 240.83 655.72 239.5 665.61 238.13 681.28 241.9 688.54 255.32 689.08 264.16 688.8 273.01 687.68 281.85 685.77 290.69 683.09 299.54 679.73 308.38 675.74 317.23 671.23 326.07 666.29 334.91 661.05 343.76 655.63 352.6 650.14 361.44 644.72 370.29 639.49 379.13 634.57 387.97 630.08 396.82 626.12 405.66 622.78 414.5 620.13 423.35 618.25 432.19 617.17 441.03 616.91 449.88 617.49 458.72 618.89 467.56 621.08 476.41 624.01 485.25 627.6 494.09 631.78 502.93 636.46 511.78 641.51 520.62 636.34 531.56 631.16 544.48 625.95 558.56 620.7 572.86 615.39 586.42 610 598.32 598.88 612.83 587.41 618.19 575.27 610.91 562.67 600.29 549.24 593.73 535.3 594.66 528.02 600.66 520.57 609.87 512.95 621.86 505.16 635.94 497.2 651.16 489.08 666.47 480.81 680.81 472.4 693.19 463.84 702.81 455.15 709.13 446.34 711.96 437.42 711.43 428.4 708.01 419.29 702.48 411.83 686.69 404.23 671.1 396.48 656.79 388.6 644.71 380.58 635.59 372.44 629.83 355.75 629.75 338.74 637.31 330.07 643.45 321.32 649.34 312.5 653.93 303.63 656.35 294.7 655.92 285.73 652.26 276.73 645.31 267.71 635.35 258.68 622.94 249.65 608.88 240.62 594.13 231.62 579.69 222.64 566.54 213.7 555.52 204.79 547.24 195.94 542.03 187.14 539.94 178.41 540.67 169.73 543.68 161.13 548.19 144.24 540.63 139.84 520.97 139.12 511.71 138.58 502.44 138.23 493.18 138.09 483.92 138.15 474.65 138.42 465.39 138.88 456.13 139.53 446.86 140.36 437.6 141.33 428.34 142.44 419.07 143.66 409.81 144.94 400.55 146.28 391.28 147.63 382.02 148.97 372.76 150.26 363.49 151.48 354.23 152.59 344.97 153.58 335.7 154.41 326.44 155.07 317.17 155.54 307.91 155.81 298.65 155.88 289.38 155.75 280.12 155.41 270.86 154.88 261.59 162.81 251.05 170.66 240.44 178.43 230.37 186.11 221.37 193.71 213.86 201.21 208.09 215.9 202.72 230.31 201.63 244.3 203.2 258.06 203.24 271.48 196.81 284.75 185.54 291.31 177.39 297.85 168.32 304.37 158.78 310.88 149.28 317.4 140.3 323.93 132.26 337.11 120.93 350.44 113.94 371.09 112.13 378.07 111.9" stroke-dasharray="8 6" transform="rotate(12.12, 400, 400)" opacity="0.94"></path><path d="M379.62 124.74Q395.67 140.89 412.26 153.16 429.39 160.08 447.03 162.08 465.16 161.4 483.73 161.35 502.68 165.16 521.93 174.76 541.39 190.07 560.97 208.93 580.57 227.78 600.09 242.96 619.4 252 638.4 254.57 656.98 252.66 675.04 249.99 677.38 267.12 676.74 284.24 673.18 301.36 666.99 318.49 658.7 335.61 649 352.74 638.72 369.86 628.71 386.98 619.82 404.11 612.79 421.23 608.23 438.35 606.5 455.48 607.75 472.6 611.89 489.72 618.56 506.85 627.21 523.97 617.15 550.2 607.07 576.18 596.85 595.7 586.4 604.76 575.6 603.01 564.39 593.99 552.69 583.94 540.44 579.56 527.6 585.68 514.16 603.45 500.09 629.86 485.42 658.73 470.16 682.88 454.35 696.7 438.04 698.16 421.29 689.64 406.2 659.87 390.6 634.3 374.56 618.77 358.13 615.49 341.35 622.32 324.31 633.57 307.08 642.14 289.72 641.98 272.3 630.26 254.91 608.24 237.6 580.82 220.43 554.67 203.45 535.9 186.7 527.89 170.22 530.15 154.03 538.6 151.72 521.16 149.94 503.72 148.83 486.28 148.5 468.84 148.96 451.4 150.18 433.96 152.06 416.52 154.43 399.08 157.11 381.64 159.86 364.2 162.45 346.76 164.67 329.32 166.32 311.88 167.27 294.44 167.44 277 166.82 259.56 182.05 239.91 196.98 224.7 211.58 216.03 225.83 213.67 239.74 215.16 253.3 216.8 266.55 214.95 279.51 207.32 292.21 193.76 304.73 176.17 317.11 157.8 329.43 142.05 341.76 131.27 354.18 125.96 373.2 124.73 379.62 124.74" stroke-dasharray="9 9" transform="rotate(16.16, 400, 400)" opacity="0.98"></path><path d="M382.09 137.57Q398.04 153.29 414.45 165.43 431.32 172.58 448.61 174.94 466.27 174.3 484.26 173.53 502.51 175.63 520.94 182.79 539.48 195.58 558.04 212.72 576.53 231.46 594.85 248.41 612.91 260.65 630.63 266.74 647.9 267.21 664.66 264.48 665.91 281.09 664.48 297.69 660.48 314.3 654.23 330.9 646.19 347.5 636.98 364.11 627.31 380.71 617.93 397.32 609.55 413.92 602.82 430.52 598.24 447.13 596.18 463.73 596.79 480.33 600.02 496.94 605.63 513.54 613.18 530.14 603.37 555.43 593.62 576.56 583.83 589.26 573.89 591.92 563.73 586.19 553.26 576.53 542.41 568.76 531.13 568.19 519.37 577.88 507.09 597.59 494.28 623.78 480.92 650.72 467.03 672.34 452.61 684.17 437.7 684.89 422.34 676.8 407.27 648.62 391.79 623.93 375.95 607.94 359.8 602.95 343.4 607.69 326.81 617.76 310.11 627.15 293.36 630.18 276.62 623.3 259.94 606.24 243.39 582 227 555.83 210.83 533.51 194.9 519.46 179.23 515.34 163.84 519.6 161.66 503.21 160.04 486.83 159.11 470.45 158.93 454.06 159.53 437.68 160.85 421.3 162.79 404.91 165.21 388.53 167.92 372.14 170.71 355.76 173.37 339.38 175.69 322.99 177.5 306.61 178.66 290.22 179.07 273.84 178.71 257.45 193.39 241.17 207.8 230.61 221.91 226.31 235.69 226.76 249.14 229.01 262.27 229.61 275.07 225.75 287.58 216.16 299.81 201.43 311.81 183.8 323.63 166.33 335.32 151.95 346.94 142.46 358.56 138.05 376.17 137.43 382.09 137.57" stroke-dasharray="2 9" transform="rotate(20.200000000000003, 400, 400)" opacity="0.57"></path><path d="M385.35 150.41Q401.08 165.66 417.19 177.65 433.66 185.02 450.45 187.79 467.5 187.33 484.78 186.07 502.21 186.75 519.73 191.61 537.26 201.74 554.72 216.64 572.05 234.38 589.15 252.11 605.95 266.88 622.39 276.55 638.38 280.44 653.87 279.59 654.14 295.66 652.04 311.73 647.71 327.8 641.45 343.87 633.69 359.94 624.98 376.02 615.93 392.09 607.15 408.16 599.28 424.23 592.84 440.3 588.29 456.37 585.95 472.44 585.99 488.51 588.38 504.59 592.98 520.66 599.46 536.73 589.88 558.17 580.41 572.95 570.98 578.91 561.49 576.46 551.87 568.54 542.04 559.76 531.94 555.09 521.51 558.38 510.7 571.15 499.47 592.14 487.79 617.61 475.65 642.43 463.03 661.55 449.94 671.54 436.39 671.62 422.39 663.97 407.44 637.35 392.17 613.62 376.62 597.33 360.85 590.81 344.91 593.47 328.87 602.04 312.79 611.58 296.71 616.97 280.69 614.38 264.78 602.39 249.03 582.36 233.46 557.98 218.12 534.15 203.02 515.49 188.17 505.05 173.6 503.39 171.58 487.99 170.15 472.58 169.41 457.18 169.4 441.77 170.13 426.37 171.54 410.97 173.54 395.56 175.99 380.16 178.72 364.75 181.54 349.35 184.24 333.94 186.66 318.54 188.6 303.13 189.95 287.73 190.6 272.32 190.52 256.92 204.66 245.21 218.54 239.37 232.16 238.64 245.48 240.74 258.49 242.68 271.19 241.57 283.58 235.53 295.67 224.16 307.47 208.63 319.02 191.29 330.35 174.94 341.5 161.98 352.52 153.77 363.46 150.22 379.86 150.14 385.35 150.41" stroke-dasharray="9 4" transform="rotate(24.24, 400, 400)" opacity="0.53"></path><path d="M389.26 163.25Q404.63 178.01 420.3 189.81 436.23 197.39 452.39 200.59 468.71 200.44 485.16 198.94 501.67 198.49 518.18 201.3 534.63 208.77 550.95 221.06 567.08 237.02 582.95 254.48 598.5 270.8 613.68 283.55 628.42 291.21 642.67 293.62 642.09 309.1 639.43 324.58 634.85 340.05 628.65 355.53 621.22 371.01 613.01 386.49 604.55 401.97 596.37 417.44 588.99 432.92 582.86 448.4 578.38 463.88 575.82 479.36 575.34 494.83 576.98 510.31 580.64 525.79 586.07 541.27 576.7 556.88 567.49 564.92 558.37 565.1 549.26 559.26 540.1 550.9 530.83 544.26 521.37 543.19 511.68 550.11 501.71 565.35 491.41 586.96 480.75 611.28 469.7 633.82 458.26 650.52 446.4 658.81 434.12 658.34 421.44 651.13 406.72 626.07 391.76 603.34 376.61 586.93 361.32 579.08 345.95 579.73 330.54 586.56 315.14 595.66 299.8 602.58 284.57 603.53 269.47 596.37 254.55 581.14 239.83 560.02 225.34 536.72 211.08 515.44 197.08 499.79 183.33 491.81 181.51 477.28 180.29 462.75 179.75 448.22 179.9 433.69 180.76 419.16 182.26 404.63 184.3 390.1 186.77 375.56 189.5 361.03 192.33 346.5 195.07 331.97 197.55 317.44 199.62 302.91 201.15 288.38 202.04 273.85 202.23 259.32 215.82 252.54 229.18 250.82 242.31 252.46 255.16 254.97 267.74 255.65 280.02 252.4 292.01 244.19 303.71 231.36 315.12 215.44 326.26 198.72 337.16 183.66 347.85 172.18 358.36 165.21 368.73 162.45 384.14 162.87 389.26 163.25" stroke-dasharray="6 8" transform="rotate(28.28, 400, 400)" opacity="0.26"></path><path d="M393.66 176.08Q408.53 190.32 423.62 201.9 438.87 209.65 454.27 213.3 469.74 213.58 485.26 212.06 500.77 210.8 516.21 211.88 531.53 216.83 546.67 226.32 561.59 239.89 576.24 256.09 590.55 272.79 604.49 287.67 618.02 298.78 631.1 305.07 629.78 319.86 626.67 334.66 621.94 349.45 615.86 364.24 608.77 379.03 601.07 393.82 593.2 408.61 585.6 423.4 578.7 438.19 572.89 452.98 568.49 467.78 565.76 482.57 564.85 497.36 565.81 512.15 568.59 526.94 573.03 541.73 563.87 550.73 554.9 552.66 546.06 548.66 537.28 541.33 528.53 534.12 519.72 530.51 510.82 533.18 501.76 543.31 492.51 560.31 483.03 581.91 473.27 604.69 463.2 624.88 452.81 639.27 442.07 646 430.99 645.07 419.54 638.29 405.16 614.76 390.64 593.1 376 576.73 361.3 567.77 346.57 566.52 331.87 571.47 317.24 579.61 302.7 587.26 288.29 590.9 274.05 588.02 259.99 577.73 246.15 560.89 232.52 539.93 219.13 518.22 205.97 499.24 193.05 485.76 191.47 471.99 190.47 458.23 190.13 444.46 190.45 430.69 191.43 416.92 193 403.16 195.08 389.39 197.55 375.62 200.27 361.85 203.09 348.09 205.84 334.32 208.38 320.55 210.55 306.79 212.24 293.02 213.36 279.25 213.83 265.49 226.85 263.17 239.69 264.37 252.31 267.01 264.7 268.74 276.83 267.47 288.7 261.88 300.3 251.73 311.62 237.85 322.66 221.95 333.44 206.16 343.96 192.54 354.25 182.56 364.33 176.77 374.24 174.74 388.83 175.61 393.66 176.08" stroke-dasharray="1 6" transform="rotate(32.32, 400, 400)" opacity="0.95"></path><path d="M398.34 188.93Q412.58 202.63 426.95 213.95 441.41 221.83 455.93 225.93 470.47 226.7 484.97 225.37 499.41 223.63 513.73 223.33 527.89 226.05 541.85 232.73 555.56 243.52 568.99 257.62 582.09 273.52 594.84 289.28 607.2 302.93 619.16 312.91 617.23 326.91 613.78 340.9 608.97 354.9 603.07 368.9 596.35 382.9 589.16 396.9 581.86 410.9 574.82 424.9 568.39 438.9 562.9 452.9 558.63 466.9 555.78 480.9 554.51 494.9 554.87 508.9 544.1 531.03 525.61 523.76 517.2 518.95 508.8 518.86 500.38 525.06 491.87 537.78 483.24 555.82 474.46 576.84 465.48 597.77 456.27 615.56 446.82 627.76 437.09 633.1 427.07 631.78 416.76 625.44 402.86 603.43 388.89 582.88 374.87 566.7 360.85 556.84 346.87 553.87 332.96 556.87 319.14 563.67 305.46 571.32 291.92 576.73 278.57 577.37 265.4 571.72 252.45 559.65 239.7 542.42 227.18 522.33 214.88 502.28 202.8 485.11 201.46 472.01 200.7 458.91 200.56 445.81 201.05 432.72 202.14 419.62 203.77 406.52 205.87 393.42 208.33 380.32 211.02 367.23 213.81 354.13 216.56 341.03 219.13 327.93 221.39 314.84 223.23 301.74 224.55 288.64 225.28 275.55 237.74 276.5 250.03 279.14 262.14 281.42 274.05 281.42 285.74 277.79 297.19 269.93 308.39 258.2 319.33 243.76 330.02 228.31 340.46 213.72 350.64 201.65 360.58 193.14 370.3 188.48 379.82 187.12 393.74 188.37 398.34 188.93" stroke-dasharray="1 5" transform="rotate(36.36, 400, 400)" opacity="0.64"></path><path d="M403.09 201.77Q416.57 214.89 430.11 225.92 443.67 233.89 457.23 238.41 470.74 239.75 484.18 238.78 497.51 236.87 510.68 235.59 523.67 236.43 536.44 240.51 548.96 248.36 561.2 259.76 573.13 273.84 584.74 289.15 595.99 304.01 606.88 316.74 604.46 329.86 600.77 342.97 595.97 356.09 590.28 369.2 583.96 382.31 577.27 395.43 570.54 408.54 564.04 421.66 558.08 434.77 552.92 447.89 548.79 461 545.87 474.12 544.3 487.23 544.14 500.35 532.42 515.88 514.29 507.58 506.2 505.96 498.16 509.48 490.15 518.76 482.11 533.33 474.02 551.69 465.84 571.6 457.53 590.47 449.07 605.89 440.43 616.04 431.59 620.14 422.53 618.51 413.23 612.61 399.94 592.09 386.63 572.68 373.34 556.84 360.1 546.31 346.94 541.81 333.87 542.88 320.94 548.05 308.15 555.07 295.52 561.38 283.08 564.6 270.83 562.96 258.77 555.65 246.92 542.93 235.27 526.11 223.83 507.22 212.58 488.68 211.51 476.19 210.99 463.7 211.05 451.22 211.69 438.73 212.88 426.24 214.57 413.75 216.68 401.26 219.11 388.77 221.76 376.28 224.51 363.8 227.23 351.31 229.81 338.82 232.13 326.33 234.09 313.85 242.02 296.43 260.19 294.02 271.77 294.77 283.19 292.44 294.41 286.35 305.42 276.53 316.22 263.73 326.79 249.24 337.13 234.63 347.22 221.46 357.08 210.99 366.71 203.93 376.11 200.32 385.29 199.56 398.68 201.14 403.09 201.77" stroke-dasharray="11 2" transform="rotate(40.400000000000006, 400, 400)" opacity="0.63"></path><path d="M407.7 214.61Q420.31 227.13 432.92 237.82 445.5 245.84 458.03 250.75 470.47 252.67 482.8 252.21 494.99 250.4 507.01 248.54 518.83 247.96 530.43 249.78 541.79 254.78 552.88 263.19 563.69 274.66 574.2 288.32 584.4 302.91 594.28 316.98 591.49 329.14 587.66 341.31 582.94 353.47 577.51 365.63 571.6 377.8 565.42 389.96 559.23 402.12 553.26 414.29 547.76 426.45 542.93 438.61 538.96 450.78 536.02 462.94 534.22 475.1 533.63 487.27 521.12 499.52 503.38 493.64 495.58 495.54 487.87 502.36 480.22 514.04 472.59 529.67 464.96 547.68 457.29 566.06 449.57 582.72 441.75 595.82 425.66 604.67 409.11 599.77 396.54 580.72 384.01 562.5 371.54 547.13 359.15 536.15 346.87 530.34 334.72 529.59 322.7 532.96 310.84 538.85 299.15 545.24 287.64 550.06 276.31 551.54 265.16 548.49 254.21 540.5 243.44 527.98 232.85 512.09 222.43 494.54 221.63 482.64 221.35 470.74 221.61 458.84 222.4 446.95 223.67 435.05 225.4 423.15 227.49 411.26 229.89 399.36 232.48 387.46 235.17 375.56 237.85 363.67 240.42 351.77 242.78 339.87 244.83 327.98 252.74 311.43 270.14 307.87 281.18 306.3 292.08 301.41 302.81 293.1 313.38 281.82 323.75 268.52 333.93 254.48 343.9 241.06 353.65 229.48 363.19 220.64 372.51 214.95 381.62 212.31 390.51 212.07 403.45 213.93 407.7 214.61" stroke-dasharray="9 2" transform="rotate(44.44, 400, 400)" opacity="0.68"></path><path d="M411.97 227.44Q423.62 239.34 435.23 249.65 446.77 257.65 458.22 262.91 469.55 265.42 480.76 265.57 491.81 264.11 502.68 262.05 513.36 260.51 523.82 260.55 534.06 263.02 544.05 268.43 553.79 276.86 563.27 287.94 572.48 300.92 581.4 314.72 578.36 325.9 574.47 337.08 569.89 348.27 564.77 359.45 559.27 370.64 553.6 381.82 547.94 393 542.48 404.19 537.42 415.37 532.93 426.56 529.16 437.74 526.23 448.93 524.26 460.11 523.31 471.3 510.21 483.42 492.9 482.54 485.39 487.81 477.98 497.34 470.66 510.6 463.4 526.5 456.18 543.56 448.96 560.1 441.73 574.48 434.46 585.37 419.67 591.96 404.59 586.93 392.85 569.34 381.18 552.32 369.6 537.55 358.14 526.34 346.79 519.46 335.59 517.05 324.52 518.58 313.62 522.98 302.88 528.74 292.3 534.22 281.9 537.8 271.67 538.17 261.6 534.53 251.7 526.65 241.96 514.93 232.38 500.32 231.85 489.04 231.8 477.76 232.25 466.48 233.16 455.19 234.51 443.91 236.25 432.63 238.33 421.35 240.67 410.06 243.19 398.78 245.8 387.5 248.42 376.22 250.96 364.93 253.33 353.65 255.45 342.37 263.27 326 279.87 319.65 290.34 315.45 300.69 308.16 310.92 298.11 321 286 330.93 272.82 340.69 259.7 350.27 247.75 359.67 237.85 368.88 230.62 377.89 226.22 403.6 226.33 411.97 227.44" stroke-dasharray="4 1" transform="rotate(48.48, 400, 400)" opacity="0.22"></path><path d="M415.7 240.28Q426.33 251.52 436.88 261.41 447.34 269.32 457.69 274.86 467.92 277.94 478 278.76 487.93 277.84 497.68 275.93 507.25 273.91 516.62 272.7 525.79 273.13 534.74 275.83 543.47 281.17 551.97 289.16 560.24 299.5 568.28 311.56 565.08 321.77 561.23 331.99 556.85 342.21 552.05 352.42 546.99 362.64 541.81 372.86 536.66 383.07 531.7 393.29 527.08 403.51 522.92 413.73 519.36 423.94 516.5 434.16 514.41 444.38 513.17 454.59 509.14 467.95 497.78 469.12 490.26 470.1 482.9 474.57 475.67 482.68 468.57 494.1 461.57 508.08 454.64 523.53 447.78 539.14 440.96 553.61 434.16 565.71 427.37 574.55 413.69 579.15 399.86 574.1 389.03 557.93 378.3 542.15 367.68 528.09 357.18 516.86 346.81 509.18 336.58 505.31 326.49 505.06 316.55 507.76 306.77 512.37 297.13 517.65 287.65 522.27 278.32 525.01 269.14 524.91 260.1 521.36 251.2 514.21 242.43 503.75 242.17 493.14 242.35 482.53 242.96 471.91 243.98 461.3 245.39 450.69 247.14 440.07 249.17 429.46 251.44 418.85 253.88 408.24 256.4 397.62 258.94 387.01 261.43 376.4 263.78 365.79 265.93 355.17 267.82 344.56 269.39 333.95 279.4 332.6 289.35 328.62 299.23 321.93 309.01 312.75 318.7 301.65 328.27 289.39 337.72 276.9 347.03 265.1 356.2 254.81 365.21 246.65 374.06 240.95 382.74 237.73 407.6 239.01 415.7 240.28" stroke-dasharray="0 3" transform="rotate(52.52, 400, 400)" opacity="0.33"></path><path d="M418.74 253.12Q428.3 263.67 437.78 273.09 447.15 280.86 456.4 286.6 465.52 290.19 474.5 291.7 491.93 289.69 508.85 286.03 524.87 286.54 540.33 292.9 547.73 300.06 554.93 309.32 551.69 318.62 547.95 327.91 543.8 337.21 539.37 346.5 534.74 355.79 530.05 365.09 525.4 374.38 520.92 383.67 516.72 392.97 512.91 402.26 509.57 411.56 506.8 420.85 504.66 430.14 503.21 439.44 498.73 452.75 487.62 458.08 480.42 462.34 473.37 469.66 466.46 479.79 459.66 492.19 452.97 506.05 446.38 520.4 439.86 534.21 433.4 546.48 420.62 561.72 407.89 567.62 401.53 565.44 395.13 561.26 385.29 546.49 375.54 531.96 365.92 518.73 356.42 507.67 347.04 499.45 337.8 494.39 328.69 492.51 319.71 493.44 310.87 496.54 302.17 500.94 293.6 505.64 285.17 509.62 268.73 510.46 252.63 503.01 252.62 493.14 253 483.27 253.76 473.4 254.87 463.53 256.31 453.66 258.05 443.79 260.04 433.92 262.22 424.05 264.55 414.18 266.97 404.31 269.41 394.43 271.82 384.56 274.13 374.69 276.29 364.82 278.24 354.95 279.92 345.08 289.27 340.94 298.58 334.45 307.83 325.82 317.02 315.5 326.14 304.11 335.16 292.4 344.09 281.1 352.92 270.91 361.62 262.4 370.21 255.93 386.9 250.39 403.16 250.03 414.88 252.35 418.74 253.12" stroke-dasharray="3 2" transform="rotate(56.56, 400, 400)" opacity="0.50"></path><path d="M420.94 265.96Q437.83 284.71 454.29 298.11 470.26 304.3 485.69 303.98 500.54 300.2 514.79 297.38 528.41 299.73 541.41 309.7 534.64 326.56 526.72 343.43 518.32 360.3 510.14 377.16 502.88 394.03 497.14 410.89 493.41 427.76 492 444.62 477.89 451.11 464.34 467.42 451.29 491.05 438.66 516.82 426.37 538.66 414.32 551.75 402.44 554.35 390.62 548.41 373.07 521.76 355.97 498.74 339.33 484.28 323.17 480.23 307.48 484.69 292.24 492.84 277.43 498.66 262.99 497.09 263.77 478.99 265.83 460.88 269 442.77 273 424.66 277.51 406.55 282.14 388.44 286.51 370.33 290.24 352.21 307.55 337.25 324.71 316.92 341.66 295.44 358.32 277.32 374.64 265.75 390.54 261.52 413.46 264.39 420.94 265.96" stroke-dasharray="1 11" transform="rotate(60.599999999999994, 400, 400)" opacity="0.45"></path><path d="M422.2 278.8Q436.97 296.23 451.35 309.35 465.29 316.48 478.76 317.69 491.75 314.83 504.24 311.02 518.78 319.46 514.12 344.44 506.63 359.72 499.37 375 492.84 390.28 487.52 405.56 483.75 420.84 481.82 436.12 468.57 448.14 455.81 467.19 443.48 490.12 431.55 512.53 419.95 530.09 408.63 539.83 397.51 541.05 386.54 535.57 371.04 511.55 355.95 490.04 341.27 474.97 326.99 468.29 313.1 469.46 299.59 475.66 280.54 476.15 276.86 453.3 279.97 436.94 283.78 420.57 288.02 404.2 292.39 387.84 296.6 371.47 300.35 355.1 316.25 337.58 332.07 317.68 347.75 298.95 363.23 284.51 378.47 276.13 393.4 273.79 415.1 277.24 422.2 278.8" stroke-dasharray="4 4" transform="rotate(64.64, 400, 400)" opacity="0.22"></path><path d="M422.47 291.64Q435.21 307.68 447.6 320.33 459.62 328.17 471.26 330.9 482.52 329.47 493.38 325.86 505.95 329.41 501.58 349.97 494.97 363.78 488.59 377.59 482.8 391.4 477.92 405.21 474.23 419.02 471.94 432.83 459.65 448.47 447.75 468.11 436.24 488.8 425.06 507.28 414.2 520.75 403.6 527.58 393.23 527.71 383.05 522.74 369.58 501.31 356.46 481.53 343.68 466.39 331.22 457.7 319.08 455.71 307.23 459.07 290.66 460.7 287.97 441.67 290.98 427.11 294.56 412.56 298.5 398 302.58 383.44 306.57 368.88 310.24 354.33 324.69 336.41 339.11 318.57 353.44 303.36 367.65 292.62 381.7 287.11 395.54 286.31 415.81 290.11 422.47 291.64" stroke-dasharray="3 8" transform="rotate(68.68, 400, 400)" opacity="0.18"></path><path d="M421.74 304.48Q432.55 319.05 443.08 331.04 453.32 339.31 463.27 343.4 472.92 343.66 482.27 341.19 493.06 342.43 489.08 359.64 483.34 372.05 477.81 384.45 472.73 396.86 468.33 409.27 464.81 421.67 462.33 434.08 451.09 450.95 440.16 469.2 429.55 486.56 419.22 500.9 409.15 510.63 399.33 515.02 389.73 514.35 380.32 509.9 368.82 491.04 357.59 473.18 346.63 458.49 335.92 448.49 325.45 443.79 315.19 443.99 300.99 444.07 299.15 427.64 302.02 414.9 305.34 402.15 308.95 389.41 312.7 376.67 316.41 363.93 319.93 351.19 332.88 334.93 345.83 320.36 358.74 309.01 371.59 301.75 384.35 298.67 396.97 299.06 415.59 303.02 421.74 304.48" stroke-dasharray="8 2" transform="rotate(72.72, 400, 400)" opacity="0.10"></path><path d="M420.03 317.31Q429.06 330.34 437.87 341.48 446.47 349.87 454.84 355.04 476.22 358.24 476.65 372.24 471.75 383.26 467.03 394.28 462.65 405.3 458.76 416.32 455.5 427.33 452.97 438.35 442.87 454.14 433.01 469.47 423.39 482.91 414 493.24 404.82 499.73 395.85 502.17 387.07 500.97 378.46 497.06 368.83 480.73 359.4 464.94 350.17 451.18 341.12 440.59 332.23 433.88 323.5 431.14 311.53 428.08 310.42 413.28 313.1 402.31 316.12 391.34 319.37 380.37 322.75 369.4 326.13 358.43 329.41 347.46 340.82 334.42 352.25 323.76 363.68 316.2 375.08 311.97 386.44 310.81 397.73 312.03 414.48 315.96 420.03 317.31" stroke-dasharray="2 9" transform="rotate(76.76, 400, 400)" opacity="0.52"></path><path d="M417.43 330.15Q424.82 341.55 432.06 351.63 446.01 364.43 459.53 370.1 467.24 372.77 464.28 385.99 460.19 395.59 456.25 405.19 452.55 414.79 449.2 424.39 446.26 433.99 443.82 443.59 434.95 456.53 426.26 468.09 417.74 477.51 409.39 484.27 393.25 487.84 377.57 484.23 369.69 470.39 361.94 456.78 354.32 444.35 346.83 433.9 332.21 422.45 317.85 419.26 319.63 409.99 321.76 400.72 324.21 391.45 326.89 382.18 329.76 372.91 332.74 363.63 335.74 354.36 338.7 345.09 348.54 336.03 358.4 329.31 368.28 325.08 378.16 323.26 388.03 323.49 397.87 325.21 412.56 328.92 417.43 330.15" stroke-dasharray="4 5" transform="rotate(80.80000000000001, 400, 400)" opacity="0.43"></path><path d="M414.06 343Q425.75 361.52 437.06 375.2 448.03 382.2 458.69 382.64 451.98 398.88 445.47 415.11 439.63 431.35 434.86 447.59 419.87 464.37 405.35 473.98 391.29 475.76 377.68 471.38 365.22 448.65 353.07 428.25 341.19 413.79 329.52 407.03 333.19 391.72 337.67 376.4 342.67 361.09 347.83 345.77 364.3 337.31 380.88 335.57 405.77 340.78 414.06 343" stroke-dasharray="10 6" transform="rotate(84.84, 400, 400)" opacity="0.72"></path><path d="M410.05 355.83Q419.08 371.13 427.89 383.61 436.52 392.02 444.99 395.9 439.75 409.03 434.69 422.15 430.05 435.28 426.04 448.4 413.79 457.91 401.83 462.45 390.17 462.27 378.79 458.54 369.23 440.51 359.84 423.43 350.59 409.31 341.45 399.58 344.7 387.35 348.45 375.12 352.54 362.89 356.79 350.66 370 347.84 383.3 348.81 403.35 353.96 410.05 355.83" stroke-dasharray="5 2" transform="rotate(88.88, 400, 400)" opacity="0.54"></path><path d="M405.6 368.67Q412.18 380.49 418.66 390.9 426.33 407.18 423.92 424.97 420.47 434.85 417.34 444.74 407.98 448.63 398.78 449.81 389.73 448.63 380.84 445.7 373.94 432.33 367.11 419.18 360.34 407.16 353.62 397.02 356.29 387.8 359.23 378.58 368.95 365.02 385.49 362.8 400.56 367.21 405.6 368.67" stroke-dasharray="2 1" transform="rotate(92.92, 400, 400)" opacity="0.85"></path><path d="M400.9 381.51Q409.48 397.17 417.95 409.88 413.14 423.02 408.72 436.17 396.1 436.23 383.75 432.87 374.85 415.24 366.03 398.56 370.01 386.11 374.34 373.67 394.22 379.43 400.9 381.51" stroke-dasharray="9 10" transform="rotate(96.96, 400, 400)" opacity="0.45"></path></g></svg>